G04 #@! TF.GenerationSoftware,KiCad,Pcbnew,(5.1.4)-1*
G04 #@! TF.CreationDate,2020-09-18T13:05:13-04:00*
G04 #@! TF.ProjectId,nRF52832_DEMO_V01,6e524635-3238-4333-925f-44454d4f5f56,rev?*
G04 #@! TF.SameCoordinates,Original*
G04 #@! TF.FileFunction,Soldermask,Top*
G04 #@! TF.FilePolarity,Negative*
%FSLAX46Y46*%
G04 Gerber Fmt 4.6, Leading zero omitted, Abs format (unit mm)*
G04 Created by KiCad (PCBNEW (5.1.4)-1) date 2020-09-18 13:05:13*
%MOMM*%
%LPD*%
G04 APERTURE LIST*
%ADD10C,0.100000*%
G04 APERTURE END LIST*
D10*
G36*
X115565000Y-105420000D02*
G01*
X114813000Y-105420000D01*
X114813000Y-102558000D01*
X115565000Y-102558000D01*
X115565000Y-105420000D01*
X115565000Y-105420000D01*
G37*
G36*
X118105000Y-105420000D02*
G01*
X117353000Y-105420000D01*
X117353000Y-102558000D01*
X118105000Y-102558000D01*
X118105000Y-105420000D01*
X118105000Y-105420000D01*
G37*
G36*
X119375000Y-105420000D02*
G01*
X118623000Y-105420000D01*
X118623000Y-102558000D01*
X119375000Y-102558000D01*
X119375000Y-105420000D01*
X119375000Y-105420000D01*
G37*
G36*
X114295000Y-105420000D02*
G01*
X113543000Y-105420000D01*
X113543000Y-102558000D01*
X114295000Y-102558000D01*
X114295000Y-105420000D01*
X114295000Y-105420000D01*
G37*
G36*
X116835000Y-105420000D02*
G01*
X116083000Y-105420000D01*
X116083000Y-102558000D01*
X116835000Y-102558000D01*
X116835000Y-105420000D01*
X116835000Y-105420000D01*
G37*
G36*
X104870400Y-104475100D02*
G01*
X103968400Y-104475100D01*
X103968400Y-103373100D01*
X104870400Y-103373100D01*
X104870400Y-104475100D01*
X104870400Y-104475100D01*
G37*
G36*
X102769820Y-104475100D02*
G01*
X101867820Y-104475100D01*
X101867820Y-103373100D01*
X102769820Y-103373100D01*
X102769820Y-104475100D01*
X102769820Y-104475100D01*
G37*
G36*
X126617591Y-102919085D02*
G01*
X126651569Y-102929393D01*
X126682890Y-102946134D01*
X126710339Y-102968661D01*
X126732866Y-102996110D01*
X126749607Y-103027431D01*
X126759915Y-103061409D01*
X126764000Y-103102890D01*
X126764000Y-103704110D01*
X126759915Y-103745591D01*
X126749607Y-103779569D01*
X126732866Y-103810890D01*
X126710339Y-103838339D01*
X126682890Y-103860866D01*
X126651569Y-103877607D01*
X126617591Y-103887915D01*
X126576110Y-103892000D01*
X125899890Y-103892000D01*
X125858409Y-103887915D01*
X125824431Y-103877607D01*
X125793110Y-103860866D01*
X125765661Y-103838339D01*
X125743134Y-103810890D01*
X125726393Y-103779569D01*
X125716085Y-103745591D01*
X125712000Y-103704110D01*
X125712000Y-103102890D01*
X125716085Y-103061409D01*
X125726393Y-103027431D01*
X125743134Y-102996110D01*
X125765661Y-102968661D01*
X125793110Y-102946134D01*
X125824431Y-102929393D01*
X125858409Y-102919085D01*
X125899890Y-102915000D01*
X126576110Y-102915000D01*
X126617591Y-102919085D01*
X126617591Y-102919085D01*
G37*
G36*
X105956200Y-103109300D02*
G01*
X104254200Y-103109300D01*
X104254200Y-102207300D01*
X105956200Y-102207300D01*
X105956200Y-103109300D01*
X105956200Y-103109300D01*
G37*
G36*
X128043938Y-102376716D02*
G01*
X128064557Y-102382971D01*
X128083553Y-102393124D01*
X128100208Y-102406792D01*
X128113876Y-102423447D01*
X128124029Y-102442443D01*
X128130284Y-102463062D01*
X128133000Y-102490640D01*
X128133000Y-102949360D01*
X128130284Y-102976938D01*
X128124029Y-102997557D01*
X128113876Y-103016553D01*
X128100208Y-103033208D01*
X128083553Y-103046876D01*
X128064557Y-103057029D01*
X128043938Y-103063284D01*
X128016360Y-103066000D01*
X127507640Y-103066000D01*
X127480062Y-103063284D01*
X127459443Y-103057029D01*
X127440447Y-103046876D01*
X127423792Y-103033208D01*
X127410124Y-103016553D01*
X127399971Y-102997557D01*
X127393716Y-102976938D01*
X127391000Y-102949360D01*
X127391000Y-102490640D01*
X127393716Y-102463062D01*
X127399971Y-102442443D01*
X127410124Y-102423447D01*
X127423792Y-102406792D01*
X127440447Y-102393124D01*
X127459443Y-102382971D01*
X127480062Y-102376716D01*
X127507640Y-102374000D01*
X128016360Y-102374000D01*
X128043938Y-102376716D01*
X128043938Y-102376716D01*
G37*
G36*
X126617591Y-101344085D02*
G01*
X126651569Y-101354393D01*
X126682890Y-101371134D01*
X126710339Y-101393661D01*
X126732866Y-101421110D01*
X126749607Y-101452431D01*
X126759915Y-101486409D01*
X126764000Y-101527890D01*
X126764000Y-102129110D01*
X126759915Y-102170591D01*
X126749607Y-102204569D01*
X126732866Y-102235890D01*
X126710339Y-102263339D01*
X126682890Y-102285866D01*
X126651569Y-102302607D01*
X126617591Y-102312915D01*
X126576110Y-102317000D01*
X125899890Y-102317000D01*
X125858409Y-102312915D01*
X125824431Y-102302607D01*
X125793110Y-102285866D01*
X125765661Y-102263339D01*
X125743134Y-102235890D01*
X125726393Y-102204569D01*
X125716085Y-102170591D01*
X125712000Y-102129110D01*
X125712000Y-101527890D01*
X125716085Y-101486409D01*
X125726393Y-101452431D01*
X125743134Y-101421110D01*
X125765661Y-101393661D01*
X125793110Y-101371134D01*
X125824431Y-101354393D01*
X125858409Y-101344085D01*
X125899890Y-101340000D01*
X126576110Y-101340000D01*
X126617591Y-101344085D01*
X126617591Y-101344085D01*
G37*
G36*
X128043938Y-101406716D02*
G01*
X128064557Y-101412971D01*
X128083553Y-101423124D01*
X128100208Y-101436792D01*
X128113876Y-101453447D01*
X128124029Y-101472443D01*
X128130284Y-101493062D01*
X128133000Y-101520640D01*
X128133000Y-101979360D01*
X128130284Y-102006938D01*
X128124029Y-102027557D01*
X128113876Y-102046553D01*
X128100208Y-102063208D01*
X128083553Y-102076876D01*
X128064557Y-102087029D01*
X128043938Y-102093284D01*
X128016360Y-102096000D01*
X127507640Y-102096000D01*
X127480062Y-102093284D01*
X127459443Y-102087029D01*
X127440447Y-102076876D01*
X127423792Y-102063208D01*
X127410124Y-102046553D01*
X127399971Y-102027557D01*
X127393716Y-102006938D01*
X127391000Y-101979360D01*
X127391000Y-101520640D01*
X127393716Y-101493062D01*
X127399971Y-101472443D01*
X127410124Y-101453447D01*
X127423792Y-101436792D01*
X127440447Y-101423124D01*
X127459443Y-101412971D01*
X127480062Y-101406716D01*
X127507640Y-101404000D01*
X128016360Y-101404000D01*
X128043938Y-101406716D01*
X128043938Y-101406716D01*
G37*
G36*
X105956200Y-101609300D02*
G01*
X104254200Y-101609300D01*
X104254200Y-100707300D01*
X105956200Y-100707300D01*
X105956200Y-101609300D01*
X105956200Y-101609300D01*
G37*
G36*
X116835000Y-101380000D02*
G01*
X116083000Y-101380000D01*
X116083000Y-98518000D01*
X116835000Y-98518000D01*
X116835000Y-101380000D01*
X116835000Y-101380000D01*
G37*
G36*
X118105000Y-101380000D02*
G01*
X117353000Y-101380000D01*
X117353000Y-98518000D01*
X118105000Y-98518000D01*
X118105000Y-101380000D01*
X118105000Y-101380000D01*
G37*
G36*
X114295000Y-101380000D02*
G01*
X113543000Y-101380000D01*
X113543000Y-98518000D01*
X114295000Y-98518000D01*
X114295000Y-101380000D01*
X114295000Y-101380000D01*
G37*
G36*
X115565000Y-101380000D02*
G01*
X114813000Y-101380000D01*
X114813000Y-98518000D01*
X115565000Y-98518000D01*
X115565000Y-101380000D01*
X115565000Y-101380000D01*
G37*
G36*
X119375000Y-101380000D02*
G01*
X118623000Y-101380000D01*
X118623000Y-98518000D01*
X119375000Y-98518000D01*
X119375000Y-101380000D01*
X119375000Y-101380000D01*
G37*
G36*
X105956200Y-98609300D02*
G01*
X104254200Y-98609300D01*
X104254200Y-97707300D01*
X105956200Y-97707300D01*
X105956200Y-98609300D01*
X105956200Y-98609300D01*
G37*
G36*
X104870400Y-97439300D02*
G01*
X103968400Y-97439300D01*
X103968400Y-96337300D01*
X104870400Y-96337300D01*
X104870400Y-97439300D01*
X104870400Y-97439300D01*
G37*
G36*
X102769820Y-97436760D02*
G01*
X101867820Y-97436760D01*
X101867820Y-96334760D01*
X102769820Y-96334760D01*
X102769820Y-97436760D01*
X102769820Y-97436760D01*
G37*
G36*
X122172138Y-93205316D02*
G01*
X122192757Y-93211571D01*
X122211753Y-93221724D01*
X122228408Y-93235392D01*
X122242076Y-93252047D01*
X122252229Y-93271043D01*
X122258484Y-93291662D01*
X122261200Y-93319240D01*
X122261200Y-93827960D01*
X122258484Y-93855538D01*
X122252229Y-93876157D01*
X122242076Y-93895153D01*
X122228408Y-93911808D01*
X122211753Y-93925476D01*
X122192757Y-93935629D01*
X122172138Y-93941884D01*
X122144560Y-93944600D01*
X121685840Y-93944600D01*
X121658262Y-93941884D01*
X121637643Y-93935629D01*
X121618647Y-93925476D01*
X121601992Y-93911808D01*
X121588324Y-93895153D01*
X121578171Y-93876157D01*
X121571916Y-93855538D01*
X121569200Y-93827960D01*
X121569200Y-93319240D01*
X121571916Y-93291662D01*
X121578171Y-93271043D01*
X121588324Y-93252047D01*
X121601992Y-93235392D01*
X121618647Y-93221724D01*
X121637643Y-93211571D01*
X121658262Y-93205316D01*
X121685840Y-93202600D01*
X122144560Y-93202600D01*
X122172138Y-93205316D01*
X122172138Y-93205316D01*
G37*
G36*
X123142138Y-93205316D02*
G01*
X123162757Y-93211571D01*
X123181753Y-93221724D01*
X123198408Y-93235392D01*
X123212076Y-93252047D01*
X123222229Y-93271043D01*
X123228484Y-93291662D01*
X123231200Y-93319240D01*
X123231200Y-93827960D01*
X123228484Y-93855538D01*
X123222229Y-93876157D01*
X123212076Y-93895153D01*
X123198408Y-93911808D01*
X123181753Y-93925476D01*
X123162757Y-93935629D01*
X123142138Y-93941884D01*
X123114560Y-93944600D01*
X122655840Y-93944600D01*
X122628262Y-93941884D01*
X122607643Y-93935629D01*
X122588647Y-93925476D01*
X122571992Y-93911808D01*
X122558324Y-93895153D01*
X122548171Y-93876157D01*
X122541916Y-93855538D01*
X122539200Y-93827960D01*
X122539200Y-93319240D01*
X122541916Y-93291662D01*
X122548171Y-93271043D01*
X122558324Y-93252047D01*
X122571992Y-93235392D01*
X122588647Y-93221724D01*
X122607643Y-93211571D01*
X122628262Y-93205316D01*
X122655840Y-93202600D01*
X123114560Y-93202600D01*
X123142138Y-93205316D01*
X123142138Y-93205316D01*
G37*
G36*
X113434061Y-92657827D02*
G01*
X113436239Y-92658488D01*
X113438239Y-92659557D01*
X113439999Y-92661001D01*
X113441443Y-92662761D01*
X113442512Y-92664761D01*
X113443173Y-92666939D01*
X113444000Y-92675338D01*
X113444000Y-93760662D01*
X113443173Y-93769061D01*
X113442512Y-93771239D01*
X113441443Y-93773239D01*
X113439999Y-93774999D01*
X113438239Y-93776443D01*
X113436239Y-93777512D01*
X113434061Y-93778173D01*
X113425662Y-93779000D01*
X111110338Y-93779000D01*
X111101939Y-93778173D01*
X111099761Y-93777512D01*
X111097761Y-93776443D01*
X111096001Y-93774999D01*
X111094557Y-93773239D01*
X111093488Y-93771239D01*
X111092827Y-93769061D01*
X111092000Y-93760662D01*
X111092000Y-92675338D01*
X111092827Y-92666939D01*
X111093488Y-92664761D01*
X111094557Y-92662761D01*
X111096001Y-92661001D01*
X111097761Y-92659557D01*
X111099761Y-92658488D01*
X111101939Y-92657827D01*
X111110338Y-92657000D01*
X113425662Y-92657000D01*
X113434061Y-92657827D01*
X113434061Y-92657827D01*
G37*
G36*
X114653800Y-93450800D02*
G01*
X114301800Y-93450800D01*
X114301800Y-92988800D01*
X114653800Y-92988800D01*
X114653800Y-93450800D01*
X114653800Y-93450800D01*
G37*
G36*
X117528200Y-92688600D02*
G01*
X116526200Y-92688600D01*
X116526200Y-91786600D01*
X117528200Y-91786600D01*
X117528200Y-92688600D01*
X117528200Y-92688600D01*
G37*
G36*
X120969200Y-92613600D02*
G01*
X119807200Y-92613600D01*
X119807200Y-89961600D01*
X120969200Y-89961600D01*
X120969200Y-92613600D01*
X120969200Y-92613600D01*
G37*
G36*
X123169200Y-92613600D02*
G01*
X122007200Y-92613600D01*
X122007200Y-91861600D01*
X123169200Y-91861600D01*
X123169200Y-92613600D01*
X123169200Y-92613600D01*
G37*
G36*
X114653800Y-92610800D02*
G01*
X114301800Y-92610800D01*
X114301800Y-92148800D01*
X114653800Y-92148800D01*
X114653800Y-92610800D01*
X114653800Y-92610800D01*
G37*
G36*
X115528200Y-91738600D02*
G01*
X114526200Y-91738600D01*
X114526200Y-90836600D01*
X115528200Y-90836600D01*
X115528200Y-91738600D01*
X115528200Y-91738600D01*
G37*
G36*
X119230138Y-90921316D02*
G01*
X119250757Y-90927571D01*
X119269753Y-90937724D01*
X119286408Y-90951392D01*
X119300076Y-90968047D01*
X119310229Y-90987043D01*
X119316484Y-91007662D01*
X119319200Y-91035240D01*
X119319200Y-91493960D01*
X119316484Y-91521538D01*
X119310229Y-91542157D01*
X119300076Y-91561153D01*
X119286408Y-91577808D01*
X119269753Y-91591476D01*
X119250757Y-91601629D01*
X119230138Y-91607884D01*
X119202560Y-91610600D01*
X118693840Y-91610600D01*
X118666262Y-91607884D01*
X118645643Y-91601629D01*
X118626647Y-91591476D01*
X118609992Y-91577808D01*
X118596324Y-91561153D01*
X118586171Y-91542157D01*
X118579916Y-91521538D01*
X118577200Y-91493960D01*
X118577200Y-91035240D01*
X118579916Y-91007662D01*
X118586171Y-90987043D01*
X118596324Y-90968047D01*
X118609992Y-90951392D01*
X118626647Y-90937724D01*
X118645643Y-90927571D01*
X118666262Y-90921316D01*
X118693840Y-90918600D01*
X119202560Y-90918600D01*
X119230138Y-90921316D01*
X119230138Y-90921316D01*
G37*
G36*
X113434061Y-90117827D02*
G01*
X113436239Y-90118488D01*
X113438239Y-90119557D01*
X113439999Y-90121001D01*
X113441443Y-90122761D01*
X113442512Y-90124761D01*
X113443173Y-90126939D01*
X113444000Y-90135338D01*
X113444000Y-91220662D01*
X113443173Y-91229061D01*
X113442512Y-91231239D01*
X113441443Y-91233239D01*
X113439999Y-91234999D01*
X113438239Y-91236443D01*
X113436239Y-91237512D01*
X113434061Y-91238173D01*
X113425662Y-91239000D01*
X111110338Y-91239000D01*
X111101939Y-91238173D01*
X111099761Y-91237512D01*
X111097761Y-91236443D01*
X111096001Y-91234999D01*
X111094557Y-91233239D01*
X111093488Y-91231239D01*
X111092827Y-91229061D01*
X111092000Y-91220662D01*
X111092000Y-90135338D01*
X111092827Y-90126939D01*
X111093488Y-90124761D01*
X111094557Y-90122761D01*
X111096001Y-90121001D01*
X111097761Y-90119557D01*
X111099761Y-90118488D01*
X111101939Y-90117827D01*
X111110338Y-90117000D01*
X113425662Y-90117000D01*
X113434061Y-90117827D01*
X113434061Y-90117827D01*
G37*
G36*
X117528200Y-90788600D02*
G01*
X116526200Y-90788600D01*
X116526200Y-89886600D01*
X117528200Y-89886600D01*
X117528200Y-90788600D01*
X117528200Y-90788600D01*
G37*
G36*
X123169200Y-90713600D02*
G01*
X122007200Y-90713600D01*
X122007200Y-89961600D01*
X123169200Y-89961600D01*
X123169200Y-90713600D01*
X123169200Y-90713600D01*
G37*
G36*
X119230138Y-89951316D02*
G01*
X119250757Y-89957571D01*
X119269753Y-89967724D01*
X119286408Y-89981392D01*
X119300076Y-89998047D01*
X119310229Y-90017043D01*
X119316484Y-90037662D01*
X119319200Y-90065240D01*
X119319200Y-90523960D01*
X119316484Y-90551538D01*
X119310229Y-90572157D01*
X119300076Y-90591153D01*
X119286408Y-90607808D01*
X119269753Y-90621476D01*
X119250757Y-90631629D01*
X119230138Y-90637884D01*
X119202560Y-90640600D01*
X118693840Y-90640600D01*
X118666262Y-90637884D01*
X118645643Y-90631629D01*
X118626647Y-90621476D01*
X118609992Y-90607808D01*
X118596324Y-90591153D01*
X118586171Y-90572157D01*
X118579916Y-90551538D01*
X118577200Y-90523960D01*
X118577200Y-90065240D01*
X118579916Y-90037662D01*
X118586171Y-90017043D01*
X118596324Y-89998047D01*
X118609992Y-89981392D01*
X118626647Y-89967724D01*
X118645643Y-89957571D01*
X118666262Y-89951316D01*
X118693840Y-89948600D01*
X119202560Y-89948600D01*
X119230138Y-89951316D01*
X119230138Y-89951316D01*
G37*
G36*
X116572591Y-88149485D02*
G01*
X116606569Y-88159793D01*
X116637890Y-88176534D01*
X116665339Y-88199061D01*
X116687866Y-88226510D01*
X116704607Y-88257831D01*
X116714915Y-88291809D01*
X116719000Y-88333290D01*
X116719000Y-89009510D01*
X116714915Y-89050991D01*
X116704607Y-89084969D01*
X116687866Y-89116290D01*
X116665339Y-89143739D01*
X116637890Y-89166266D01*
X116606569Y-89183007D01*
X116572591Y-89193315D01*
X116531110Y-89197400D01*
X115929890Y-89197400D01*
X115888409Y-89193315D01*
X115854431Y-89183007D01*
X115823110Y-89166266D01*
X115795661Y-89143739D01*
X115773134Y-89116290D01*
X115756393Y-89084969D01*
X115746085Y-89050991D01*
X115742000Y-89009510D01*
X115742000Y-88333290D01*
X115746085Y-88291809D01*
X115756393Y-88257831D01*
X115773134Y-88226510D01*
X115795661Y-88199061D01*
X115823110Y-88176534D01*
X115854431Y-88159793D01*
X115888409Y-88149485D01*
X115929890Y-88145400D01*
X116531110Y-88145400D01*
X116572591Y-88149485D01*
X116572591Y-88149485D01*
G37*
G36*
X114997591Y-88149485D02*
G01*
X115031569Y-88159793D01*
X115062890Y-88176534D01*
X115090339Y-88199061D01*
X115112866Y-88226510D01*
X115129607Y-88257831D01*
X115139915Y-88291809D01*
X115144000Y-88333290D01*
X115144000Y-89009510D01*
X115139915Y-89050991D01*
X115129607Y-89084969D01*
X115112866Y-89116290D01*
X115090339Y-89143739D01*
X115062890Y-89166266D01*
X115031569Y-89183007D01*
X114997591Y-89193315D01*
X114956110Y-89197400D01*
X114354890Y-89197400D01*
X114313409Y-89193315D01*
X114279431Y-89183007D01*
X114248110Y-89166266D01*
X114220661Y-89143739D01*
X114198134Y-89116290D01*
X114181393Y-89084969D01*
X114171085Y-89050991D01*
X114167000Y-89009510D01*
X114167000Y-88333290D01*
X114171085Y-88291809D01*
X114181393Y-88257831D01*
X114198134Y-88226510D01*
X114220661Y-88199061D01*
X114248110Y-88176534D01*
X114279431Y-88159793D01*
X114313409Y-88149485D01*
X114354890Y-88145400D01*
X114956110Y-88145400D01*
X114997591Y-88149485D01*
X114997591Y-88149485D01*
G37*
G36*
X119696791Y-88136785D02*
G01*
X119730769Y-88147093D01*
X119762090Y-88163834D01*
X119789539Y-88186361D01*
X119812066Y-88213810D01*
X119828807Y-88245131D01*
X119839115Y-88279109D01*
X119843200Y-88320590D01*
X119843200Y-88996810D01*
X119839115Y-89038291D01*
X119828807Y-89072269D01*
X119812066Y-89103590D01*
X119789539Y-89131039D01*
X119762090Y-89153566D01*
X119730769Y-89170307D01*
X119696791Y-89180615D01*
X119655310Y-89184700D01*
X119054090Y-89184700D01*
X119012609Y-89180615D01*
X118978631Y-89170307D01*
X118947310Y-89153566D01*
X118919861Y-89131039D01*
X118897334Y-89103590D01*
X118880593Y-89072269D01*
X118870285Y-89038291D01*
X118866200Y-88996810D01*
X118866200Y-88320590D01*
X118870285Y-88279109D01*
X118880593Y-88245131D01*
X118897334Y-88213810D01*
X118919861Y-88186361D01*
X118947310Y-88163834D01*
X118978631Y-88147093D01*
X119012609Y-88136785D01*
X119054090Y-88132700D01*
X119655310Y-88132700D01*
X119696791Y-88136785D01*
X119696791Y-88136785D01*
G37*
G36*
X118121791Y-88136785D02*
G01*
X118155769Y-88147093D01*
X118187090Y-88163834D01*
X118214539Y-88186361D01*
X118237066Y-88213810D01*
X118253807Y-88245131D01*
X118264115Y-88279109D01*
X118268200Y-88320590D01*
X118268200Y-88996810D01*
X118264115Y-89038291D01*
X118253807Y-89072269D01*
X118237066Y-89103590D01*
X118214539Y-89131039D01*
X118187090Y-89153566D01*
X118155769Y-89170307D01*
X118121791Y-89180615D01*
X118080310Y-89184700D01*
X117479090Y-89184700D01*
X117437609Y-89180615D01*
X117403631Y-89170307D01*
X117372310Y-89153566D01*
X117344861Y-89131039D01*
X117322334Y-89103590D01*
X117305593Y-89072269D01*
X117295285Y-89038291D01*
X117291200Y-88996810D01*
X117291200Y-88320590D01*
X117295285Y-88279109D01*
X117305593Y-88245131D01*
X117322334Y-88213810D01*
X117344861Y-88186361D01*
X117372310Y-88163834D01*
X117403631Y-88147093D01*
X117437609Y-88136785D01*
X117479090Y-88132700D01*
X118080310Y-88132700D01*
X118121791Y-88136785D01*
X118121791Y-88136785D01*
G37*
G36*
X121741477Y-86770557D02*
G01*
X121750776Y-86773378D01*
X121759354Y-86777963D01*
X121766869Y-86784131D01*
X121773037Y-86791646D01*
X121777622Y-86800224D01*
X121780443Y-86809523D01*
X121782000Y-86825337D01*
X121782000Y-88614663D01*
X121780443Y-88630477D01*
X121777622Y-88639776D01*
X121773037Y-88648354D01*
X121766869Y-88655869D01*
X121759354Y-88662037D01*
X121750776Y-88666622D01*
X121741477Y-88669443D01*
X121725663Y-88671000D01*
X120336337Y-88671000D01*
X120320523Y-88669443D01*
X120311224Y-88666622D01*
X120302646Y-88662037D01*
X120295131Y-88655869D01*
X120288963Y-88648354D01*
X120284378Y-88639776D01*
X120281557Y-88630477D01*
X120280000Y-88614663D01*
X120280000Y-86825337D01*
X120281557Y-86809523D01*
X120284378Y-86800224D01*
X120288963Y-86791646D01*
X120295131Y-86784131D01*
X120302646Y-86777963D01*
X120311224Y-86773378D01*
X120320523Y-86770557D01*
X120336337Y-86769000D01*
X121725663Y-86769000D01*
X121741477Y-86770557D01*
X121741477Y-86770557D01*
G37*
G36*
X112038677Y-86770557D02*
G01*
X112047976Y-86773378D01*
X112056554Y-86777963D01*
X112064069Y-86784131D01*
X112070237Y-86791646D01*
X112074822Y-86800224D01*
X112077643Y-86809523D01*
X112079200Y-86825337D01*
X112079200Y-88614663D01*
X112077643Y-88630477D01*
X112074822Y-88639776D01*
X112070237Y-88648354D01*
X112064069Y-88655869D01*
X112056554Y-88662037D01*
X112047976Y-88666622D01*
X112038677Y-88669443D01*
X112022863Y-88671000D01*
X110633537Y-88671000D01*
X110617723Y-88669443D01*
X110608424Y-88666622D01*
X110599846Y-88662037D01*
X110592331Y-88655869D01*
X110586163Y-88648354D01*
X110581578Y-88639776D01*
X110578757Y-88630477D01*
X110577200Y-88614663D01*
X110577200Y-86825337D01*
X110578757Y-86809523D01*
X110581578Y-86800224D01*
X110586163Y-86791646D01*
X110592331Y-86784131D01*
X110599846Y-86777963D01*
X110608424Y-86773378D01*
X110617723Y-86770557D01*
X110633537Y-86769000D01*
X112022863Y-86769000D01*
X112038677Y-86770557D01*
X112038677Y-86770557D01*
G37*
G36*
X103234442Y-85465518D02*
G01*
X103300627Y-85472037D01*
X103470466Y-85523557D01*
X103626991Y-85607222D01*
X103662729Y-85636552D01*
X103764186Y-85719814D01*
X103847448Y-85821271D01*
X103876778Y-85857009D01*
X103960443Y-86013534D01*
X104011963Y-86183373D01*
X104029359Y-86360000D01*
X104011963Y-86536627D01*
X103960443Y-86706466D01*
X103876778Y-86862991D01*
X103854697Y-86889897D01*
X103764186Y-87000186D01*
X103662729Y-87083448D01*
X103626991Y-87112778D01*
X103470466Y-87196443D01*
X103300627Y-87247963D01*
X103234442Y-87254482D01*
X103168260Y-87261000D01*
X103079740Y-87261000D01*
X103013558Y-87254482D01*
X102947373Y-87247963D01*
X102777534Y-87196443D01*
X102621009Y-87112778D01*
X102585271Y-87083448D01*
X102483814Y-87000186D01*
X102393303Y-86889897D01*
X102371222Y-86862991D01*
X102287557Y-86706466D01*
X102236037Y-86536627D01*
X102218641Y-86360000D01*
X102236037Y-86183373D01*
X102287557Y-86013534D01*
X102371222Y-85857009D01*
X102400552Y-85821271D01*
X102483814Y-85719814D01*
X102585271Y-85636552D01*
X102621009Y-85607222D01*
X102777534Y-85523557D01*
X102947373Y-85472037D01*
X103013558Y-85465518D01*
X103079740Y-85459000D01*
X103168260Y-85459000D01*
X103234442Y-85465518D01*
X103234442Y-85465518D01*
G37*
G36*
X130187000Y-87261000D02*
G01*
X128385000Y-87261000D01*
X128385000Y-85459000D01*
X130187000Y-85459000D01*
X130187000Y-87261000D01*
X130187000Y-87261000D01*
G37*
G36*
X112038677Y-82870557D02*
G01*
X112047976Y-82873378D01*
X112056554Y-82877963D01*
X112064069Y-82884131D01*
X112070237Y-82891646D01*
X112074822Y-82900224D01*
X112077643Y-82909523D01*
X112079200Y-82925337D01*
X112079200Y-84714663D01*
X112077643Y-84730477D01*
X112074822Y-84739776D01*
X112070237Y-84748354D01*
X112064069Y-84755869D01*
X112056554Y-84762037D01*
X112047976Y-84766622D01*
X112038677Y-84769443D01*
X112022863Y-84771000D01*
X110633537Y-84771000D01*
X110617723Y-84769443D01*
X110608424Y-84766622D01*
X110599846Y-84762037D01*
X110592331Y-84755869D01*
X110586163Y-84748354D01*
X110581578Y-84739776D01*
X110578757Y-84730477D01*
X110577200Y-84714663D01*
X110577200Y-82925337D01*
X110578757Y-82909523D01*
X110581578Y-82900224D01*
X110586163Y-82891646D01*
X110592331Y-82884131D01*
X110599846Y-82877963D01*
X110608424Y-82873378D01*
X110617723Y-82870557D01*
X110633537Y-82869000D01*
X112022863Y-82869000D01*
X112038677Y-82870557D01*
X112038677Y-82870557D01*
G37*
G36*
X121741477Y-82870557D02*
G01*
X121750776Y-82873378D01*
X121759354Y-82877963D01*
X121766869Y-82884131D01*
X121773037Y-82891646D01*
X121777622Y-82900224D01*
X121780443Y-82909523D01*
X121782000Y-82925337D01*
X121782000Y-84714663D01*
X121780443Y-84730477D01*
X121777622Y-84739776D01*
X121773037Y-84748354D01*
X121766869Y-84755869D01*
X121759354Y-84762037D01*
X121750776Y-84766622D01*
X121741477Y-84769443D01*
X121725663Y-84771000D01*
X120336337Y-84771000D01*
X120320523Y-84769443D01*
X120311224Y-84766622D01*
X120302646Y-84762037D01*
X120295131Y-84755869D01*
X120288963Y-84748354D01*
X120284378Y-84739776D01*
X120281557Y-84730477D01*
X120280000Y-84714663D01*
X120280000Y-82925337D01*
X120281557Y-82909523D01*
X120284378Y-82900224D01*
X120288963Y-82891646D01*
X120295131Y-82884131D01*
X120302646Y-82877963D01*
X120311224Y-82873378D01*
X120320523Y-82870557D01*
X120336337Y-82869000D01*
X121725663Y-82869000D01*
X121741477Y-82870557D01*
X121741477Y-82870557D01*
G37*
G36*
X129394600Y-82925337D02*
G01*
X129462627Y-82932037D01*
X129632466Y-82983557D01*
X129788991Y-83067222D01*
X129824729Y-83096552D01*
X129926186Y-83179814D01*
X130009448Y-83281271D01*
X130038778Y-83317009D01*
X130122443Y-83473534D01*
X130173963Y-83643373D01*
X130191359Y-83820000D01*
X130173963Y-83996627D01*
X130122443Y-84166466D01*
X130038778Y-84322991D01*
X130009448Y-84358729D01*
X129926186Y-84460186D01*
X129824729Y-84543448D01*
X129788991Y-84572778D01*
X129632466Y-84656443D01*
X129462627Y-84707963D01*
X129396443Y-84714481D01*
X129330260Y-84721000D01*
X129241740Y-84721000D01*
X129175557Y-84714481D01*
X129109373Y-84707963D01*
X128939534Y-84656443D01*
X128783009Y-84572778D01*
X128747271Y-84543448D01*
X128645814Y-84460186D01*
X128562552Y-84358729D01*
X128533222Y-84322991D01*
X128449557Y-84166466D01*
X128398037Y-83996627D01*
X128380641Y-83820000D01*
X128398037Y-83643373D01*
X128449557Y-83473534D01*
X128533222Y-83317009D01*
X128562552Y-83281271D01*
X128645814Y-83179814D01*
X128747271Y-83096552D01*
X128783009Y-83067222D01*
X128939534Y-82983557D01*
X129109373Y-82932037D01*
X129177400Y-82925337D01*
X129241740Y-82919000D01*
X129330260Y-82919000D01*
X129394600Y-82925337D01*
X129394600Y-82925337D01*
G37*
G36*
X103232600Y-82925337D02*
G01*
X103300627Y-82932037D01*
X103470466Y-82983557D01*
X103626991Y-83067222D01*
X103662729Y-83096552D01*
X103764186Y-83179814D01*
X103847448Y-83281271D01*
X103876778Y-83317009D01*
X103960443Y-83473534D01*
X104011963Y-83643373D01*
X104029359Y-83820000D01*
X104011963Y-83996627D01*
X103960443Y-84166466D01*
X103876778Y-84322991D01*
X103847448Y-84358729D01*
X103764186Y-84460186D01*
X103662729Y-84543448D01*
X103626991Y-84572778D01*
X103470466Y-84656443D01*
X103300627Y-84707963D01*
X103234443Y-84714481D01*
X103168260Y-84721000D01*
X103079740Y-84721000D01*
X103013557Y-84714481D01*
X102947373Y-84707963D01*
X102777534Y-84656443D01*
X102621009Y-84572778D01*
X102585271Y-84543448D01*
X102483814Y-84460186D01*
X102400552Y-84358729D01*
X102371222Y-84322991D01*
X102287557Y-84166466D01*
X102236037Y-83996627D01*
X102218641Y-83820000D01*
X102236037Y-83643373D01*
X102287557Y-83473534D01*
X102371222Y-83317009D01*
X102400552Y-83281271D01*
X102483814Y-83179814D01*
X102585271Y-83096552D01*
X102621009Y-83067222D01*
X102777534Y-82983557D01*
X102947373Y-82932037D01*
X103015400Y-82925337D01*
X103079740Y-82919000D01*
X103168260Y-82919000D01*
X103232600Y-82925337D01*
X103232600Y-82925337D01*
G37*
G36*
X121741477Y-80420557D02*
G01*
X121750776Y-80423378D01*
X121759354Y-80427963D01*
X121766869Y-80434131D01*
X121773037Y-80441646D01*
X121777622Y-80450224D01*
X121780443Y-80459523D01*
X121782000Y-80475337D01*
X121782000Y-82264663D01*
X121780443Y-82280477D01*
X121777622Y-82289776D01*
X121773037Y-82298354D01*
X121766869Y-82305869D01*
X121759354Y-82312037D01*
X121750776Y-82316622D01*
X121741477Y-82319443D01*
X121725663Y-82321000D01*
X120336337Y-82321000D01*
X120320523Y-82319443D01*
X120311224Y-82316622D01*
X120302646Y-82312037D01*
X120295131Y-82305869D01*
X120288963Y-82298354D01*
X120284378Y-82289776D01*
X120281557Y-82280477D01*
X120280000Y-82264663D01*
X120280000Y-80475337D01*
X120281557Y-80459523D01*
X120284378Y-80450224D01*
X120288963Y-80441646D01*
X120295131Y-80434131D01*
X120302646Y-80427963D01*
X120311224Y-80423378D01*
X120320523Y-80420557D01*
X120336337Y-80419000D01*
X121725663Y-80419000D01*
X121741477Y-80420557D01*
X121741477Y-80420557D01*
G37*
G36*
X112038677Y-80395157D02*
G01*
X112047976Y-80397978D01*
X112056554Y-80402563D01*
X112064069Y-80408731D01*
X112070237Y-80416246D01*
X112074822Y-80424824D01*
X112077643Y-80434123D01*
X112079200Y-80449937D01*
X112079200Y-82239263D01*
X112077643Y-82255077D01*
X112074822Y-82264376D01*
X112070237Y-82272954D01*
X112064069Y-82280469D01*
X112056554Y-82286637D01*
X112047976Y-82291222D01*
X112038677Y-82294043D01*
X112022863Y-82295600D01*
X110633537Y-82295600D01*
X110617723Y-82294043D01*
X110608424Y-82291222D01*
X110599846Y-82286637D01*
X110592331Y-82280469D01*
X110586163Y-82272954D01*
X110581578Y-82264376D01*
X110578757Y-82255077D01*
X110577200Y-82239263D01*
X110577200Y-80449937D01*
X110578757Y-80434123D01*
X110581578Y-80424824D01*
X110586163Y-80416246D01*
X110592331Y-80408731D01*
X110599846Y-80402563D01*
X110608424Y-80397978D01*
X110617723Y-80395157D01*
X110633537Y-80393600D01*
X112022863Y-80393600D01*
X112038677Y-80395157D01*
X112038677Y-80395157D01*
G37*
G36*
X103234442Y-80385518D02*
G01*
X103300627Y-80392037D01*
X103470466Y-80443557D01*
X103626991Y-80527222D01*
X103642435Y-80539897D01*
X103764186Y-80639814D01*
X103847448Y-80741271D01*
X103876778Y-80777009D01*
X103960443Y-80933534D01*
X104011963Y-81103373D01*
X104029359Y-81280000D01*
X104011963Y-81456627D01*
X103960443Y-81626466D01*
X103876778Y-81782991D01*
X103847448Y-81818729D01*
X103764186Y-81920186D01*
X103662729Y-82003448D01*
X103626991Y-82032778D01*
X103470466Y-82116443D01*
X103300627Y-82167963D01*
X103234443Y-82174481D01*
X103168260Y-82181000D01*
X103079740Y-82181000D01*
X103013557Y-82174481D01*
X102947373Y-82167963D01*
X102777534Y-82116443D01*
X102621009Y-82032778D01*
X102585271Y-82003448D01*
X102483814Y-81920186D01*
X102400552Y-81818729D01*
X102371222Y-81782991D01*
X102287557Y-81626466D01*
X102236037Y-81456627D01*
X102218641Y-81280000D01*
X102236037Y-81103373D01*
X102287557Y-80933534D01*
X102371222Y-80777009D01*
X102400552Y-80741271D01*
X102483814Y-80639814D01*
X102605565Y-80539897D01*
X102621009Y-80527222D01*
X102777534Y-80443557D01*
X102947373Y-80392037D01*
X103013558Y-80385518D01*
X103079740Y-80379000D01*
X103168260Y-80379000D01*
X103234442Y-80385518D01*
X103234442Y-80385518D01*
G37*
G36*
X129396442Y-80385518D02*
G01*
X129462627Y-80392037D01*
X129632466Y-80443557D01*
X129788991Y-80527222D01*
X129804435Y-80539897D01*
X129926186Y-80639814D01*
X130009448Y-80741271D01*
X130038778Y-80777009D01*
X130122443Y-80933534D01*
X130173963Y-81103373D01*
X130191359Y-81280000D01*
X130173963Y-81456627D01*
X130122443Y-81626466D01*
X130038778Y-81782991D01*
X130009448Y-81818729D01*
X129926186Y-81920186D01*
X129824729Y-82003448D01*
X129788991Y-82032778D01*
X129632466Y-82116443D01*
X129462627Y-82167963D01*
X129396443Y-82174481D01*
X129330260Y-82181000D01*
X129241740Y-82181000D01*
X129175557Y-82174481D01*
X129109373Y-82167963D01*
X128939534Y-82116443D01*
X128783009Y-82032778D01*
X128747271Y-82003448D01*
X128645814Y-81920186D01*
X128562552Y-81818729D01*
X128533222Y-81782991D01*
X128449557Y-81626466D01*
X128398037Y-81456627D01*
X128380641Y-81280000D01*
X128398037Y-81103373D01*
X128449557Y-80933534D01*
X128533222Y-80777009D01*
X128562552Y-80741271D01*
X128645814Y-80639814D01*
X128767565Y-80539897D01*
X128783009Y-80527222D01*
X128939534Y-80443557D01*
X129109373Y-80392037D01*
X129175558Y-80385518D01*
X129241740Y-80379000D01*
X129330260Y-80379000D01*
X129396442Y-80385518D01*
X129396442Y-80385518D01*
G37*
G36*
X129396443Y-77845519D02*
G01*
X129462627Y-77852037D01*
X129632466Y-77903557D01*
X129788991Y-77987222D01*
X129824729Y-78016552D01*
X129926186Y-78099814D01*
X130009448Y-78201271D01*
X130038778Y-78237009D01*
X130038779Y-78237011D01*
X130118757Y-78386637D01*
X130122443Y-78393534D01*
X130173963Y-78563373D01*
X130191359Y-78740000D01*
X130173963Y-78916627D01*
X130122443Y-79086466D01*
X130038778Y-79242991D01*
X130009448Y-79278729D01*
X129926186Y-79380186D01*
X129824729Y-79463448D01*
X129788991Y-79492778D01*
X129632466Y-79576443D01*
X129462627Y-79627963D01*
X129396442Y-79634482D01*
X129330260Y-79641000D01*
X129241740Y-79641000D01*
X129175558Y-79634482D01*
X129109373Y-79627963D01*
X128939534Y-79576443D01*
X128783009Y-79492778D01*
X128747271Y-79463448D01*
X128645814Y-79380186D01*
X128562552Y-79278729D01*
X128533222Y-79242991D01*
X128449557Y-79086466D01*
X128398037Y-78916627D01*
X128380641Y-78740000D01*
X128398037Y-78563373D01*
X128449557Y-78393534D01*
X128453244Y-78386637D01*
X128533221Y-78237011D01*
X128533222Y-78237009D01*
X128562552Y-78201271D01*
X128645814Y-78099814D01*
X128747271Y-78016552D01*
X128783009Y-77987222D01*
X128939534Y-77903557D01*
X129109373Y-77852037D01*
X129175557Y-77845519D01*
X129241740Y-77839000D01*
X129330260Y-77839000D01*
X129396443Y-77845519D01*
X129396443Y-77845519D01*
G37*
G36*
X103234443Y-77845519D02*
G01*
X103300627Y-77852037D01*
X103470466Y-77903557D01*
X103626991Y-77987222D01*
X103662729Y-78016552D01*
X103764186Y-78099814D01*
X103847448Y-78201271D01*
X103876778Y-78237009D01*
X103876779Y-78237011D01*
X103956757Y-78386637D01*
X103960443Y-78393534D01*
X104011963Y-78563373D01*
X104029359Y-78740000D01*
X104011963Y-78916627D01*
X103960443Y-79086466D01*
X103876778Y-79242991D01*
X103847448Y-79278729D01*
X103764186Y-79380186D01*
X103662729Y-79463448D01*
X103626991Y-79492778D01*
X103470466Y-79576443D01*
X103300627Y-79627963D01*
X103234442Y-79634482D01*
X103168260Y-79641000D01*
X103079740Y-79641000D01*
X103013558Y-79634482D01*
X102947373Y-79627963D01*
X102777534Y-79576443D01*
X102621009Y-79492778D01*
X102585271Y-79463448D01*
X102483814Y-79380186D01*
X102400552Y-79278729D01*
X102371222Y-79242991D01*
X102287557Y-79086466D01*
X102236037Y-78916627D01*
X102218641Y-78740000D01*
X102236037Y-78563373D01*
X102287557Y-78393534D01*
X102291244Y-78386637D01*
X102371221Y-78237011D01*
X102371222Y-78237009D01*
X102400552Y-78201271D01*
X102483814Y-78099814D01*
X102585271Y-78016552D01*
X102621009Y-77987222D01*
X102777534Y-77903557D01*
X102947373Y-77852037D01*
X103013557Y-77845519D01*
X103079740Y-77839000D01*
X103168260Y-77839000D01*
X103234443Y-77845519D01*
X103234443Y-77845519D01*
G37*
G36*
X121741477Y-76520557D02*
G01*
X121750776Y-76523378D01*
X121759354Y-76527963D01*
X121766869Y-76534131D01*
X121773037Y-76541646D01*
X121777622Y-76550224D01*
X121780443Y-76559523D01*
X121782000Y-76575337D01*
X121782000Y-78364663D01*
X121780443Y-78380477D01*
X121777622Y-78389776D01*
X121773037Y-78398354D01*
X121766869Y-78405869D01*
X121759354Y-78412037D01*
X121750776Y-78416622D01*
X121741477Y-78419443D01*
X121725663Y-78421000D01*
X120336337Y-78421000D01*
X120320523Y-78419443D01*
X120311224Y-78416622D01*
X120302646Y-78412037D01*
X120295131Y-78405869D01*
X120288963Y-78398354D01*
X120284378Y-78389776D01*
X120281557Y-78380477D01*
X120280000Y-78364663D01*
X120280000Y-76575337D01*
X120281557Y-76559523D01*
X120284378Y-76550224D01*
X120288963Y-76541646D01*
X120295131Y-76534131D01*
X120302646Y-76527963D01*
X120311224Y-76523378D01*
X120320523Y-76520557D01*
X120336337Y-76519000D01*
X121725663Y-76519000D01*
X121741477Y-76520557D01*
X121741477Y-76520557D01*
G37*
G36*
X112038677Y-76495157D02*
G01*
X112047976Y-76497978D01*
X112056554Y-76502563D01*
X112064069Y-76508731D01*
X112070237Y-76516246D01*
X112074822Y-76524824D01*
X112077643Y-76534123D01*
X112079200Y-76549937D01*
X112079200Y-78339263D01*
X112077643Y-78355077D01*
X112074822Y-78364376D01*
X112070237Y-78372954D01*
X112064069Y-78380469D01*
X112056554Y-78386637D01*
X112047976Y-78391222D01*
X112038677Y-78394043D01*
X112022863Y-78395600D01*
X110633537Y-78395600D01*
X110617723Y-78394043D01*
X110608424Y-78391222D01*
X110599846Y-78386637D01*
X110592331Y-78380469D01*
X110586163Y-78372954D01*
X110581578Y-78364376D01*
X110578757Y-78355077D01*
X110577200Y-78339263D01*
X110577200Y-76549937D01*
X110578757Y-76534123D01*
X110581578Y-76524824D01*
X110586163Y-76516246D01*
X110592331Y-76508731D01*
X110599846Y-76502563D01*
X110608424Y-76497978D01*
X110617723Y-76495157D01*
X110633537Y-76493600D01*
X112022863Y-76493600D01*
X112038677Y-76495157D01*
X112038677Y-76495157D01*
G37*
G36*
X115367338Y-76365116D02*
G01*
X115387957Y-76371371D01*
X115406953Y-76381524D01*
X115423608Y-76395192D01*
X115437276Y-76411847D01*
X115447429Y-76430843D01*
X115453684Y-76451462D01*
X115456400Y-76479040D01*
X115456400Y-76987760D01*
X115453684Y-77015338D01*
X115447429Y-77035957D01*
X115437276Y-77054953D01*
X115423608Y-77071608D01*
X115406953Y-77085276D01*
X115387957Y-77095429D01*
X115367338Y-77101684D01*
X115339760Y-77104400D01*
X114881040Y-77104400D01*
X114853462Y-77101684D01*
X114832843Y-77095429D01*
X114813847Y-77085276D01*
X114797192Y-77071608D01*
X114783524Y-77054953D01*
X114773371Y-77035957D01*
X114767116Y-77015338D01*
X114764400Y-76987760D01*
X114764400Y-76479040D01*
X114767116Y-76451462D01*
X114773371Y-76430843D01*
X114783524Y-76411847D01*
X114797192Y-76395192D01*
X114813847Y-76381524D01*
X114832843Y-76371371D01*
X114853462Y-76365116D01*
X114881040Y-76362400D01*
X115339760Y-76362400D01*
X115367338Y-76365116D01*
X115367338Y-76365116D01*
G37*
G36*
X113335338Y-76365116D02*
G01*
X113355957Y-76371371D01*
X113374953Y-76381524D01*
X113391608Y-76395192D01*
X113405276Y-76411847D01*
X113415429Y-76430843D01*
X113421684Y-76451462D01*
X113424400Y-76479040D01*
X113424400Y-76987760D01*
X113421684Y-77015338D01*
X113415429Y-77035957D01*
X113405276Y-77054953D01*
X113391608Y-77071608D01*
X113374953Y-77085276D01*
X113355957Y-77095429D01*
X113335338Y-77101684D01*
X113307760Y-77104400D01*
X112849040Y-77104400D01*
X112821462Y-77101684D01*
X112800843Y-77095429D01*
X112781847Y-77085276D01*
X112765192Y-77071608D01*
X112751524Y-77054953D01*
X112741371Y-77035957D01*
X112735116Y-77015338D01*
X112732400Y-76987760D01*
X112732400Y-76479040D01*
X112735116Y-76451462D01*
X112741371Y-76430843D01*
X112751524Y-76411847D01*
X112765192Y-76395192D01*
X112781847Y-76381524D01*
X112800843Y-76371371D01*
X112821462Y-76365116D01*
X112849040Y-76362400D01*
X113307760Y-76362400D01*
X113335338Y-76365116D01*
X113335338Y-76365116D01*
G37*
G36*
X114305338Y-76365116D02*
G01*
X114325957Y-76371371D01*
X114344953Y-76381524D01*
X114361608Y-76395192D01*
X114375276Y-76411847D01*
X114385429Y-76430843D01*
X114391684Y-76451462D01*
X114394400Y-76479040D01*
X114394400Y-76987760D01*
X114391684Y-77015338D01*
X114385429Y-77035957D01*
X114375276Y-77054953D01*
X114361608Y-77071608D01*
X114344953Y-77085276D01*
X114325957Y-77095429D01*
X114305338Y-77101684D01*
X114277760Y-77104400D01*
X113819040Y-77104400D01*
X113791462Y-77101684D01*
X113770843Y-77095429D01*
X113751847Y-77085276D01*
X113735192Y-77071608D01*
X113721524Y-77054953D01*
X113711371Y-77035957D01*
X113705116Y-77015338D01*
X113702400Y-76987760D01*
X113702400Y-76479040D01*
X113705116Y-76451462D01*
X113711371Y-76430843D01*
X113721524Y-76411847D01*
X113735192Y-76395192D01*
X113751847Y-76381524D01*
X113770843Y-76371371D01*
X113791462Y-76365116D01*
X113819040Y-76362400D01*
X114277760Y-76362400D01*
X114305338Y-76365116D01*
X114305338Y-76365116D01*
G37*
G36*
X116337338Y-76365116D02*
G01*
X116357957Y-76371371D01*
X116376953Y-76381524D01*
X116393608Y-76395192D01*
X116407276Y-76411847D01*
X116417429Y-76430843D01*
X116423684Y-76451462D01*
X116426400Y-76479040D01*
X116426400Y-76987760D01*
X116423684Y-77015338D01*
X116417429Y-77035957D01*
X116407276Y-77054953D01*
X116393608Y-77071608D01*
X116376953Y-77085276D01*
X116357957Y-77095429D01*
X116337338Y-77101684D01*
X116309760Y-77104400D01*
X115851040Y-77104400D01*
X115823462Y-77101684D01*
X115802843Y-77095429D01*
X115783847Y-77085276D01*
X115767192Y-77071608D01*
X115753524Y-77054953D01*
X115743371Y-77035957D01*
X115737116Y-77015338D01*
X115734400Y-76987760D01*
X115734400Y-76479040D01*
X115737116Y-76451462D01*
X115743371Y-76430843D01*
X115753524Y-76411847D01*
X115767192Y-76395192D01*
X115783847Y-76381524D01*
X115802843Y-76371371D01*
X115823462Y-76365116D01*
X115851040Y-76362400D01*
X116309760Y-76362400D01*
X116337338Y-76365116D01*
X116337338Y-76365116D01*
G37*
G36*
X103234442Y-75305518D02*
G01*
X103300627Y-75312037D01*
X103470466Y-75363557D01*
X103626991Y-75447222D01*
X103662729Y-75476552D01*
X103764186Y-75559814D01*
X103847448Y-75661271D01*
X103876778Y-75697009D01*
X103960443Y-75853534D01*
X104011963Y-76023373D01*
X104029359Y-76200000D01*
X104011963Y-76376627D01*
X103961905Y-76541646D01*
X103960442Y-76546468D01*
X103939140Y-76586321D01*
X103876778Y-76702991D01*
X103847448Y-76738729D01*
X103764186Y-76840186D01*
X103662729Y-76923448D01*
X103626991Y-76952778D01*
X103470466Y-77036443D01*
X103300627Y-77087963D01*
X103234442Y-77094482D01*
X103168260Y-77101000D01*
X103079740Y-77101000D01*
X103013558Y-77094482D01*
X102947373Y-77087963D01*
X102777534Y-77036443D01*
X102621009Y-76952778D01*
X102585271Y-76923448D01*
X102483814Y-76840186D01*
X102400552Y-76738729D01*
X102371222Y-76702991D01*
X102308860Y-76586321D01*
X102287558Y-76546468D01*
X102286095Y-76541646D01*
X102236037Y-76376627D01*
X102218641Y-76200000D01*
X102236037Y-76023373D01*
X102287557Y-75853534D01*
X102371222Y-75697009D01*
X102400552Y-75661271D01*
X102483814Y-75559814D01*
X102585271Y-75476552D01*
X102621009Y-75447222D01*
X102777534Y-75363557D01*
X102947373Y-75312037D01*
X103013558Y-75305518D01*
X103079740Y-75299000D01*
X103168260Y-75299000D01*
X103234442Y-75305518D01*
X103234442Y-75305518D01*
G37*
G36*
X129396442Y-75305518D02*
G01*
X129462627Y-75312037D01*
X129632466Y-75363557D01*
X129788991Y-75447222D01*
X129824729Y-75476552D01*
X129926186Y-75559814D01*
X130009448Y-75661271D01*
X130038778Y-75697009D01*
X130122443Y-75853534D01*
X130173963Y-76023373D01*
X130191359Y-76200000D01*
X130173963Y-76376627D01*
X130123905Y-76541646D01*
X130122442Y-76546468D01*
X130101140Y-76586321D01*
X130038778Y-76702991D01*
X130009448Y-76738729D01*
X129926186Y-76840186D01*
X129824729Y-76923448D01*
X129788991Y-76952778D01*
X129632466Y-77036443D01*
X129462627Y-77087963D01*
X129396442Y-77094482D01*
X129330260Y-77101000D01*
X129241740Y-77101000D01*
X129175558Y-77094482D01*
X129109373Y-77087963D01*
X128939534Y-77036443D01*
X128783009Y-76952778D01*
X128747271Y-76923448D01*
X128645814Y-76840186D01*
X128562552Y-76738729D01*
X128533222Y-76702991D01*
X128470860Y-76586321D01*
X128449558Y-76546468D01*
X128448095Y-76541646D01*
X128398037Y-76376627D01*
X128380641Y-76200000D01*
X128398037Y-76023373D01*
X128449557Y-75853534D01*
X128533222Y-75697009D01*
X128562552Y-75661271D01*
X128645814Y-75559814D01*
X128747271Y-75476552D01*
X128783009Y-75447222D01*
X128939534Y-75363557D01*
X129109373Y-75312037D01*
X129175558Y-75305518D01*
X129241740Y-75299000D01*
X129330260Y-75299000D01*
X129396442Y-75305518D01*
X129396442Y-75305518D01*
G37*
G36*
X113880400Y-75982600D02*
G01*
X112778400Y-75982600D01*
X112778400Y-74080600D01*
X113880400Y-74080600D01*
X113880400Y-75982600D01*
X113880400Y-75982600D01*
G37*
G36*
X116380400Y-75982600D02*
G01*
X115278400Y-75982600D01*
X115278400Y-74080600D01*
X116380400Y-74080600D01*
X116380400Y-75982600D01*
X116380400Y-75982600D01*
G37*
G36*
X103219837Y-72764080D02*
G01*
X103300627Y-72772037D01*
X103470466Y-72823557D01*
X103626991Y-72907222D01*
X103662729Y-72936552D01*
X103764186Y-73019814D01*
X103847448Y-73121271D01*
X103876778Y-73157009D01*
X103960443Y-73313534D01*
X104011963Y-73483373D01*
X104029359Y-73660000D01*
X104011963Y-73836627D01*
X103960443Y-74006466D01*
X103876778Y-74162991D01*
X103847448Y-74198729D01*
X103764186Y-74300186D01*
X103662729Y-74383448D01*
X103626991Y-74412778D01*
X103470466Y-74496443D01*
X103300627Y-74547963D01*
X103234442Y-74554482D01*
X103168260Y-74561000D01*
X103079740Y-74561000D01*
X103013558Y-74554482D01*
X102947373Y-74547963D01*
X102777534Y-74496443D01*
X102621009Y-74412778D01*
X102585271Y-74383448D01*
X102483814Y-74300186D01*
X102400552Y-74198729D01*
X102371222Y-74162991D01*
X102287557Y-74006466D01*
X102236037Y-73836627D01*
X102218641Y-73660000D01*
X102236037Y-73483373D01*
X102287557Y-73313534D01*
X102371222Y-73157009D01*
X102400552Y-73121271D01*
X102483814Y-73019814D01*
X102585271Y-72936552D01*
X102621009Y-72907222D01*
X102777534Y-72823557D01*
X102947373Y-72772037D01*
X103028163Y-72764080D01*
X103079740Y-72759000D01*
X103168260Y-72759000D01*
X103219837Y-72764080D01*
X103219837Y-72764080D01*
G37*
G36*
X129381837Y-72764080D02*
G01*
X129462627Y-72772037D01*
X129632466Y-72823557D01*
X129788991Y-72907222D01*
X129824729Y-72936552D01*
X129926186Y-73019814D01*
X130009448Y-73121271D01*
X130038778Y-73157009D01*
X130122443Y-73313534D01*
X130173963Y-73483373D01*
X130191359Y-73660000D01*
X130173963Y-73836627D01*
X130122443Y-74006466D01*
X130038778Y-74162991D01*
X130009448Y-74198729D01*
X129926186Y-74300186D01*
X129824729Y-74383448D01*
X129788991Y-74412778D01*
X129632466Y-74496443D01*
X129462627Y-74547963D01*
X129396442Y-74554482D01*
X129330260Y-74561000D01*
X129241740Y-74561000D01*
X129175558Y-74554482D01*
X129109373Y-74547963D01*
X128939534Y-74496443D01*
X128783009Y-74412778D01*
X128747271Y-74383448D01*
X128645814Y-74300186D01*
X128562552Y-74198729D01*
X128533222Y-74162991D01*
X128449557Y-74006466D01*
X128398037Y-73836627D01*
X128380641Y-73660000D01*
X128398037Y-73483373D01*
X128449557Y-73313534D01*
X128533222Y-73157009D01*
X128562552Y-73121271D01*
X128645814Y-73019814D01*
X128747271Y-72936552D01*
X128783009Y-72907222D01*
X128939534Y-72823557D01*
X129109373Y-72772037D01*
X129190163Y-72764080D01*
X129241740Y-72759000D01*
X129330260Y-72759000D01*
X129381837Y-72764080D01*
X129381837Y-72764080D01*
G37*
G36*
X113718338Y-72988916D02*
G01*
X113738957Y-72995171D01*
X113757953Y-73005324D01*
X113774608Y-73018992D01*
X113788276Y-73035647D01*
X113798429Y-73054643D01*
X113804684Y-73075262D01*
X113807400Y-73102840D01*
X113807400Y-73561560D01*
X113804684Y-73589138D01*
X113798429Y-73609757D01*
X113788276Y-73628753D01*
X113774608Y-73645408D01*
X113757953Y-73659076D01*
X113738957Y-73669229D01*
X113718338Y-73675484D01*
X113690760Y-73678200D01*
X113182040Y-73678200D01*
X113154462Y-73675484D01*
X113133843Y-73669229D01*
X113114847Y-73659076D01*
X113098192Y-73645408D01*
X113084524Y-73628753D01*
X113074371Y-73609757D01*
X113068116Y-73589138D01*
X113065400Y-73561560D01*
X113065400Y-73102840D01*
X113068116Y-73075262D01*
X113074371Y-73054643D01*
X113084524Y-73035647D01*
X113098192Y-73018992D01*
X113114847Y-73005324D01*
X113133843Y-72995171D01*
X113154462Y-72988916D01*
X113182040Y-72986200D01*
X113690760Y-72986200D01*
X113718338Y-72988916D01*
X113718338Y-72988916D01*
G37*
G36*
X110590691Y-72617385D02*
G01*
X110624669Y-72627693D01*
X110655990Y-72644434D01*
X110683439Y-72666961D01*
X110705966Y-72694410D01*
X110722707Y-72725731D01*
X110733015Y-72759709D01*
X110737100Y-72801190D01*
X110737100Y-73477410D01*
X110733015Y-73518891D01*
X110722707Y-73552869D01*
X110705966Y-73584190D01*
X110683439Y-73611639D01*
X110655990Y-73634166D01*
X110624669Y-73650907D01*
X110590691Y-73661215D01*
X110549210Y-73665300D01*
X109947990Y-73665300D01*
X109906509Y-73661215D01*
X109872531Y-73650907D01*
X109841210Y-73634166D01*
X109813761Y-73611639D01*
X109791234Y-73584190D01*
X109774493Y-73552869D01*
X109764185Y-73518891D01*
X109760100Y-73477410D01*
X109760100Y-72801190D01*
X109764185Y-72759709D01*
X109774493Y-72725731D01*
X109791234Y-72694410D01*
X109813761Y-72666961D01*
X109841210Y-72644434D01*
X109872531Y-72627693D01*
X109906509Y-72617385D01*
X109947990Y-72613300D01*
X110549210Y-72613300D01*
X110590691Y-72617385D01*
X110590691Y-72617385D01*
G37*
G36*
X112165691Y-72617385D02*
G01*
X112199669Y-72627693D01*
X112230990Y-72644434D01*
X112258439Y-72666961D01*
X112280966Y-72694410D01*
X112297707Y-72725731D01*
X112308015Y-72759709D01*
X112312100Y-72801190D01*
X112312100Y-73477410D01*
X112308015Y-73518891D01*
X112297707Y-73552869D01*
X112280966Y-73584190D01*
X112258439Y-73611639D01*
X112230990Y-73634166D01*
X112199669Y-73650907D01*
X112165691Y-73661215D01*
X112124210Y-73665300D01*
X111522990Y-73665300D01*
X111481509Y-73661215D01*
X111447531Y-73650907D01*
X111416210Y-73634166D01*
X111388761Y-73611639D01*
X111366234Y-73584190D01*
X111349493Y-73552869D01*
X111339185Y-73518891D01*
X111335100Y-73477410D01*
X111335100Y-72801190D01*
X111339185Y-72759709D01*
X111349493Y-72725731D01*
X111366234Y-72694410D01*
X111388761Y-72666961D01*
X111416210Y-72644434D01*
X111447531Y-72627693D01*
X111481509Y-72617385D01*
X111522990Y-72613300D01*
X112124210Y-72613300D01*
X112165691Y-72617385D01*
X112165691Y-72617385D01*
G37*
G36*
X113718338Y-72018916D02*
G01*
X113738957Y-72025171D01*
X113757953Y-72035324D01*
X113774608Y-72048992D01*
X113788276Y-72065647D01*
X113798429Y-72084643D01*
X113804684Y-72105262D01*
X113807400Y-72132840D01*
X113807400Y-72591560D01*
X113804684Y-72619138D01*
X113798429Y-72639757D01*
X113788276Y-72658753D01*
X113774608Y-72675408D01*
X113757953Y-72689076D01*
X113738957Y-72699229D01*
X113718338Y-72705484D01*
X113690760Y-72708200D01*
X113182040Y-72708200D01*
X113154462Y-72705484D01*
X113133843Y-72699229D01*
X113114847Y-72689076D01*
X113098192Y-72675408D01*
X113084524Y-72658753D01*
X113074371Y-72639757D01*
X113068116Y-72619138D01*
X113065400Y-72591560D01*
X113065400Y-72132840D01*
X113068116Y-72105262D01*
X113074371Y-72084643D01*
X113084524Y-72065647D01*
X113098192Y-72048992D01*
X113114847Y-72035324D01*
X113133843Y-72025171D01*
X113154462Y-72018916D01*
X113182040Y-72016200D01*
X113690760Y-72016200D01*
X113718338Y-72018916D01*
X113718338Y-72018916D01*
G37*
G36*
X110730391Y-71080685D02*
G01*
X110764369Y-71090993D01*
X110795690Y-71107734D01*
X110823139Y-71130261D01*
X110845666Y-71157710D01*
X110862407Y-71189031D01*
X110872715Y-71223009D01*
X110876800Y-71264490D01*
X110876800Y-71940710D01*
X110872715Y-71982191D01*
X110862407Y-72016169D01*
X110845666Y-72047490D01*
X110823139Y-72074939D01*
X110795690Y-72097466D01*
X110764369Y-72114207D01*
X110730391Y-72124515D01*
X110688910Y-72128600D01*
X110087690Y-72128600D01*
X110046209Y-72124515D01*
X110012231Y-72114207D01*
X109980910Y-72097466D01*
X109953461Y-72074939D01*
X109930934Y-72047490D01*
X109914193Y-72016169D01*
X109903885Y-71982191D01*
X109899800Y-71940710D01*
X109899800Y-71264490D01*
X109903885Y-71223009D01*
X109914193Y-71189031D01*
X109930934Y-71157710D01*
X109953461Y-71130261D01*
X109980910Y-71107734D01*
X110012231Y-71090993D01*
X110046209Y-71080685D01*
X110087690Y-71076600D01*
X110688910Y-71076600D01*
X110730391Y-71080685D01*
X110730391Y-71080685D01*
G37*
G36*
X112305391Y-71080685D02*
G01*
X112339369Y-71090993D01*
X112370690Y-71107734D01*
X112398139Y-71130261D01*
X112420666Y-71157710D01*
X112437407Y-71189031D01*
X112447715Y-71223009D01*
X112451800Y-71264490D01*
X112451800Y-71940710D01*
X112447715Y-71982191D01*
X112437407Y-72016169D01*
X112420666Y-72047490D01*
X112398139Y-72074939D01*
X112370690Y-72097466D01*
X112339369Y-72114207D01*
X112305391Y-72124515D01*
X112263910Y-72128600D01*
X111662690Y-72128600D01*
X111621209Y-72124515D01*
X111587231Y-72114207D01*
X111555910Y-72097466D01*
X111528461Y-72074939D01*
X111505934Y-72047490D01*
X111489193Y-72016169D01*
X111478885Y-71982191D01*
X111474800Y-71940710D01*
X111474800Y-71264490D01*
X111478885Y-71223009D01*
X111489193Y-71189031D01*
X111505934Y-71157710D01*
X111528461Y-71130261D01*
X111555910Y-71107734D01*
X111587231Y-71090993D01*
X111621209Y-71080685D01*
X111662690Y-71076600D01*
X112263910Y-71076600D01*
X112305391Y-71080685D01*
X112305391Y-71080685D01*
G37*
G36*
X109326938Y-71285116D02*
G01*
X109347557Y-71291371D01*
X109366553Y-71301524D01*
X109383208Y-71315192D01*
X109396876Y-71331847D01*
X109407029Y-71350843D01*
X109413284Y-71371462D01*
X109416000Y-71399040D01*
X109416000Y-71907760D01*
X109413284Y-71935338D01*
X109407029Y-71955957D01*
X109396876Y-71974953D01*
X109383208Y-71991608D01*
X109366553Y-72005276D01*
X109347557Y-72015429D01*
X109326938Y-72021684D01*
X109299360Y-72024400D01*
X108840640Y-72024400D01*
X108813062Y-72021684D01*
X108792443Y-72015429D01*
X108773447Y-72005276D01*
X108756792Y-71991608D01*
X108743124Y-71974953D01*
X108732971Y-71955957D01*
X108726716Y-71935338D01*
X108724000Y-71907760D01*
X108724000Y-71399040D01*
X108726716Y-71371462D01*
X108732971Y-71350843D01*
X108743124Y-71331847D01*
X108756792Y-71315192D01*
X108773447Y-71301524D01*
X108792443Y-71291371D01*
X108813062Y-71285116D01*
X108840640Y-71282400D01*
X109299360Y-71282400D01*
X109326938Y-71285116D01*
X109326938Y-71285116D01*
G37*
G36*
X108356938Y-71285116D02*
G01*
X108377557Y-71291371D01*
X108396553Y-71301524D01*
X108413208Y-71315192D01*
X108426876Y-71331847D01*
X108437029Y-71350843D01*
X108443284Y-71371462D01*
X108446000Y-71399040D01*
X108446000Y-71907760D01*
X108443284Y-71935338D01*
X108437029Y-71955957D01*
X108426876Y-71974953D01*
X108413208Y-71991608D01*
X108396553Y-72005276D01*
X108377557Y-72015429D01*
X108356938Y-72021684D01*
X108329360Y-72024400D01*
X107870640Y-72024400D01*
X107843062Y-72021684D01*
X107822443Y-72015429D01*
X107803447Y-72005276D01*
X107786792Y-71991608D01*
X107773124Y-71974953D01*
X107762971Y-71955957D01*
X107756716Y-71935338D01*
X107754000Y-71907760D01*
X107754000Y-71399040D01*
X107756716Y-71371462D01*
X107762971Y-71350843D01*
X107773124Y-71331847D01*
X107786792Y-71315192D01*
X107803447Y-71301524D01*
X107822443Y-71291371D01*
X107843062Y-71285116D01*
X107870640Y-71282400D01*
X108329360Y-71282400D01*
X108356938Y-71285116D01*
X108356938Y-71285116D01*
G37*
G36*
X103234442Y-70225518D02*
G01*
X103300627Y-70232037D01*
X103470466Y-70283557D01*
X103470468Y-70283558D01*
X103492490Y-70295329D01*
X103626991Y-70367222D01*
X103662729Y-70396552D01*
X103764186Y-70479814D01*
X103816628Y-70543716D01*
X103876778Y-70617009D01*
X103960443Y-70773534D01*
X104011963Y-70943373D01*
X104029359Y-71120000D01*
X104011963Y-71296627D01*
X103960443Y-71466466D01*
X103876778Y-71622991D01*
X103847448Y-71658729D01*
X103764186Y-71760186D01*
X103662729Y-71843448D01*
X103626991Y-71872778D01*
X103470466Y-71956443D01*
X103300627Y-72007963D01*
X103234443Y-72014481D01*
X103168260Y-72021000D01*
X103079740Y-72021000D01*
X103013557Y-72014481D01*
X102947373Y-72007963D01*
X102777534Y-71956443D01*
X102621009Y-71872778D01*
X102585271Y-71843448D01*
X102483814Y-71760186D01*
X102400552Y-71658729D01*
X102371222Y-71622991D01*
X102287557Y-71466466D01*
X102236037Y-71296627D01*
X102218641Y-71120000D01*
X102236037Y-70943373D01*
X102287557Y-70773534D01*
X102371222Y-70617009D01*
X102431372Y-70543716D01*
X102483814Y-70479814D01*
X102585271Y-70396552D01*
X102621009Y-70367222D01*
X102755510Y-70295329D01*
X102777532Y-70283558D01*
X102777534Y-70283557D01*
X102947373Y-70232037D01*
X103013558Y-70225518D01*
X103079740Y-70219000D01*
X103168260Y-70219000D01*
X103234442Y-70225518D01*
X103234442Y-70225518D01*
G37*
G36*
X129396442Y-70225518D02*
G01*
X129462627Y-70232037D01*
X129632466Y-70283557D01*
X129632468Y-70283558D01*
X129654490Y-70295329D01*
X129788991Y-70367222D01*
X129824729Y-70396552D01*
X129926186Y-70479814D01*
X129978628Y-70543716D01*
X130038778Y-70617009D01*
X130122443Y-70773534D01*
X130173963Y-70943373D01*
X130191359Y-71120000D01*
X130173963Y-71296627D01*
X130122443Y-71466466D01*
X130038778Y-71622991D01*
X130009448Y-71658729D01*
X129926186Y-71760186D01*
X129824729Y-71843448D01*
X129788991Y-71872778D01*
X129632466Y-71956443D01*
X129462627Y-72007963D01*
X129396443Y-72014481D01*
X129330260Y-72021000D01*
X129241740Y-72021000D01*
X129175557Y-72014481D01*
X129109373Y-72007963D01*
X128939534Y-71956443D01*
X128783009Y-71872778D01*
X128747271Y-71843448D01*
X128645814Y-71760186D01*
X128562552Y-71658729D01*
X128533222Y-71622991D01*
X128449557Y-71466466D01*
X128398037Y-71296627D01*
X128380641Y-71120000D01*
X128398037Y-70943373D01*
X128449557Y-70773534D01*
X128533222Y-70617009D01*
X128593372Y-70543716D01*
X128645814Y-70479814D01*
X128747271Y-70396552D01*
X128783009Y-70367222D01*
X128917510Y-70295329D01*
X128939532Y-70283558D01*
X128939534Y-70283557D01*
X129109373Y-70232037D01*
X129175558Y-70225518D01*
X129241740Y-70219000D01*
X129330260Y-70219000D01*
X129396442Y-70225518D01*
X129396442Y-70225518D01*
G37*
G36*
X114793116Y-65179843D02*
G01*
X114797256Y-65181099D01*
X114816416Y-65189035D01*
X114840450Y-65193815D01*
X114864954Y-65193815D01*
X114888987Y-65189034D01*
X114908145Y-65181099D01*
X114912284Y-65179843D01*
X114920843Y-65179000D01*
X115184557Y-65179000D01*
X115193116Y-65179843D01*
X115197256Y-65181099D01*
X115216416Y-65189035D01*
X115240450Y-65193815D01*
X115264954Y-65193815D01*
X115288987Y-65189034D01*
X115308145Y-65181099D01*
X115312284Y-65179843D01*
X115320843Y-65179000D01*
X115584557Y-65179000D01*
X115593116Y-65179843D01*
X115597256Y-65181099D01*
X115616416Y-65189035D01*
X115640450Y-65193815D01*
X115664954Y-65193815D01*
X115688987Y-65189034D01*
X115708145Y-65181099D01*
X115712284Y-65179843D01*
X115720843Y-65179000D01*
X115984557Y-65179000D01*
X115993116Y-65179843D01*
X115997256Y-65181099D01*
X116016416Y-65189035D01*
X116040450Y-65193815D01*
X116064954Y-65193815D01*
X116088987Y-65189034D01*
X116108145Y-65181099D01*
X116112284Y-65179843D01*
X116120843Y-65179000D01*
X116384557Y-65179000D01*
X116393116Y-65179843D01*
X116397256Y-65181099D01*
X116416416Y-65189035D01*
X116440450Y-65193815D01*
X116464954Y-65193815D01*
X116488987Y-65189034D01*
X116508145Y-65181099D01*
X116512284Y-65179843D01*
X116520843Y-65179000D01*
X116784557Y-65179000D01*
X116793116Y-65179843D01*
X116797256Y-65181099D01*
X116816416Y-65189035D01*
X116840450Y-65193815D01*
X116864954Y-65193815D01*
X116888987Y-65189034D01*
X116908145Y-65181099D01*
X116912284Y-65179843D01*
X116920843Y-65179000D01*
X117184557Y-65179000D01*
X117193116Y-65179843D01*
X117197256Y-65181099D01*
X117216416Y-65189035D01*
X117240450Y-65193815D01*
X117264954Y-65193815D01*
X117288987Y-65189034D01*
X117308145Y-65181099D01*
X117312284Y-65179843D01*
X117320843Y-65179000D01*
X117584557Y-65179000D01*
X117593116Y-65179843D01*
X117597256Y-65181099D01*
X117616416Y-65189035D01*
X117640450Y-65193815D01*
X117664954Y-65193815D01*
X117688987Y-65189034D01*
X117708145Y-65181099D01*
X117712284Y-65179843D01*
X117720843Y-65179000D01*
X117984557Y-65179000D01*
X117993116Y-65179843D01*
X117997256Y-65181099D01*
X118016416Y-65189035D01*
X118040450Y-65193815D01*
X118064954Y-65193815D01*
X118088987Y-65189034D01*
X118108145Y-65181099D01*
X118112284Y-65179843D01*
X118120843Y-65179000D01*
X118384557Y-65179000D01*
X118393116Y-65179843D01*
X118397256Y-65181099D01*
X118416416Y-65189035D01*
X118440450Y-65193815D01*
X118464954Y-65193815D01*
X118488987Y-65189034D01*
X118508145Y-65181099D01*
X118512284Y-65179843D01*
X118520843Y-65179000D01*
X118784557Y-65179000D01*
X118793116Y-65179843D01*
X118797256Y-65181099D01*
X118816416Y-65189035D01*
X118840450Y-65193815D01*
X118864954Y-65193815D01*
X118888987Y-65189034D01*
X118908145Y-65181099D01*
X118912284Y-65179843D01*
X118920843Y-65179000D01*
X119184557Y-65179000D01*
X119193116Y-65179843D01*
X119195445Y-65180550D01*
X119197587Y-65181695D01*
X119199465Y-65183235D01*
X119201005Y-65185113D01*
X119202150Y-65187255D01*
X119202857Y-65189584D01*
X119203700Y-65198143D01*
X119203700Y-66061857D01*
X119202857Y-66070416D01*
X119201322Y-66075476D01*
X119196542Y-66099509D01*
X119196542Y-66124013D01*
X119201323Y-66148047D01*
X119210700Y-66170685D01*
X119224314Y-66191060D01*
X119241641Y-66208387D01*
X119262015Y-66222000D01*
X119284654Y-66231378D01*
X119308687Y-66236158D01*
X119333191Y-66236158D01*
X119357224Y-66231378D01*
X119362284Y-66229843D01*
X119370843Y-66229000D01*
X120234557Y-66229000D01*
X120243116Y-66229843D01*
X120245445Y-66230550D01*
X120247587Y-66231695D01*
X120249465Y-66233235D01*
X120251005Y-66235113D01*
X120252150Y-66237255D01*
X120252857Y-66239584D01*
X120253700Y-66248143D01*
X120253700Y-66511857D01*
X120252857Y-66520416D01*
X120251601Y-66524556D01*
X120243665Y-66543716D01*
X120238885Y-66567750D01*
X120238885Y-66592254D01*
X120243666Y-66616287D01*
X120251601Y-66635445D01*
X120252857Y-66639584D01*
X120253700Y-66648143D01*
X120253700Y-66911857D01*
X120252857Y-66920416D01*
X120251601Y-66924556D01*
X120243665Y-66943716D01*
X120238885Y-66967750D01*
X120238885Y-66992254D01*
X120243666Y-67016287D01*
X120251601Y-67035445D01*
X120252857Y-67039584D01*
X120253700Y-67048143D01*
X120253700Y-67311857D01*
X120252857Y-67320416D01*
X120251601Y-67324556D01*
X120243665Y-67343716D01*
X120238885Y-67367750D01*
X120238885Y-67392254D01*
X120243666Y-67416287D01*
X120251601Y-67435445D01*
X120252857Y-67439584D01*
X120253700Y-67448143D01*
X120253700Y-67711857D01*
X120252857Y-67720416D01*
X120251601Y-67724556D01*
X120243665Y-67743716D01*
X120238885Y-67767750D01*
X120238885Y-67792254D01*
X120243666Y-67816287D01*
X120251601Y-67835445D01*
X120252857Y-67839584D01*
X120253700Y-67848143D01*
X120253700Y-68111857D01*
X120252857Y-68120416D01*
X120251601Y-68124556D01*
X120243665Y-68143716D01*
X120238885Y-68167750D01*
X120238885Y-68192254D01*
X120243666Y-68216287D01*
X120251601Y-68235445D01*
X120252857Y-68239584D01*
X120253700Y-68248143D01*
X120253700Y-68511857D01*
X120252857Y-68520416D01*
X120251601Y-68524556D01*
X120243665Y-68543716D01*
X120238885Y-68567750D01*
X120238885Y-68592254D01*
X120243666Y-68616287D01*
X120251601Y-68635445D01*
X120252857Y-68639584D01*
X120253700Y-68648143D01*
X120253700Y-68911857D01*
X120252857Y-68920416D01*
X120251601Y-68924556D01*
X120243665Y-68943716D01*
X120238885Y-68967750D01*
X120238885Y-68992254D01*
X120243666Y-69016287D01*
X120251601Y-69035445D01*
X120252857Y-69039584D01*
X120253700Y-69048143D01*
X120253700Y-69311857D01*
X120252857Y-69320416D01*
X120251601Y-69324556D01*
X120243665Y-69343716D01*
X120238885Y-69367750D01*
X120238885Y-69392254D01*
X120243666Y-69416287D01*
X120251601Y-69435445D01*
X120252857Y-69439584D01*
X120253700Y-69448143D01*
X120253700Y-69711857D01*
X120252857Y-69720416D01*
X120251601Y-69724556D01*
X120243665Y-69743716D01*
X120238885Y-69767750D01*
X120238885Y-69792254D01*
X120243666Y-69816287D01*
X120251601Y-69835445D01*
X120252857Y-69839584D01*
X120253700Y-69848143D01*
X120253700Y-70111857D01*
X120252857Y-70120416D01*
X120251601Y-70124556D01*
X120243665Y-70143716D01*
X120238885Y-70167750D01*
X120238885Y-70192254D01*
X120243666Y-70216287D01*
X120251601Y-70235445D01*
X120252857Y-70239584D01*
X120253700Y-70248143D01*
X120253700Y-70511857D01*
X120252857Y-70520416D01*
X120251601Y-70524556D01*
X120243665Y-70543716D01*
X120238885Y-70567750D01*
X120238885Y-70592254D01*
X120243666Y-70616287D01*
X120251601Y-70635445D01*
X120252857Y-70639584D01*
X120253700Y-70648143D01*
X120253700Y-70911857D01*
X120252857Y-70920416D01*
X120252150Y-70922745D01*
X120251005Y-70924887D01*
X120249465Y-70926765D01*
X120247587Y-70928305D01*
X120245445Y-70929450D01*
X120243116Y-70930157D01*
X120234557Y-70931000D01*
X119370843Y-70931000D01*
X119362284Y-70930157D01*
X119357224Y-70928622D01*
X119333191Y-70923842D01*
X119308687Y-70923842D01*
X119284653Y-70928623D01*
X119262015Y-70938000D01*
X119241640Y-70951614D01*
X119224313Y-70968941D01*
X119210700Y-70989315D01*
X119201322Y-71011954D01*
X119196542Y-71035987D01*
X119196542Y-71060491D01*
X119201322Y-71084524D01*
X119202857Y-71089584D01*
X119203700Y-71098143D01*
X119203700Y-71961857D01*
X119202857Y-71970416D01*
X119202150Y-71972745D01*
X119201005Y-71974887D01*
X119199465Y-71976765D01*
X119197587Y-71978305D01*
X119195445Y-71979450D01*
X119193116Y-71980157D01*
X119184557Y-71981000D01*
X118920843Y-71981000D01*
X118912284Y-71980157D01*
X118908144Y-71978901D01*
X118888984Y-71970965D01*
X118864950Y-71966185D01*
X118840446Y-71966185D01*
X118816413Y-71970966D01*
X118797255Y-71978901D01*
X118793116Y-71980157D01*
X118784557Y-71981000D01*
X118520843Y-71981000D01*
X118512284Y-71980157D01*
X118508144Y-71978901D01*
X118488984Y-71970965D01*
X118464950Y-71966185D01*
X118440446Y-71966185D01*
X118416413Y-71970966D01*
X118397255Y-71978901D01*
X118393116Y-71980157D01*
X118384557Y-71981000D01*
X118120843Y-71981000D01*
X118112284Y-71980157D01*
X118108144Y-71978901D01*
X118088984Y-71970965D01*
X118064950Y-71966185D01*
X118040446Y-71966185D01*
X118016413Y-71970966D01*
X117997255Y-71978901D01*
X117993116Y-71980157D01*
X117984557Y-71981000D01*
X117720843Y-71981000D01*
X117712284Y-71980157D01*
X117708144Y-71978901D01*
X117688984Y-71970965D01*
X117664950Y-71966185D01*
X117640446Y-71966185D01*
X117616413Y-71970966D01*
X117597255Y-71978901D01*
X117593116Y-71980157D01*
X117584557Y-71981000D01*
X117320843Y-71981000D01*
X117312284Y-71980157D01*
X117308144Y-71978901D01*
X117288984Y-71970965D01*
X117264950Y-71966185D01*
X117240446Y-71966185D01*
X117216413Y-71970966D01*
X117197255Y-71978901D01*
X117193116Y-71980157D01*
X117184557Y-71981000D01*
X116920843Y-71981000D01*
X116912284Y-71980157D01*
X116908144Y-71978901D01*
X116888984Y-71970965D01*
X116864950Y-71966185D01*
X116840446Y-71966185D01*
X116816413Y-71970966D01*
X116797255Y-71978901D01*
X116793116Y-71980157D01*
X116784557Y-71981000D01*
X116520843Y-71981000D01*
X116512284Y-71980157D01*
X116508144Y-71978901D01*
X116488984Y-71970965D01*
X116464950Y-71966185D01*
X116440446Y-71966185D01*
X116416413Y-71970966D01*
X116397255Y-71978901D01*
X116393116Y-71980157D01*
X116384557Y-71981000D01*
X116120843Y-71981000D01*
X116112284Y-71980157D01*
X116108144Y-71978901D01*
X116088984Y-71970965D01*
X116064950Y-71966185D01*
X116040446Y-71966185D01*
X116016413Y-71970966D01*
X115997255Y-71978901D01*
X115993116Y-71980157D01*
X115984557Y-71981000D01*
X115720843Y-71981000D01*
X115712284Y-71980157D01*
X115708144Y-71978901D01*
X115688984Y-71970965D01*
X115664950Y-71966185D01*
X115640446Y-71966185D01*
X115616413Y-71970966D01*
X115597255Y-71978901D01*
X115593116Y-71980157D01*
X115584557Y-71981000D01*
X115320843Y-71981000D01*
X115312284Y-71980157D01*
X115308144Y-71978901D01*
X115288984Y-71970965D01*
X115264950Y-71966185D01*
X115240446Y-71966185D01*
X115216413Y-71970966D01*
X115197255Y-71978901D01*
X115193116Y-71980157D01*
X115184557Y-71981000D01*
X114920843Y-71981000D01*
X114912284Y-71980157D01*
X114908144Y-71978901D01*
X114888984Y-71970965D01*
X114864950Y-71966185D01*
X114840446Y-71966185D01*
X114816413Y-71970966D01*
X114797255Y-71978901D01*
X114793116Y-71980157D01*
X114784557Y-71981000D01*
X114520843Y-71981000D01*
X114512284Y-71980157D01*
X114509955Y-71979450D01*
X114507813Y-71978305D01*
X114505935Y-71976765D01*
X114504395Y-71974887D01*
X114503250Y-71972745D01*
X114502543Y-71970416D01*
X114501700Y-71961857D01*
X114501700Y-71098143D01*
X114502543Y-71089584D01*
X114504078Y-71084524D01*
X114508858Y-71060491D01*
X114508858Y-71035987D01*
X114504077Y-71011953D01*
X114494700Y-70989315D01*
X114481086Y-70968940D01*
X114463759Y-70951613D01*
X114443385Y-70938000D01*
X114420746Y-70928622D01*
X114396713Y-70923842D01*
X114372209Y-70923842D01*
X114348176Y-70928622D01*
X114343116Y-70930157D01*
X114334557Y-70931000D01*
X113470843Y-70931000D01*
X113462284Y-70930157D01*
X113459955Y-70929450D01*
X113457813Y-70928305D01*
X113455935Y-70926765D01*
X113454395Y-70924887D01*
X113453250Y-70922745D01*
X113452543Y-70920416D01*
X113451700Y-70911857D01*
X113451700Y-70648143D01*
X113452543Y-70639584D01*
X113453799Y-70635444D01*
X113461735Y-70616284D01*
X113466515Y-70592250D01*
X113466515Y-70567746D01*
X113461734Y-70543713D01*
X113453799Y-70524555D01*
X113452543Y-70520416D01*
X113451700Y-70511857D01*
X113451700Y-70248143D01*
X113452543Y-70239584D01*
X113453799Y-70235444D01*
X113461735Y-70216284D01*
X113466515Y-70192250D01*
X113466515Y-70167746D01*
X113461734Y-70143713D01*
X113453799Y-70124555D01*
X113452543Y-70120416D01*
X113451700Y-70111857D01*
X113451700Y-69848143D01*
X113452543Y-69839584D01*
X113453799Y-69835444D01*
X113461735Y-69816284D01*
X113466515Y-69792250D01*
X113466515Y-69767746D01*
X113461734Y-69743713D01*
X113453799Y-69724555D01*
X113452543Y-69720416D01*
X113451700Y-69711857D01*
X113451700Y-69448143D01*
X113452543Y-69439584D01*
X113453799Y-69435444D01*
X113461735Y-69416284D01*
X113466515Y-69392250D01*
X113466515Y-69367746D01*
X113461734Y-69343713D01*
X113453799Y-69324555D01*
X113452543Y-69320416D01*
X113451700Y-69311857D01*
X113451700Y-69048143D01*
X113452543Y-69039584D01*
X113453799Y-69035444D01*
X113461735Y-69016284D01*
X113466515Y-68992250D01*
X113466515Y-68967746D01*
X113461734Y-68943713D01*
X113453799Y-68924555D01*
X113452543Y-68920416D01*
X113451700Y-68911857D01*
X113451700Y-68648143D01*
X113452543Y-68639584D01*
X113453799Y-68635444D01*
X113461735Y-68616284D01*
X113466515Y-68592250D01*
X113466515Y-68567746D01*
X113461734Y-68543713D01*
X113453799Y-68524555D01*
X113452543Y-68520416D01*
X113451700Y-68511857D01*
X113451700Y-68248143D01*
X113452543Y-68239584D01*
X113453799Y-68235444D01*
X113461735Y-68216284D01*
X113466515Y-68192250D01*
X113466515Y-68167746D01*
X113461734Y-68143713D01*
X113453799Y-68124555D01*
X113452543Y-68120416D01*
X113451700Y-68111857D01*
X113451700Y-67848143D01*
X113452543Y-67839584D01*
X113453799Y-67835444D01*
X113461735Y-67816284D01*
X113466515Y-67792250D01*
X113466515Y-67767746D01*
X113461734Y-67743713D01*
X113453799Y-67724555D01*
X113452543Y-67720416D01*
X113451700Y-67711857D01*
X113451700Y-67448143D01*
X113452543Y-67439584D01*
X113453799Y-67435444D01*
X113461735Y-67416284D01*
X113466515Y-67392250D01*
X113466515Y-67367746D01*
X113461734Y-67343713D01*
X113453799Y-67324555D01*
X113452543Y-67320416D01*
X113451700Y-67311857D01*
X113451700Y-67048143D01*
X113452543Y-67039584D01*
X113453799Y-67035444D01*
X113461735Y-67016284D01*
X113466515Y-66992250D01*
X113466515Y-66967746D01*
X113461734Y-66943713D01*
X113453799Y-66924555D01*
X113452543Y-66920416D01*
X113451700Y-66911857D01*
X113451700Y-66648143D01*
X113452543Y-66639584D01*
X113453799Y-66635444D01*
X113461735Y-66616284D01*
X113466515Y-66592250D01*
X113466515Y-66567746D01*
X113461734Y-66543713D01*
X113453799Y-66524555D01*
X113452543Y-66520416D01*
X113451700Y-66511857D01*
X113451700Y-66248143D01*
X113452543Y-66239584D01*
X113453250Y-66237255D01*
X113454395Y-66235113D01*
X113455935Y-66233235D01*
X113457813Y-66231695D01*
X113459955Y-66230550D01*
X113462284Y-66229843D01*
X113470843Y-66229000D01*
X114334557Y-66229000D01*
X114343116Y-66229843D01*
X114348176Y-66231378D01*
X114372209Y-66236158D01*
X114396713Y-66236158D01*
X114420747Y-66231377D01*
X114443385Y-66222000D01*
X114463760Y-66208386D01*
X114481087Y-66191059D01*
X114494700Y-66170685D01*
X114504078Y-66148046D01*
X114508858Y-66124013D01*
X114508858Y-66099509D01*
X114504078Y-66075476D01*
X114502543Y-66070416D01*
X114501700Y-66061857D01*
X114501700Y-65198143D01*
X114502543Y-65189584D01*
X114503250Y-65187255D01*
X114504395Y-65185113D01*
X114505935Y-65183235D01*
X114507813Y-65181695D01*
X114509955Y-65180550D01*
X114512284Y-65179843D01*
X114520843Y-65179000D01*
X114784557Y-65179000D01*
X114793116Y-65179843D01*
X114793116Y-65179843D01*
G37*
G36*
X122074938Y-70626716D02*
G01*
X122095557Y-70632971D01*
X122114553Y-70643124D01*
X122131208Y-70656792D01*
X122144876Y-70673447D01*
X122155029Y-70692443D01*
X122161284Y-70713062D01*
X122164000Y-70740640D01*
X122164000Y-71199360D01*
X122161284Y-71226938D01*
X122155029Y-71247557D01*
X122144876Y-71266553D01*
X122131208Y-71283208D01*
X122114553Y-71296876D01*
X122095557Y-71307029D01*
X122074938Y-71313284D01*
X122047360Y-71316000D01*
X121538640Y-71316000D01*
X121511062Y-71313284D01*
X121490443Y-71307029D01*
X121471447Y-71296876D01*
X121454792Y-71283208D01*
X121441124Y-71266553D01*
X121430971Y-71247557D01*
X121424716Y-71226938D01*
X121422000Y-71199360D01*
X121422000Y-70740640D01*
X121424716Y-70713062D01*
X121430971Y-70692443D01*
X121441124Y-70673447D01*
X121454792Y-70656792D01*
X121471447Y-70643124D01*
X121490443Y-70632971D01*
X121511062Y-70626716D01*
X121538640Y-70624000D01*
X122047360Y-70624000D01*
X122074938Y-70626716D01*
X122074938Y-70626716D01*
G37*
G36*
X109282691Y-69759885D02*
G01*
X109316669Y-69770193D01*
X109347990Y-69786934D01*
X109375439Y-69809461D01*
X109397966Y-69836910D01*
X109414707Y-69868231D01*
X109425015Y-69902209D01*
X109429100Y-69943690D01*
X109429100Y-70619910D01*
X109425015Y-70661391D01*
X109414707Y-70695369D01*
X109397966Y-70726690D01*
X109375439Y-70754139D01*
X109347990Y-70776666D01*
X109316669Y-70793407D01*
X109282691Y-70803715D01*
X109241210Y-70807800D01*
X108639990Y-70807800D01*
X108598509Y-70803715D01*
X108564531Y-70793407D01*
X108533210Y-70776666D01*
X108505761Y-70754139D01*
X108483234Y-70726690D01*
X108466493Y-70695369D01*
X108456185Y-70661391D01*
X108452100Y-70619910D01*
X108452100Y-69943690D01*
X108456185Y-69902209D01*
X108466493Y-69868231D01*
X108483234Y-69836910D01*
X108505761Y-69809461D01*
X108533210Y-69786934D01*
X108564531Y-69770193D01*
X108598509Y-69759885D01*
X108639990Y-69755800D01*
X109241210Y-69755800D01*
X109282691Y-69759885D01*
X109282691Y-69759885D01*
G37*
G36*
X107707691Y-69759885D02*
G01*
X107741669Y-69770193D01*
X107772990Y-69786934D01*
X107800439Y-69809461D01*
X107822966Y-69836910D01*
X107839707Y-69868231D01*
X107850015Y-69902209D01*
X107854100Y-69943690D01*
X107854100Y-70619910D01*
X107850015Y-70661391D01*
X107839707Y-70695369D01*
X107822966Y-70726690D01*
X107800439Y-70754139D01*
X107772990Y-70776666D01*
X107741669Y-70793407D01*
X107707691Y-70803715D01*
X107666210Y-70807800D01*
X107064990Y-70807800D01*
X107023509Y-70803715D01*
X106989531Y-70793407D01*
X106958210Y-70776666D01*
X106930761Y-70754139D01*
X106908234Y-70726690D01*
X106891493Y-70695369D01*
X106881185Y-70661391D01*
X106877100Y-70619910D01*
X106877100Y-69943690D01*
X106881185Y-69902209D01*
X106891493Y-69868231D01*
X106908234Y-69836910D01*
X106930761Y-69809461D01*
X106958210Y-69786934D01*
X106989531Y-69770193D01*
X107023509Y-69759885D01*
X107064990Y-69755800D01*
X107666210Y-69755800D01*
X107707691Y-69759885D01*
X107707691Y-69759885D01*
G37*
G36*
X122074938Y-69656716D02*
G01*
X122095557Y-69662971D01*
X122114553Y-69673124D01*
X122131208Y-69686792D01*
X122144876Y-69703447D01*
X122155029Y-69722443D01*
X122161284Y-69743062D01*
X122164000Y-69770640D01*
X122164000Y-70229360D01*
X122161284Y-70256938D01*
X122155029Y-70277557D01*
X122144876Y-70296553D01*
X122131208Y-70313208D01*
X122114553Y-70326876D01*
X122095557Y-70337029D01*
X122074938Y-70343284D01*
X122047360Y-70346000D01*
X121538640Y-70346000D01*
X121511062Y-70343284D01*
X121490443Y-70337029D01*
X121471447Y-70326876D01*
X121454792Y-70313208D01*
X121441124Y-70296553D01*
X121430971Y-70277557D01*
X121424716Y-70256938D01*
X121422000Y-70229360D01*
X121422000Y-69770640D01*
X121424716Y-69743062D01*
X121430971Y-69722443D01*
X121441124Y-69703447D01*
X121454792Y-69686792D01*
X121471447Y-69673124D01*
X121490443Y-69662971D01*
X121511062Y-69656716D01*
X121538640Y-69654000D01*
X122047360Y-69654000D01*
X122074938Y-69656716D01*
X122074938Y-69656716D01*
G37*
G36*
X129385015Y-67684393D02*
G01*
X129462627Y-67692037D01*
X129632466Y-67743557D01*
X129632468Y-67743558D01*
X129666970Y-67762000D01*
X129788991Y-67827222D01*
X129811567Y-67845750D01*
X129926186Y-67939814D01*
X129982874Y-68008890D01*
X130038778Y-68077009D01*
X130122443Y-68233534D01*
X130173963Y-68403373D01*
X130191359Y-68580000D01*
X130173963Y-68756627D01*
X130122443Y-68926466D01*
X130038778Y-69082991D01*
X130021126Y-69104500D01*
X129926186Y-69220186D01*
X129847948Y-69284393D01*
X129788991Y-69332778D01*
X129788989Y-69332779D01*
X129632764Y-69416284D01*
X129632466Y-69416443D01*
X129462627Y-69467963D01*
X129396442Y-69474482D01*
X129330260Y-69481000D01*
X129241740Y-69481000D01*
X129175558Y-69474482D01*
X129109373Y-69467963D01*
X128939534Y-69416443D01*
X128939237Y-69416284D01*
X128783011Y-69332779D01*
X128783009Y-69332778D01*
X128724052Y-69284393D01*
X128645814Y-69220186D01*
X128550874Y-69104500D01*
X128533222Y-69082991D01*
X128449557Y-68926466D01*
X128398037Y-68756627D01*
X128380641Y-68580000D01*
X128398037Y-68403373D01*
X128449557Y-68233534D01*
X128533222Y-68077009D01*
X128589126Y-68008890D01*
X128645814Y-67939814D01*
X128760433Y-67845750D01*
X128783009Y-67827222D01*
X128905030Y-67762000D01*
X128939532Y-67743558D01*
X128939534Y-67743557D01*
X129109373Y-67692037D01*
X129186985Y-67684393D01*
X129241740Y-67679000D01*
X129330260Y-67679000D01*
X129385015Y-67684393D01*
X129385015Y-67684393D01*
G37*
G36*
X103223015Y-67684393D02*
G01*
X103300627Y-67692037D01*
X103470466Y-67743557D01*
X103470468Y-67743558D01*
X103504970Y-67762000D01*
X103626991Y-67827222D01*
X103649567Y-67845750D01*
X103764186Y-67939814D01*
X103820874Y-68008890D01*
X103876778Y-68077009D01*
X103960443Y-68233534D01*
X104011963Y-68403373D01*
X104029359Y-68580000D01*
X104011963Y-68756627D01*
X103960443Y-68926466D01*
X103876778Y-69082991D01*
X103859126Y-69104500D01*
X103764186Y-69220186D01*
X103685948Y-69284393D01*
X103626991Y-69332778D01*
X103626989Y-69332779D01*
X103470764Y-69416284D01*
X103470466Y-69416443D01*
X103300627Y-69467963D01*
X103234442Y-69474482D01*
X103168260Y-69481000D01*
X103079740Y-69481000D01*
X103013558Y-69474482D01*
X102947373Y-69467963D01*
X102777534Y-69416443D01*
X102777237Y-69416284D01*
X102621011Y-69332779D01*
X102621009Y-69332778D01*
X102562052Y-69284393D01*
X102483814Y-69220186D01*
X102388874Y-69104500D01*
X102371222Y-69082991D01*
X102287557Y-68926466D01*
X102236037Y-68756627D01*
X102218641Y-68580000D01*
X102236037Y-68403373D01*
X102287557Y-68233534D01*
X102371222Y-68077009D01*
X102427126Y-68008890D01*
X102483814Y-67939814D01*
X102598433Y-67845750D01*
X102621009Y-67827222D01*
X102743030Y-67762000D01*
X102777532Y-67743558D01*
X102777534Y-67743557D01*
X102947373Y-67692037D01*
X103024985Y-67684393D01*
X103079740Y-67679000D01*
X103168260Y-67679000D01*
X103223015Y-67684393D01*
X103223015Y-67684393D01*
G37*
G36*
X109206591Y-67042085D02*
G01*
X109240569Y-67052393D01*
X109271890Y-67069134D01*
X109299339Y-67091661D01*
X109321866Y-67119110D01*
X109338607Y-67150431D01*
X109348915Y-67184409D01*
X109353000Y-67225890D01*
X109353000Y-67902110D01*
X109348915Y-67943591D01*
X109338607Y-67977569D01*
X109321866Y-68008890D01*
X109299339Y-68036339D01*
X109271890Y-68058866D01*
X109240569Y-68075607D01*
X109206591Y-68085915D01*
X109165110Y-68090000D01*
X108563890Y-68090000D01*
X108522409Y-68085915D01*
X108488431Y-68075607D01*
X108457110Y-68058866D01*
X108429661Y-68036339D01*
X108407134Y-68008890D01*
X108390393Y-67977569D01*
X108380085Y-67943591D01*
X108376000Y-67902110D01*
X108376000Y-67225890D01*
X108380085Y-67184409D01*
X108390393Y-67150431D01*
X108407134Y-67119110D01*
X108429661Y-67091661D01*
X108457110Y-67069134D01*
X108488431Y-67052393D01*
X108522409Y-67042085D01*
X108563890Y-67038000D01*
X109165110Y-67038000D01*
X109206591Y-67042085D01*
X109206591Y-67042085D01*
G37*
G36*
X107631591Y-67042085D02*
G01*
X107665569Y-67052393D01*
X107696890Y-67069134D01*
X107724339Y-67091661D01*
X107746866Y-67119110D01*
X107763607Y-67150431D01*
X107773915Y-67184409D01*
X107778000Y-67225890D01*
X107778000Y-67902110D01*
X107773915Y-67943591D01*
X107763607Y-67977569D01*
X107746866Y-68008890D01*
X107724339Y-68036339D01*
X107696890Y-68058866D01*
X107665569Y-68075607D01*
X107631591Y-68085915D01*
X107590110Y-68090000D01*
X106988890Y-68090000D01*
X106947409Y-68085915D01*
X106913431Y-68075607D01*
X106882110Y-68058866D01*
X106854661Y-68036339D01*
X106832134Y-68008890D01*
X106815393Y-67977569D01*
X106805085Y-67943591D01*
X106801000Y-67902110D01*
X106801000Y-67225890D01*
X106805085Y-67184409D01*
X106815393Y-67150431D01*
X106832134Y-67119110D01*
X106854661Y-67091661D01*
X106882110Y-67069134D01*
X106913431Y-67052393D01*
X106947409Y-67042085D01*
X106988890Y-67038000D01*
X107590110Y-67038000D01*
X107631591Y-67042085D01*
X107631591Y-67042085D01*
G37*
G36*
X110388938Y-67195716D02*
G01*
X110409557Y-67201971D01*
X110428553Y-67212124D01*
X110445208Y-67225792D01*
X110458876Y-67242447D01*
X110469029Y-67261443D01*
X110475284Y-67282062D01*
X110478000Y-67309640D01*
X110478000Y-67818360D01*
X110475284Y-67845938D01*
X110469029Y-67866557D01*
X110458876Y-67885553D01*
X110445208Y-67902208D01*
X110428553Y-67915876D01*
X110409557Y-67926029D01*
X110388938Y-67932284D01*
X110361360Y-67935000D01*
X109902640Y-67935000D01*
X109875062Y-67932284D01*
X109854443Y-67926029D01*
X109835447Y-67915876D01*
X109818792Y-67902208D01*
X109805124Y-67885553D01*
X109794971Y-67866557D01*
X109788716Y-67845938D01*
X109786000Y-67818360D01*
X109786000Y-67309640D01*
X109788716Y-67282062D01*
X109794971Y-67261443D01*
X109805124Y-67242447D01*
X109818792Y-67225792D01*
X109835447Y-67212124D01*
X109854443Y-67201971D01*
X109875062Y-67195716D01*
X109902640Y-67193000D01*
X110361360Y-67193000D01*
X110388938Y-67195716D01*
X110388938Y-67195716D01*
G37*
G36*
X111358938Y-67195716D02*
G01*
X111379557Y-67201971D01*
X111398553Y-67212124D01*
X111415208Y-67225792D01*
X111428876Y-67242447D01*
X111439029Y-67261443D01*
X111445284Y-67282062D01*
X111448000Y-67309640D01*
X111448000Y-67818360D01*
X111445284Y-67845938D01*
X111439029Y-67866557D01*
X111428876Y-67885553D01*
X111415208Y-67902208D01*
X111398553Y-67915876D01*
X111379557Y-67926029D01*
X111358938Y-67932284D01*
X111331360Y-67935000D01*
X110872640Y-67935000D01*
X110845062Y-67932284D01*
X110824443Y-67926029D01*
X110805447Y-67915876D01*
X110788792Y-67902208D01*
X110775124Y-67885553D01*
X110764971Y-67866557D01*
X110758716Y-67845938D01*
X110756000Y-67818360D01*
X110756000Y-67309640D01*
X110758716Y-67282062D01*
X110764971Y-67261443D01*
X110775124Y-67242447D01*
X110788792Y-67225792D01*
X110805447Y-67212124D01*
X110824443Y-67201971D01*
X110845062Y-67195716D01*
X110872640Y-67193000D01*
X111331360Y-67193000D01*
X111358938Y-67195716D01*
X111358938Y-67195716D01*
G37*
G36*
X103234442Y-65145518D02*
G01*
X103300627Y-65152037D01*
X103470466Y-65203557D01*
X103626991Y-65287222D01*
X103660107Y-65314400D01*
X103764186Y-65399814D01*
X103830681Y-65480840D01*
X103876778Y-65537009D01*
X103960443Y-65693534D01*
X104011963Y-65863373D01*
X104029359Y-66040000D01*
X104011963Y-66216627D01*
X103960443Y-66386466D01*
X103876778Y-66542991D01*
X103847448Y-66578729D01*
X103764186Y-66680186D01*
X103679546Y-66749647D01*
X103626991Y-66792778D01*
X103604187Y-66804967D01*
X103482092Y-66870229D01*
X103470466Y-66876443D01*
X103300627Y-66927963D01*
X103234442Y-66934482D01*
X103168260Y-66941000D01*
X103079740Y-66941000D01*
X103013558Y-66934482D01*
X102947373Y-66927963D01*
X102777534Y-66876443D01*
X102765909Y-66870229D01*
X102643813Y-66804967D01*
X102621009Y-66792778D01*
X102568454Y-66749647D01*
X102483814Y-66680186D01*
X102400552Y-66578729D01*
X102371222Y-66542991D01*
X102287557Y-66386466D01*
X102236037Y-66216627D01*
X102218641Y-66040000D01*
X102236037Y-65863373D01*
X102287557Y-65693534D01*
X102371222Y-65537009D01*
X102417319Y-65480840D01*
X102483814Y-65399814D01*
X102587893Y-65314400D01*
X102621009Y-65287222D01*
X102777534Y-65203557D01*
X102947373Y-65152037D01*
X103013558Y-65145518D01*
X103079740Y-65139000D01*
X103168260Y-65139000D01*
X103234442Y-65145518D01*
X103234442Y-65145518D01*
G37*
G36*
X129396442Y-65145518D02*
G01*
X129462627Y-65152037D01*
X129632466Y-65203557D01*
X129788991Y-65287222D01*
X129822107Y-65314400D01*
X129926186Y-65399814D01*
X129992681Y-65480840D01*
X130038778Y-65537009D01*
X130122443Y-65693534D01*
X130173963Y-65863373D01*
X130191359Y-66040000D01*
X130173963Y-66216627D01*
X130122443Y-66386466D01*
X130038778Y-66542991D01*
X130009448Y-66578729D01*
X129926186Y-66680186D01*
X129841546Y-66749647D01*
X129788991Y-66792778D01*
X129766187Y-66804967D01*
X129644092Y-66870229D01*
X129632466Y-66876443D01*
X129462627Y-66927963D01*
X129396442Y-66934482D01*
X129330260Y-66941000D01*
X129241740Y-66941000D01*
X129175558Y-66934482D01*
X129109373Y-66927963D01*
X128939534Y-66876443D01*
X128927909Y-66870229D01*
X128805813Y-66804967D01*
X128783009Y-66792778D01*
X128730454Y-66749647D01*
X128645814Y-66680186D01*
X128562552Y-66578729D01*
X128533222Y-66542991D01*
X128449557Y-66386466D01*
X128398037Y-66216627D01*
X128380641Y-66040000D01*
X128398037Y-65863373D01*
X128449557Y-65693534D01*
X128533222Y-65537009D01*
X128579319Y-65480840D01*
X128645814Y-65399814D01*
X128749893Y-65314400D01*
X128783009Y-65287222D01*
X128939534Y-65203557D01*
X129109373Y-65152037D01*
X129175558Y-65145518D01*
X129241740Y-65139000D01*
X129330260Y-65139000D01*
X129396442Y-65145518D01*
X129396442Y-65145518D01*
G37*
G36*
X123527877Y-65315957D02*
G01*
X123537176Y-65318778D01*
X123545754Y-65323363D01*
X123553269Y-65329531D01*
X123559437Y-65337046D01*
X123564022Y-65345624D01*
X123566843Y-65354923D01*
X123568400Y-65370737D01*
X123568400Y-66760063D01*
X123566843Y-66775877D01*
X123564022Y-66785176D01*
X123559437Y-66793754D01*
X123553269Y-66801269D01*
X123545754Y-66807437D01*
X123537176Y-66812022D01*
X123527877Y-66814843D01*
X123512063Y-66816400D01*
X121722737Y-66816400D01*
X121706923Y-66814843D01*
X121697624Y-66812022D01*
X121689046Y-66807437D01*
X121681531Y-66801269D01*
X121675363Y-66793754D01*
X121670778Y-66785176D01*
X121667957Y-66775877D01*
X121666400Y-66760063D01*
X121666400Y-65370737D01*
X121667957Y-65354923D01*
X121670778Y-65345624D01*
X121675363Y-65337046D01*
X121681531Y-65329531D01*
X121689046Y-65323363D01*
X121697624Y-65318778D01*
X121706923Y-65315957D01*
X121722737Y-65314400D01*
X123512063Y-65314400D01*
X123527877Y-65315957D01*
X123527877Y-65315957D01*
G37*
G36*
X127427877Y-65315957D02*
G01*
X127437176Y-65318778D01*
X127445754Y-65323363D01*
X127453269Y-65329531D01*
X127459437Y-65337046D01*
X127464022Y-65345624D01*
X127466843Y-65354923D01*
X127468400Y-65370737D01*
X127468400Y-66760063D01*
X127466843Y-66775877D01*
X127464022Y-66785176D01*
X127459437Y-66793754D01*
X127453269Y-66801269D01*
X127445754Y-66807437D01*
X127437176Y-66812022D01*
X127427877Y-66814843D01*
X127412063Y-66816400D01*
X125622737Y-66816400D01*
X125606923Y-66814843D01*
X125597624Y-66812022D01*
X125589046Y-66807437D01*
X125581531Y-66801269D01*
X125575363Y-66793754D01*
X125570778Y-66785176D01*
X125567957Y-66775877D01*
X125566400Y-66760063D01*
X125566400Y-65370737D01*
X125567957Y-65354923D01*
X125570778Y-65345624D01*
X125575363Y-65337046D01*
X125581531Y-65329531D01*
X125589046Y-65323363D01*
X125597624Y-65318778D01*
X125606923Y-65315957D01*
X125622737Y-65314400D01*
X127412063Y-65314400D01*
X127427877Y-65315957D01*
X127427877Y-65315957D01*
G37*
G36*
X110325438Y-65366916D02*
G01*
X110346057Y-65373171D01*
X110365053Y-65383324D01*
X110381708Y-65396992D01*
X110395376Y-65413647D01*
X110405529Y-65432643D01*
X110411784Y-65453262D01*
X110414500Y-65480840D01*
X110414500Y-65989560D01*
X110411784Y-66017138D01*
X110405529Y-66037757D01*
X110395376Y-66056753D01*
X110381708Y-66073408D01*
X110365053Y-66087076D01*
X110346057Y-66097229D01*
X110325438Y-66103484D01*
X110297860Y-66106200D01*
X109839140Y-66106200D01*
X109811562Y-66103484D01*
X109790943Y-66097229D01*
X109771947Y-66087076D01*
X109755292Y-66073408D01*
X109741624Y-66056753D01*
X109731471Y-66037757D01*
X109725216Y-66017138D01*
X109722500Y-65989560D01*
X109722500Y-65480840D01*
X109725216Y-65453262D01*
X109731471Y-65432643D01*
X109741624Y-65413647D01*
X109755292Y-65396992D01*
X109771947Y-65383324D01*
X109790943Y-65373171D01*
X109811562Y-65366916D01*
X109839140Y-65364200D01*
X110297860Y-65364200D01*
X110325438Y-65366916D01*
X110325438Y-65366916D01*
G37*
G36*
X111295438Y-65366916D02*
G01*
X111316057Y-65373171D01*
X111335053Y-65383324D01*
X111351708Y-65396992D01*
X111365376Y-65413647D01*
X111375529Y-65432643D01*
X111381784Y-65453262D01*
X111384500Y-65480840D01*
X111384500Y-65989560D01*
X111381784Y-66017138D01*
X111375529Y-66037757D01*
X111365376Y-66056753D01*
X111351708Y-66073408D01*
X111335053Y-66087076D01*
X111316057Y-66097229D01*
X111295438Y-66103484D01*
X111267860Y-66106200D01*
X110809140Y-66106200D01*
X110781562Y-66103484D01*
X110760943Y-66097229D01*
X110741947Y-66087076D01*
X110725292Y-66073408D01*
X110711624Y-66056753D01*
X110701471Y-66037757D01*
X110695216Y-66017138D01*
X110692500Y-65989560D01*
X110692500Y-65480840D01*
X110695216Y-65453262D01*
X110701471Y-65432643D01*
X110711624Y-65413647D01*
X110725292Y-65396992D01*
X110741947Y-65383324D01*
X110760943Y-65373171D01*
X110781562Y-65366916D01*
X110809140Y-65364200D01*
X111267860Y-65364200D01*
X111295438Y-65366916D01*
X111295438Y-65366916D01*
G37*
G36*
X111295438Y-64312816D02*
G01*
X111316057Y-64319071D01*
X111335053Y-64329224D01*
X111351708Y-64342892D01*
X111365376Y-64359547D01*
X111375529Y-64378543D01*
X111381784Y-64399162D01*
X111384500Y-64426740D01*
X111384500Y-64935460D01*
X111381784Y-64963038D01*
X111375529Y-64983657D01*
X111365376Y-65002653D01*
X111351708Y-65019308D01*
X111335053Y-65032976D01*
X111316057Y-65043129D01*
X111295438Y-65049384D01*
X111267860Y-65052100D01*
X110809140Y-65052100D01*
X110781562Y-65049384D01*
X110760943Y-65043129D01*
X110741947Y-65032976D01*
X110725292Y-65019308D01*
X110711624Y-65002653D01*
X110701471Y-64983657D01*
X110695216Y-64963038D01*
X110692500Y-64935460D01*
X110692500Y-64426740D01*
X110695216Y-64399162D01*
X110701471Y-64378543D01*
X110711624Y-64359547D01*
X110725292Y-64342892D01*
X110741947Y-64329224D01*
X110760943Y-64319071D01*
X110781562Y-64312816D01*
X110809140Y-64310100D01*
X111267860Y-64310100D01*
X111295438Y-64312816D01*
X111295438Y-64312816D01*
G37*
G36*
X110325438Y-64312816D02*
G01*
X110346057Y-64319071D01*
X110365053Y-64329224D01*
X110381708Y-64342892D01*
X110395376Y-64359547D01*
X110405529Y-64378543D01*
X110411784Y-64399162D01*
X110414500Y-64426740D01*
X110414500Y-64935460D01*
X110411784Y-64963038D01*
X110405529Y-64983657D01*
X110395376Y-65002653D01*
X110381708Y-65019308D01*
X110365053Y-65032976D01*
X110346057Y-65043129D01*
X110325438Y-65049384D01*
X110297860Y-65052100D01*
X109839140Y-65052100D01*
X109811562Y-65049384D01*
X109790943Y-65043129D01*
X109771947Y-65032976D01*
X109755292Y-65019308D01*
X109741624Y-65002653D01*
X109731471Y-64983657D01*
X109725216Y-64963038D01*
X109722500Y-64935460D01*
X109722500Y-64426740D01*
X109725216Y-64399162D01*
X109731471Y-64378543D01*
X109741624Y-64359547D01*
X109755292Y-64342892D01*
X109771947Y-64329224D01*
X109790943Y-64319071D01*
X109811562Y-64312816D01*
X109839140Y-64310100D01*
X110297860Y-64310100D01*
X110325438Y-64312816D01*
X110325438Y-64312816D01*
G37*
G36*
X129396442Y-62605518D02*
G01*
X129462627Y-62612037D01*
X129632466Y-62663557D01*
X129788991Y-62747222D01*
X129824729Y-62776552D01*
X129926186Y-62859814D01*
X130005084Y-62955953D01*
X130038778Y-62997009D01*
X130122443Y-63153534D01*
X130173963Y-63323373D01*
X130191359Y-63500000D01*
X130173963Y-63676627D01*
X130122443Y-63846466D01*
X130038778Y-64002991D01*
X130013526Y-64033760D01*
X129926186Y-64140186D01*
X129824729Y-64223448D01*
X129788991Y-64252778D01*
X129788989Y-64252779D01*
X129664967Y-64319071D01*
X129632466Y-64336443D01*
X129462627Y-64387963D01*
X129396442Y-64394482D01*
X129330260Y-64401000D01*
X129241740Y-64401000D01*
X129175558Y-64394482D01*
X129109373Y-64387963D01*
X128939534Y-64336443D01*
X128907034Y-64319071D01*
X128783011Y-64252779D01*
X128783009Y-64252778D01*
X128747271Y-64223448D01*
X128645814Y-64140186D01*
X128558474Y-64033760D01*
X128533222Y-64002991D01*
X128449557Y-63846466D01*
X128398037Y-63676627D01*
X128380641Y-63500000D01*
X128398037Y-63323373D01*
X128449557Y-63153534D01*
X128533222Y-62997009D01*
X128566916Y-62955953D01*
X128645814Y-62859814D01*
X128747271Y-62776552D01*
X128783009Y-62747222D01*
X128939534Y-62663557D01*
X129109373Y-62612037D01*
X129175558Y-62605518D01*
X129241740Y-62599000D01*
X129330260Y-62599000D01*
X129396442Y-62605518D01*
X129396442Y-62605518D01*
G37*
G36*
X104025000Y-64401000D02*
G01*
X102223000Y-64401000D01*
X102223000Y-62599000D01*
X104025000Y-62599000D01*
X104025000Y-64401000D01*
X104025000Y-64401000D01*
G37*
G36*
X125468638Y-63411116D02*
G01*
X125489257Y-63417371D01*
X125508253Y-63427524D01*
X125524908Y-63441192D01*
X125538576Y-63457847D01*
X125548729Y-63476843D01*
X125554984Y-63497462D01*
X125557700Y-63525040D01*
X125557700Y-64033760D01*
X125554984Y-64061338D01*
X125548729Y-64081957D01*
X125538576Y-64100953D01*
X125524908Y-64117608D01*
X125508253Y-64131276D01*
X125489257Y-64141429D01*
X125468638Y-64147684D01*
X125441060Y-64150400D01*
X124982340Y-64150400D01*
X124954762Y-64147684D01*
X124934143Y-64141429D01*
X124915147Y-64131276D01*
X124898492Y-64117608D01*
X124884824Y-64100953D01*
X124874671Y-64081957D01*
X124868416Y-64061338D01*
X124865700Y-64033760D01*
X124865700Y-63525040D01*
X124868416Y-63497462D01*
X124874671Y-63476843D01*
X124884824Y-63457847D01*
X124898492Y-63441192D01*
X124915147Y-63427524D01*
X124934143Y-63417371D01*
X124954762Y-63411116D01*
X124982340Y-63408400D01*
X125441060Y-63408400D01*
X125468638Y-63411116D01*
X125468638Y-63411116D01*
G37*
G36*
X124498638Y-63411116D02*
G01*
X124519257Y-63417371D01*
X124538253Y-63427524D01*
X124554908Y-63441192D01*
X124568576Y-63457847D01*
X124578729Y-63476843D01*
X124584984Y-63497462D01*
X124587700Y-63525040D01*
X124587700Y-64033760D01*
X124584984Y-64061338D01*
X124578729Y-64081957D01*
X124568576Y-64100953D01*
X124554908Y-64117608D01*
X124538253Y-64131276D01*
X124519257Y-64141429D01*
X124498638Y-64147684D01*
X124471060Y-64150400D01*
X124012340Y-64150400D01*
X123984762Y-64147684D01*
X123964143Y-64141429D01*
X123945147Y-64131276D01*
X123928492Y-64117608D01*
X123914824Y-64100953D01*
X123904671Y-64081957D01*
X123898416Y-64061338D01*
X123895700Y-64033760D01*
X123895700Y-63525040D01*
X123898416Y-63497462D01*
X123904671Y-63476843D01*
X123914824Y-63457847D01*
X123928492Y-63441192D01*
X123945147Y-63427524D01*
X123964143Y-63417371D01*
X123984762Y-63411116D01*
X124012340Y-63408400D01*
X124471060Y-63408400D01*
X124498638Y-63411116D01*
X124498638Y-63411116D01*
G37*
G36*
X116103938Y-63284116D02*
G01*
X116124557Y-63290371D01*
X116143553Y-63300524D01*
X116160208Y-63314192D01*
X116173876Y-63330847D01*
X116184029Y-63349843D01*
X116190284Y-63370462D01*
X116193000Y-63398040D01*
X116193000Y-63906760D01*
X116190284Y-63934338D01*
X116184029Y-63954957D01*
X116173876Y-63973953D01*
X116160208Y-63990608D01*
X116143553Y-64004276D01*
X116124557Y-64014429D01*
X116103938Y-64020684D01*
X116076360Y-64023400D01*
X115617640Y-64023400D01*
X115590062Y-64020684D01*
X115569443Y-64014429D01*
X115550447Y-64004276D01*
X115533792Y-63990608D01*
X115520124Y-63973953D01*
X115509971Y-63954957D01*
X115503716Y-63934338D01*
X115501000Y-63906760D01*
X115501000Y-63398040D01*
X115503716Y-63370462D01*
X115509971Y-63349843D01*
X115520124Y-63330847D01*
X115533792Y-63314192D01*
X115550447Y-63300524D01*
X115569443Y-63290371D01*
X115590062Y-63284116D01*
X115617640Y-63281400D01*
X116076360Y-63281400D01*
X116103938Y-63284116D01*
X116103938Y-63284116D01*
G37*
G36*
X117073938Y-63284116D02*
G01*
X117094557Y-63290371D01*
X117113553Y-63300524D01*
X117130208Y-63314192D01*
X117143876Y-63330847D01*
X117154029Y-63349843D01*
X117160284Y-63370462D01*
X117163000Y-63398040D01*
X117163000Y-63906760D01*
X117160284Y-63934338D01*
X117154029Y-63954957D01*
X117143876Y-63973953D01*
X117130208Y-63990608D01*
X117113553Y-64004276D01*
X117094557Y-64014429D01*
X117073938Y-64020684D01*
X117046360Y-64023400D01*
X116587640Y-64023400D01*
X116560062Y-64020684D01*
X116539443Y-64014429D01*
X116520447Y-64004276D01*
X116503792Y-63990608D01*
X116490124Y-63973953D01*
X116479971Y-63954957D01*
X116473716Y-63934338D01*
X116471000Y-63906760D01*
X116471000Y-63398040D01*
X116473716Y-63370462D01*
X116479971Y-63349843D01*
X116490124Y-63330847D01*
X116503792Y-63314192D01*
X116520447Y-63300524D01*
X116539443Y-63290371D01*
X116560062Y-63284116D01*
X116587640Y-63281400D01*
X117046360Y-63281400D01*
X117073938Y-63284116D01*
X117073938Y-63284116D01*
G37*
G36*
X113667538Y-63311516D02*
G01*
X113688157Y-63317771D01*
X113707153Y-63327924D01*
X113723808Y-63341592D01*
X113737476Y-63358247D01*
X113747629Y-63377243D01*
X113753884Y-63397862D01*
X113756600Y-63425440D01*
X113756600Y-63884160D01*
X113753884Y-63911738D01*
X113747629Y-63932357D01*
X113737476Y-63951353D01*
X113723808Y-63968008D01*
X113707153Y-63981676D01*
X113688157Y-63991829D01*
X113667538Y-63998084D01*
X113639960Y-64000800D01*
X113131240Y-64000800D01*
X113103662Y-63998084D01*
X113083043Y-63991829D01*
X113064047Y-63981676D01*
X113047392Y-63968008D01*
X113033724Y-63951353D01*
X113023571Y-63932357D01*
X113017316Y-63911738D01*
X113014600Y-63884160D01*
X113014600Y-63425440D01*
X113017316Y-63397862D01*
X113023571Y-63377243D01*
X113033724Y-63358247D01*
X113047392Y-63341592D01*
X113064047Y-63327924D01*
X113083043Y-63317771D01*
X113103662Y-63311516D01*
X113131240Y-63308800D01*
X113639960Y-63308800D01*
X113667538Y-63311516D01*
X113667538Y-63311516D01*
G37*
G36*
X114861338Y-63311516D02*
G01*
X114881957Y-63317771D01*
X114900953Y-63327924D01*
X114917608Y-63341592D01*
X114931276Y-63358247D01*
X114941429Y-63377243D01*
X114947684Y-63397862D01*
X114950400Y-63425440D01*
X114950400Y-63884160D01*
X114947684Y-63911738D01*
X114941429Y-63932357D01*
X114931276Y-63951353D01*
X114917608Y-63968008D01*
X114900953Y-63981676D01*
X114881957Y-63991829D01*
X114861338Y-63998084D01*
X114833760Y-64000800D01*
X114325040Y-64000800D01*
X114297462Y-63998084D01*
X114276843Y-63991829D01*
X114257847Y-63981676D01*
X114241192Y-63968008D01*
X114227524Y-63951353D01*
X114217371Y-63932357D01*
X114211116Y-63911738D01*
X114208400Y-63884160D01*
X114208400Y-63425440D01*
X114211116Y-63397862D01*
X114217371Y-63377243D01*
X114227524Y-63358247D01*
X114241192Y-63341592D01*
X114257847Y-63327924D01*
X114276843Y-63317771D01*
X114297462Y-63311516D01*
X114325040Y-63308800D01*
X114833760Y-63308800D01*
X114861338Y-63311516D01*
X114861338Y-63311516D01*
G37*
G36*
X111719600Y-63977100D02*
G01*
X109717600Y-63977100D01*
X109717600Y-62975100D01*
X111719600Y-62975100D01*
X111719600Y-63977100D01*
X111719600Y-63977100D01*
G37*
G36*
X118188738Y-63286116D02*
G01*
X118209357Y-63292371D01*
X118228353Y-63302524D01*
X118245008Y-63316192D01*
X118258676Y-63332847D01*
X118268829Y-63351843D01*
X118275084Y-63372462D01*
X118277800Y-63400040D01*
X118277800Y-63858760D01*
X118275084Y-63886338D01*
X118268829Y-63906957D01*
X118258676Y-63925953D01*
X118245008Y-63942608D01*
X118228353Y-63956276D01*
X118209357Y-63966429D01*
X118188738Y-63972684D01*
X118161160Y-63975400D01*
X117652440Y-63975400D01*
X117624862Y-63972684D01*
X117604243Y-63966429D01*
X117585247Y-63956276D01*
X117568592Y-63942608D01*
X117554924Y-63925953D01*
X117544771Y-63906957D01*
X117538516Y-63886338D01*
X117535800Y-63858760D01*
X117535800Y-63400040D01*
X117538516Y-63372462D01*
X117544771Y-63351843D01*
X117554924Y-63332847D01*
X117568592Y-63316192D01*
X117585247Y-63302524D01*
X117604243Y-63292371D01*
X117624862Y-63286116D01*
X117652440Y-63283400D01*
X118161160Y-63283400D01*
X118188738Y-63286116D01*
X118188738Y-63286116D01*
G37*
G36*
X113667538Y-62341516D02*
G01*
X113688157Y-62347771D01*
X113707153Y-62357924D01*
X113723808Y-62371592D01*
X113737476Y-62388247D01*
X113747629Y-62407243D01*
X113753884Y-62427862D01*
X113756600Y-62455440D01*
X113756600Y-62914160D01*
X113753884Y-62941738D01*
X113747629Y-62962357D01*
X113737476Y-62981353D01*
X113723808Y-62998008D01*
X113707153Y-63011676D01*
X113688157Y-63021829D01*
X113667538Y-63028084D01*
X113639960Y-63030800D01*
X113131240Y-63030800D01*
X113103662Y-63028084D01*
X113083043Y-63021829D01*
X113064047Y-63011676D01*
X113047392Y-62998008D01*
X113033724Y-62981353D01*
X113023571Y-62962357D01*
X113017316Y-62941738D01*
X113014600Y-62914160D01*
X113014600Y-62455440D01*
X113017316Y-62427862D01*
X113023571Y-62407243D01*
X113033724Y-62388247D01*
X113047392Y-62371592D01*
X113064047Y-62357924D01*
X113083043Y-62347771D01*
X113103662Y-62341516D01*
X113131240Y-62338800D01*
X113639960Y-62338800D01*
X113667538Y-62341516D01*
X113667538Y-62341516D01*
G37*
G36*
X114861338Y-62341516D02*
G01*
X114881957Y-62347771D01*
X114900953Y-62357924D01*
X114917608Y-62371592D01*
X114931276Y-62388247D01*
X114941429Y-62407243D01*
X114947684Y-62427862D01*
X114950400Y-62455440D01*
X114950400Y-62914160D01*
X114947684Y-62941738D01*
X114941429Y-62962357D01*
X114931276Y-62981353D01*
X114917608Y-62998008D01*
X114900953Y-63011676D01*
X114881957Y-63021829D01*
X114861338Y-63028084D01*
X114833760Y-63030800D01*
X114325040Y-63030800D01*
X114297462Y-63028084D01*
X114276843Y-63021829D01*
X114257847Y-63011676D01*
X114241192Y-62998008D01*
X114227524Y-62981353D01*
X114217371Y-62962357D01*
X114211116Y-62941738D01*
X114208400Y-62914160D01*
X114208400Y-62455440D01*
X114211116Y-62427862D01*
X114217371Y-62407243D01*
X114227524Y-62388247D01*
X114241192Y-62371592D01*
X114257847Y-62357924D01*
X114276843Y-62347771D01*
X114297462Y-62341516D01*
X114325040Y-62338800D01*
X114833760Y-62338800D01*
X114861338Y-62341516D01*
X114861338Y-62341516D01*
G37*
G36*
X118188738Y-62316116D02*
G01*
X118209357Y-62322371D01*
X118228353Y-62332524D01*
X118245008Y-62346192D01*
X118258676Y-62362847D01*
X118268829Y-62381843D01*
X118275084Y-62402462D01*
X118277800Y-62430040D01*
X118277800Y-62888760D01*
X118275084Y-62916338D01*
X118268829Y-62936957D01*
X118258676Y-62955953D01*
X118245008Y-62972608D01*
X118228353Y-62986276D01*
X118209357Y-62996429D01*
X118188738Y-63002684D01*
X118161160Y-63005400D01*
X117652440Y-63005400D01*
X117624862Y-63002684D01*
X117604243Y-62996429D01*
X117585247Y-62986276D01*
X117568592Y-62972608D01*
X117554924Y-62955953D01*
X117544771Y-62936957D01*
X117538516Y-62916338D01*
X117535800Y-62888760D01*
X117535800Y-62430040D01*
X117538516Y-62402462D01*
X117544771Y-62381843D01*
X117554924Y-62362847D01*
X117568592Y-62346192D01*
X117585247Y-62332524D01*
X117604243Y-62322371D01*
X117624862Y-62316116D01*
X117652440Y-62313400D01*
X118161160Y-62313400D01*
X118188738Y-62316116D01*
X118188738Y-62316116D01*
G37*
G36*
X111719600Y-62577100D02*
G01*
X109717600Y-62577100D01*
X109717600Y-61575100D01*
X111719600Y-61575100D01*
X111719600Y-62577100D01*
X111719600Y-62577100D01*
G37*
G36*
X118207800Y-61527600D02*
G01*
X117605800Y-61527600D01*
X117605800Y-60845600D01*
X118207800Y-60845600D01*
X118207800Y-61527600D01*
X118207800Y-61527600D01*
G37*
G36*
X119357800Y-61347600D02*
G01*
X118505800Y-61347600D01*
X118505800Y-60445600D01*
X119357800Y-60445600D01*
X119357800Y-61347600D01*
X119357800Y-61347600D01*
G37*
G36*
X117307800Y-61347600D02*
G01*
X116455800Y-61347600D01*
X116455800Y-60445600D01*
X117307800Y-60445600D01*
X117307800Y-61347600D01*
X117307800Y-61347600D01*
G37*
G36*
X111295438Y-60439316D02*
G01*
X111316057Y-60445571D01*
X111335053Y-60455724D01*
X111351708Y-60469392D01*
X111365376Y-60486047D01*
X111375529Y-60505043D01*
X111381784Y-60525662D01*
X111384500Y-60553240D01*
X111384500Y-61061960D01*
X111381784Y-61089538D01*
X111375529Y-61110157D01*
X111365376Y-61129153D01*
X111351708Y-61145808D01*
X111335053Y-61159476D01*
X111316057Y-61169629D01*
X111295438Y-61175884D01*
X111267860Y-61178600D01*
X110809140Y-61178600D01*
X110781562Y-61175884D01*
X110760943Y-61169629D01*
X110741947Y-61159476D01*
X110725292Y-61145808D01*
X110711624Y-61129153D01*
X110701471Y-61110157D01*
X110695216Y-61089538D01*
X110692500Y-61061960D01*
X110692500Y-60553240D01*
X110695216Y-60525662D01*
X110701471Y-60505043D01*
X110711624Y-60486047D01*
X110725292Y-60469392D01*
X110741947Y-60455724D01*
X110760943Y-60445571D01*
X110781562Y-60439316D01*
X110809140Y-60436600D01*
X111267860Y-60436600D01*
X111295438Y-60439316D01*
X111295438Y-60439316D01*
G37*
G36*
X110325438Y-60439316D02*
G01*
X110346057Y-60445571D01*
X110365053Y-60455724D01*
X110381708Y-60469392D01*
X110395376Y-60486047D01*
X110405529Y-60505043D01*
X110411784Y-60525662D01*
X110414500Y-60553240D01*
X110414500Y-61061960D01*
X110411784Y-61089538D01*
X110405529Y-61110157D01*
X110395376Y-61129153D01*
X110381708Y-61145808D01*
X110365053Y-61159476D01*
X110346057Y-61169629D01*
X110325438Y-61175884D01*
X110297860Y-61178600D01*
X109839140Y-61178600D01*
X109811562Y-61175884D01*
X109790943Y-61169629D01*
X109771947Y-61159476D01*
X109755292Y-61145808D01*
X109741624Y-61129153D01*
X109731471Y-61110157D01*
X109725216Y-61089538D01*
X109722500Y-61061960D01*
X109722500Y-60553240D01*
X109725216Y-60525662D01*
X109731471Y-60505043D01*
X109741624Y-60486047D01*
X109755292Y-60469392D01*
X109771947Y-60455724D01*
X109790943Y-60445571D01*
X109811562Y-60439316D01*
X109839140Y-60436600D01*
X110297860Y-60436600D01*
X110325438Y-60439316D01*
X110325438Y-60439316D01*
G37*
G36*
X119357800Y-59607600D02*
G01*
X118505800Y-59607600D01*
X118505800Y-58705600D01*
X119357800Y-58705600D01*
X119357800Y-59607600D01*
X119357800Y-59607600D01*
G37*
G36*
X117307800Y-59607600D02*
G01*
X116455800Y-59607600D01*
X116455800Y-58705600D01*
X117307800Y-58705600D01*
X117307800Y-59607600D01*
X117307800Y-59607600D01*
G37*
G36*
X118207800Y-59207600D02*
G01*
X117605800Y-59207600D01*
X117605800Y-58525600D01*
X118207800Y-58525600D01*
X118207800Y-59207600D01*
X118207800Y-59207600D01*
G37*
M02*
