M48
; DRILL file {KiCad (5.1.4)-1} date 9/18/2020 12:52:14 PM
; FORMAT={-:-/ absolute / metric / decimal}
; #@! TF.CreationDate,2020-09-18T12:52:14-04:00
; #@! TF.GenerationSoftware,Kicad,Pcbnew,(5.1.4)-1
FMAT,2
METRIC
T1C0.200
T2C1.000
%
G90
G05
T1
X102.095Y-91.529
X102.108Y-61.468
X105.156Y-59.182
X105.156Y-62.738
X105.156Y-86.106
X105.156Y-89.662
X105.41Y-64.516
X105.664Y-103.911
X106.462Y-67.843
X106.604Y-101.143
X106.934Y-64.008
X107.366Y-71.171
X107.696Y-61.468
X107.696Y-74.676
X107.696Y-77.216
X107.696Y-80.772
X107.696Y-84.328
X107.696Y-87.884
X107.696Y-91.44
X107.696Y-95.504
X107.696Y-98.552
X107.696Y-101.6
X108.712Y-63.5
X109.22Y-73.152
X109.286Y-65.748
X109.291Y-64.582
X110.236Y-59.182
X110.236Y-75.438
X110.236Y-78.994
X110.236Y-82.55
X110.236Y-89.662
X110.236Y-93.218
X110.236Y-96.774
X110.236Y-99.568
X110.706Y-104.508
X111.328Y-80.01
X111.328Y-86.411
X111.811Y-74.092
X111.836Y-65.735
X111.849Y-60.82
X112.014Y-66.345
X112.522Y-100.584
X112.522Y-103.124
X113.01Y-69.479
X113.121Y-66.758
X113.164Y-78.588
X113.284Y-61.722
X113.594Y-79.812
X113.849Y-79.07
X113.906Y-90.678
X114.259Y-75.91
X114.264Y-72.801
X114.554Y-61.722
X114.681Y-81.026
X114.889Y-75.921
X115.316Y-59.182
X115.316Y-60.96
X115.43Y-83.883
X115.824Y-103.845
X116.002Y-81.61
X116.23Y-87.668
X116.764Y-76.81
X117.043Y-91.415
X117.45Y-83.134
X117.551Y-80.937
X117.856Y-77.14
X118.186Y-91.224
X118.288Y-79.604
X119.355Y-87.655
X119.469Y-77.927
X119.482Y-78.892
X119.685Y-103.866
X120.396Y-59.182
X120.396Y-60.96
X120.904Y-102.87
X120.904Y-104.648
X121.031Y-80.061
X121.031Y-86.411
X121.158Y-93.599
X121.298Y-62.573
X121.412Y-96.012
X121.412Y-98.552
X121.425Y-91.224
X121.73Y-63.088
X122.011Y-63.779
X122.154Y-67.554
X122.159Y-64.364
X122.342Y-68.468
X122.387Y-64.983
X122.504Y-70.968
X122.593Y-70.015
X122.936Y-61.468
X123.952Y-80.264
X123.952Y-84.328
X123.952Y-88.392
X123.952Y-93.472
X123.952Y-97.028
X123.952Y-103.221
X123.952Y-104.648
X125.031Y-102.21
X125.171Y-66.053
X125.463Y-101.003
X125.476Y-59.182
X125.476Y-62.738
X125.476Y-69.85
X125.92Y-63.792
X126.238Y-104.457
X126.454Y-99.949
X127.203Y-90.805
X127.762Y-103.632
X128.524Y-61.468
X128.524Y-87.884
X128.524Y-90.932
X128.524Y-99.06
X128.524Y-102.108
X128.524Y-104.648
X115.053Y-66.78
X115.053Y-67.98
X115.053Y-69.18
X115.053Y-70.38
X116.253Y-66.78
X116.253Y-67.98
X116.253Y-69.18
X116.253Y-70.38
X117.453Y-66.78
X117.453Y-67.98
X117.453Y-69.18
X117.453Y-70.38
X118.653Y-66.78
X118.653Y-67.98
X118.653Y-69.18
X118.653Y-70.38
T2
X103.124Y-63.5
X103.124Y-66.04
X103.124Y-68.58
X103.124Y-71.12
X103.124Y-73.66
X103.124Y-76.2
X103.124Y-78.74
X103.124Y-81.28
X103.124Y-83.82
X103.124Y-86.36
X129.286Y-63.5
X129.286Y-66.04
X129.286Y-68.58
X129.286Y-71.12
X129.286Y-73.66
X129.286Y-76.2
X129.286Y-78.74
X129.286Y-81.28
X129.286Y-83.82
X129.286Y-86.36
T0
M30
