G04 #@! TF.GenerationSoftware,KiCad,Pcbnew,(5.1.4)-1*
G04 #@! TF.CreationDate,2020-09-18T13:05:13-04:00*
G04 #@! TF.ProjectId,nRF52832_DEMO_V01,6e524635-3238-4333-925f-44454d4f5f56,rev?*
G04 #@! TF.SameCoordinates,Original*
G04 #@! TF.FileFunction,Copper,L2,Inr*
G04 #@! TF.FilePolarity,Positive*
%FSLAX46Y46*%
G04 Gerber Fmt 4.6, Leading zero omitted, Abs format (unit mm)*
G04 Created by KiCad (PCBNEW (5.1.4)-1) date 2020-09-18 13:05:13*
%MOMM*%
%LPD*%
G04 APERTURE LIST*
%ADD10O,1.700000X1.700000*%
%ADD11R,1.700000X1.700000*%
%ADD12C,0.500000*%
%ADD13C,0.450000*%
%ADD14C,0.200000*%
G04 APERTURE END LIST*
D10*
X129286000Y-63500000D03*
X129286000Y-66040000D03*
X129286000Y-68580000D03*
X129286000Y-71120000D03*
X129286000Y-73660000D03*
X129286000Y-76200000D03*
X129286000Y-78740000D03*
X129286000Y-81280000D03*
X129286000Y-83820000D03*
D11*
X129286000Y-86360000D03*
X103124000Y-63500000D03*
D10*
X103124000Y-66040000D03*
X103124000Y-68580000D03*
X103124000Y-71120000D03*
X103124000Y-73660000D03*
X103124000Y-76200000D03*
X103124000Y-78740000D03*
X103124000Y-81280000D03*
X103124000Y-83820000D03*
X103124000Y-86360000D03*
D12*
X115052700Y-70380000D03*
X115052700Y-69180000D03*
X115052700Y-67980000D03*
X115052700Y-66780000D03*
X116252700Y-70380000D03*
X116252700Y-69180000D03*
X116252700Y-67980000D03*
X116252700Y-66780000D03*
X117452700Y-70380000D03*
X117452700Y-69180000D03*
X117452700Y-67980000D03*
X117452700Y-66780000D03*
X118652700Y-70380000D03*
X118652700Y-69180000D03*
X118652700Y-67980000D03*
X118652700Y-66780000D03*
D13*
X115824000Y-103845360D03*
X119684800Y-103865680D03*
X106603800Y-101142800D03*
X114264440Y-72801480D03*
X117043200Y-91414600D03*
X118186200Y-91224100D03*
X121424700Y-91224100D03*
X126238000Y-104457500D03*
X119468900Y-77927200D03*
X111328200Y-80010000D03*
X121031000Y-80060800D03*
X121031000Y-86410800D03*
X111328200Y-86410800D03*
X107365800Y-71170800D03*
X125171200Y-66052700D03*
X109286040Y-65747900D03*
X106461560Y-67843400D03*
X113906300Y-90678000D03*
X116230400Y-87668100D03*
X119354600Y-87655400D03*
X120396000Y-60960000D03*
X120396000Y-59182000D03*
X115316000Y-59182000D03*
X115316000Y-60960000D03*
X125476000Y-59182000D03*
X113284000Y-61722000D03*
X114554000Y-61722000D03*
X125476000Y-62738000D03*
X105156000Y-62738000D03*
X121158000Y-93599000D03*
X109220000Y-73152000D03*
X105156000Y-86106000D03*
X105156000Y-89662000D03*
X105664000Y-103911400D03*
X110236000Y-75438000D03*
X110236000Y-78994000D03*
X110236000Y-82550000D03*
X105156000Y-59182000D03*
X110236000Y-59182000D03*
X125476000Y-69850000D03*
X110236000Y-89662000D03*
X110236000Y-93218000D03*
X110236000Y-96774000D03*
X110236000Y-99568000D03*
X102108000Y-61468000D03*
X107696000Y-61468000D03*
X122936000Y-61468000D03*
X128524000Y-61468000D03*
X128524000Y-87884000D03*
X128524000Y-90932000D03*
X128524000Y-99060000D03*
X128524000Y-104648000D03*
X123952000Y-80264000D03*
X123952000Y-84328000D03*
X123952000Y-88392000D03*
X107696000Y-95504000D03*
X107696000Y-91440000D03*
X107696000Y-87884000D03*
X107696000Y-84328000D03*
X107696000Y-80772000D03*
X107696000Y-77216000D03*
X107696000Y-74676000D03*
X107696000Y-98552000D03*
X107696000Y-101600000D03*
X128524000Y-102108000D03*
X123952000Y-93472000D03*
X123952000Y-97028000D03*
X123952000Y-104648000D03*
X120904000Y-104648000D03*
X121412000Y-96012000D03*
X121412000Y-98552000D03*
X112522000Y-100584000D03*
X112522000Y-103124000D03*
X120904000Y-102870000D03*
X102095300Y-91528900D03*
X115430300Y-83883498D03*
X122593100Y-70015100D03*
X111848900Y-60820300D03*
X109291120Y-64582040D03*
X113009680Y-69479160D03*
X113593880Y-79811880D03*
X114259360Y-75910440D03*
X114889280Y-75920600D03*
X127762000Y-103632000D03*
X119481600Y-78892400D03*
X111810800Y-74091800D03*
X122504200Y-70967600D03*
X110705900Y-104508300D03*
X125920500Y-63792100D03*
X117449600Y-83134200D03*
X127203200Y-90805000D03*
X111836200Y-65735200D03*
X122158760Y-64363600D03*
X123952000Y-103220520D03*
X122387360Y-64983360D03*
X125031500Y-102209600D03*
X125463300Y-101003100D03*
X122341640Y-68468240D03*
X126453900Y-99949000D03*
X122153680Y-67553840D03*
X105410000Y-64516000D03*
X122011440Y-63779400D03*
X118287800Y-79603600D03*
X106934000Y-64008000D03*
X121729500Y-63088317D03*
X108712000Y-63500000D03*
X116001800Y-81610200D03*
X121297700Y-62572900D03*
X113848797Y-79069910D03*
X112014000Y-66344800D03*
X116763800Y-76809600D03*
X113121440Y-66757990D03*
X117551200Y-80937100D03*
X114681000Y-81026000D03*
X113164190Y-78587600D03*
X117856000Y-77139800D03*
D14*
G36*
X130485000Y-105339000D02*
G01*
X101925000Y-105339000D01*
X101925000Y-104456592D01*
X110180900Y-104456592D01*
X110180900Y-104560008D01*
X110201076Y-104661437D01*
X110240651Y-104756981D01*
X110298106Y-104842968D01*
X110371232Y-104916094D01*
X110457219Y-104973549D01*
X110552763Y-105013124D01*
X110654192Y-105033300D01*
X110757608Y-105033300D01*
X110859037Y-105013124D01*
X110954581Y-104973549D01*
X111040568Y-104916094D01*
X111113694Y-104842968D01*
X111171149Y-104756981D01*
X111210724Y-104661437D01*
X111230900Y-104560008D01*
X111230900Y-104456592D01*
X111210724Y-104355163D01*
X111171149Y-104259619D01*
X111113694Y-104173632D01*
X111040568Y-104100506D01*
X110954581Y-104043051D01*
X110859037Y-104003476D01*
X110757608Y-103983300D01*
X110654192Y-103983300D01*
X110552763Y-104003476D01*
X110457219Y-104043051D01*
X110371232Y-104100506D01*
X110298106Y-104173632D01*
X110240651Y-104259619D01*
X110201076Y-104355163D01*
X110180900Y-104456592D01*
X101925000Y-104456592D01*
X101925000Y-103168812D01*
X123427000Y-103168812D01*
X123427000Y-103272228D01*
X123447176Y-103373657D01*
X123486751Y-103469201D01*
X123544206Y-103555188D01*
X123617332Y-103628314D01*
X123703319Y-103685769D01*
X123798863Y-103725344D01*
X123900292Y-103745520D01*
X124003708Y-103745520D01*
X124105137Y-103725344D01*
X124200681Y-103685769D01*
X124286668Y-103628314D01*
X124334690Y-103580292D01*
X127237000Y-103580292D01*
X127237000Y-103683708D01*
X127257176Y-103785137D01*
X127296751Y-103880681D01*
X127354206Y-103966668D01*
X127427332Y-104039794D01*
X127513319Y-104097249D01*
X127608863Y-104136824D01*
X127710292Y-104157000D01*
X127813708Y-104157000D01*
X127915137Y-104136824D01*
X128010681Y-104097249D01*
X128096668Y-104039794D01*
X128169794Y-103966668D01*
X128227249Y-103880681D01*
X128266824Y-103785137D01*
X128287000Y-103683708D01*
X128287000Y-103580292D01*
X128266824Y-103478863D01*
X128227249Y-103383319D01*
X128169794Y-103297332D01*
X128096668Y-103224206D01*
X128010681Y-103166751D01*
X127915137Y-103127176D01*
X127813708Y-103107000D01*
X127710292Y-103107000D01*
X127608863Y-103127176D01*
X127513319Y-103166751D01*
X127427332Y-103224206D01*
X127354206Y-103297332D01*
X127296751Y-103383319D01*
X127257176Y-103478863D01*
X127237000Y-103580292D01*
X124334690Y-103580292D01*
X124359794Y-103555188D01*
X124417249Y-103469201D01*
X124456824Y-103373657D01*
X124477000Y-103272228D01*
X124477000Y-103168812D01*
X124456824Y-103067383D01*
X124417249Y-102971839D01*
X124359794Y-102885852D01*
X124286668Y-102812726D01*
X124200681Y-102755271D01*
X124105137Y-102715696D01*
X124003708Y-102695520D01*
X123900292Y-102695520D01*
X123798863Y-102715696D01*
X123703319Y-102755271D01*
X123617332Y-102812726D01*
X123544206Y-102885852D01*
X123486751Y-102971839D01*
X123447176Y-103067383D01*
X123427000Y-103168812D01*
X101925000Y-103168812D01*
X101925000Y-101815467D01*
X102420192Y-101815467D01*
X102420192Y-101994133D01*
X102455047Y-102169365D01*
X102523420Y-102334430D01*
X102622681Y-102482984D01*
X102749016Y-102609319D01*
X102897570Y-102708580D01*
X103062635Y-102776953D01*
X103237867Y-102811808D01*
X103416533Y-102811808D01*
X103591765Y-102776953D01*
X103756830Y-102708580D01*
X103905384Y-102609319D01*
X104031719Y-102482984D01*
X104130980Y-102334430D01*
X104199353Y-102169365D01*
X104201635Y-102157892D01*
X124506500Y-102157892D01*
X124506500Y-102261308D01*
X124526676Y-102362737D01*
X124566251Y-102458281D01*
X124623706Y-102544268D01*
X124696832Y-102617394D01*
X124782819Y-102674849D01*
X124878363Y-102714424D01*
X124979792Y-102734600D01*
X125083208Y-102734600D01*
X125184637Y-102714424D01*
X125280181Y-102674849D01*
X125366168Y-102617394D01*
X125439294Y-102544268D01*
X125496749Y-102458281D01*
X125536324Y-102362737D01*
X125556500Y-102261308D01*
X125556500Y-102157892D01*
X125536324Y-102056463D01*
X125496749Y-101960919D01*
X125439294Y-101874932D01*
X125366168Y-101801806D01*
X125280181Y-101744351D01*
X125184637Y-101704776D01*
X125083208Y-101684600D01*
X124979792Y-101684600D01*
X124878363Y-101704776D01*
X124782819Y-101744351D01*
X124696832Y-101801806D01*
X124623706Y-101874932D01*
X124566251Y-101960919D01*
X124526676Y-102056463D01*
X124506500Y-102157892D01*
X104201635Y-102157892D01*
X104234208Y-101994133D01*
X104234208Y-101815467D01*
X104199353Y-101640235D01*
X104130980Y-101475170D01*
X104031719Y-101326616D01*
X103905384Y-101200281D01*
X103756830Y-101101020D01*
X103732862Y-101091092D01*
X106078800Y-101091092D01*
X106078800Y-101194508D01*
X106098976Y-101295937D01*
X106138551Y-101391481D01*
X106196006Y-101477468D01*
X106269132Y-101550594D01*
X106355119Y-101608049D01*
X106450663Y-101647624D01*
X106552092Y-101667800D01*
X106655508Y-101667800D01*
X106756937Y-101647624D01*
X106852481Y-101608049D01*
X106938468Y-101550594D01*
X107011594Y-101477468D01*
X107069049Y-101391481D01*
X107108624Y-101295937D01*
X107128800Y-101194508D01*
X107128800Y-101091092D01*
X107108624Y-100989663D01*
X107092772Y-100951392D01*
X124938300Y-100951392D01*
X124938300Y-101054808D01*
X124958476Y-101156237D01*
X124998051Y-101251781D01*
X125055506Y-101337768D01*
X125128632Y-101410894D01*
X125214619Y-101468349D01*
X125310163Y-101507924D01*
X125411592Y-101528100D01*
X125515008Y-101528100D01*
X125616437Y-101507924D01*
X125711981Y-101468349D01*
X125797968Y-101410894D01*
X125871094Y-101337768D01*
X125928549Y-101251781D01*
X125968124Y-101156237D01*
X125988300Y-101054808D01*
X125988300Y-100951392D01*
X125968124Y-100849963D01*
X125928549Y-100754419D01*
X125871094Y-100668432D01*
X125797968Y-100595306D01*
X125711981Y-100537851D01*
X125616437Y-100498276D01*
X125515008Y-100478100D01*
X125411592Y-100478100D01*
X125310163Y-100498276D01*
X125214619Y-100537851D01*
X125128632Y-100595306D01*
X125055506Y-100668432D01*
X124998051Y-100754419D01*
X124958476Y-100849963D01*
X124938300Y-100951392D01*
X107092772Y-100951392D01*
X107069049Y-100894119D01*
X107011594Y-100808132D01*
X106938468Y-100735006D01*
X106852481Y-100677551D01*
X106756937Y-100637976D01*
X106655508Y-100617800D01*
X106552092Y-100617800D01*
X106450663Y-100637976D01*
X106355119Y-100677551D01*
X106269132Y-100735006D01*
X106196006Y-100808132D01*
X106138551Y-100894119D01*
X106098976Y-100989663D01*
X106078800Y-101091092D01*
X103732862Y-101091092D01*
X103591765Y-101032647D01*
X103416533Y-100997792D01*
X103237867Y-100997792D01*
X103062635Y-101032647D01*
X102897570Y-101101020D01*
X102749016Y-101200281D01*
X102622681Y-101326616D01*
X102523420Y-101475170D01*
X102455047Y-101640235D01*
X102420192Y-101815467D01*
X101925000Y-101815467D01*
X101925000Y-99897292D01*
X125928900Y-99897292D01*
X125928900Y-100000708D01*
X125949076Y-100102137D01*
X125988651Y-100197681D01*
X126046106Y-100283668D01*
X126119232Y-100356794D01*
X126205219Y-100414249D01*
X126300763Y-100453824D01*
X126402192Y-100474000D01*
X126505608Y-100474000D01*
X126607037Y-100453824D01*
X126702581Y-100414249D01*
X126788568Y-100356794D01*
X126861694Y-100283668D01*
X126919149Y-100197681D01*
X126958724Y-100102137D01*
X126978900Y-100000708D01*
X126978900Y-99897292D01*
X126958724Y-99795863D01*
X126919149Y-99700319D01*
X126861694Y-99614332D01*
X126788568Y-99541206D01*
X126702581Y-99483751D01*
X126607037Y-99444176D01*
X126505608Y-99424000D01*
X126402192Y-99424000D01*
X126300763Y-99444176D01*
X126205219Y-99483751D01*
X126119232Y-99541206D01*
X126046106Y-99614332D01*
X125988651Y-99700319D01*
X125949076Y-99795863D01*
X125928900Y-99897292D01*
X101925000Y-99897292D01*
X101925000Y-98767467D01*
X102420192Y-98767467D01*
X102420192Y-98946133D01*
X102455047Y-99121365D01*
X102523420Y-99286430D01*
X102622681Y-99434984D01*
X102749016Y-99561319D01*
X102897570Y-99660580D01*
X103062635Y-99728953D01*
X103237867Y-99763808D01*
X103416533Y-99763808D01*
X103591765Y-99728953D01*
X103756830Y-99660580D01*
X103905384Y-99561319D01*
X104031719Y-99434984D01*
X104130980Y-99286430D01*
X104199353Y-99121365D01*
X104234208Y-98946133D01*
X104234208Y-98767467D01*
X104199353Y-98592235D01*
X104130980Y-98427170D01*
X104031719Y-98278616D01*
X103905384Y-98152281D01*
X103756830Y-98053020D01*
X103591765Y-97984647D01*
X103416533Y-97949792D01*
X103237867Y-97949792D01*
X103062635Y-97984647D01*
X102897570Y-98053020D01*
X102749016Y-98152281D01*
X102622681Y-98278616D01*
X102523420Y-98427170D01*
X102455047Y-98592235D01*
X102420192Y-98767467D01*
X101925000Y-98767467D01*
X101925000Y-90753292D01*
X126678200Y-90753292D01*
X126678200Y-90856708D01*
X126698376Y-90958137D01*
X126737951Y-91053681D01*
X126795406Y-91139668D01*
X126868532Y-91212794D01*
X126954519Y-91270249D01*
X127050063Y-91309824D01*
X127151492Y-91330000D01*
X127254908Y-91330000D01*
X127356337Y-91309824D01*
X127451881Y-91270249D01*
X127537868Y-91212794D01*
X127610994Y-91139668D01*
X127668449Y-91053681D01*
X127708024Y-90958137D01*
X127728200Y-90856708D01*
X127728200Y-90753292D01*
X127708024Y-90651863D01*
X127668449Y-90556319D01*
X127610994Y-90470332D01*
X127537868Y-90397206D01*
X127451881Y-90339751D01*
X127356337Y-90300176D01*
X127254908Y-90280000D01*
X127151492Y-90280000D01*
X127050063Y-90300176D01*
X126954519Y-90339751D01*
X126868532Y-90397206D01*
X126795406Y-90470332D01*
X126737951Y-90556319D01*
X126698376Y-90651863D01*
X126678200Y-90753292D01*
X101925000Y-90753292D01*
X101925000Y-86360000D01*
X101968436Y-86360000D01*
X101990640Y-86585439D01*
X102056398Y-86802215D01*
X102163184Y-87001997D01*
X102306893Y-87177107D01*
X102482003Y-87320816D01*
X102681785Y-87427602D01*
X102898561Y-87493360D01*
X103067508Y-87510000D01*
X103180492Y-87510000D01*
X103349439Y-87493360D01*
X103566215Y-87427602D01*
X103765997Y-87320816D01*
X103941107Y-87177107D01*
X104084816Y-87001997D01*
X104191602Y-86802215D01*
X104257360Y-86585439D01*
X104279564Y-86360000D01*
X104257360Y-86134561D01*
X104191602Y-85917785D01*
X104084816Y-85718003D01*
X103941107Y-85542893D01*
X103901027Y-85510000D01*
X128134549Y-85510000D01*
X128134549Y-87210000D01*
X128140341Y-87268810D01*
X128157496Y-87325360D01*
X128185353Y-87377477D01*
X128222842Y-87423158D01*
X128268523Y-87460647D01*
X128320640Y-87488504D01*
X128377190Y-87505659D01*
X128436000Y-87511451D01*
X130136000Y-87511451D01*
X130194810Y-87505659D01*
X130251360Y-87488504D01*
X130303477Y-87460647D01*
X130349158Y-87423158D01*
X130386647Y-87377477D01*
X130414504Y-87325360D01*
X130431659Y-87268810D01*
X130437451Y-87210000D01*
X130437451Y-85510000D01*
X130431659Y-85451190D01*
X130414504Y-85394640D01*
X130386647Y-85342523D01*
X130349158Y-85296842D01*
X130303477Y-85259353D01*
X130251360Y-85231496D01*
X130194810Y-85214341D01*
X130136000Y-85208549D01*
X128436000Y-85208549D01*
X128377190Y-85214341D01*
X128320640Y-85231496D01*
X128268523Y-85259353D01*
X128222842Y-85296842D01*
X128185353Y-85342523D01*
X128157496Y-85394640D01*
X128140341Y-85451190D01*
X128134549Y-85510000D01*
X103901027Y-85510000D01*
X103765997Y-85399184D01*
X103566215Y-85292398D01*
X103349439Y-85226640D01*
X103180492Y-85210000D01*
X103067508Y-85210000D01*
X102898561Y-85226640D01*
X102681785Y-85292398D01*
X102482003Y-85399184D01*
X102306893Y-85542893D01*
X102163184Y-85718003D01*
X102056398Y-85917785D01*
X101990640Y-86134561D01*
X101968436Y-86360000D01*
X101925000Y-86360000D01*
X101925000Y-83820000D01*
X101968436Y-83820000D01*
X101990640Y-84045439D01*
X102056398Y-84262215D01*
X102163184Y-84461997D01*
X102306893Y-84637107D01*
X102482003Y-84780816D01*
X102681785Y-84887602D01*
X102898561Y-84953360D01*
X103067508Y-84970000D01*
X103180492Y-84970000D01*
X103349439Y-84953360D01*
X103566215Y-84887602D01*
X103765997Y-84780816D01*
X103941107Y-84637107D01*
X104084816Y-84461997D01*
X104191602Y-84262215D01*
X104257360Y-84045439D01*
X104279564Y-83820000D01*
X128130436Y-83820000D01*
X128152640Y-84045439D01*
X128218398Y-84262215D01*
X128325184Y-84461997D01*
X128468893Y-84637107D01*
X128644003Y-84780816D01*
X128843785Y-84887602D01*
X129060561Y-84953360D01*
X129229508Y-84970000D01*
X129342492Y-84970000D01*
X129511439Y-84953360D01*
X129728215Y-84887602D01*
X129927997Y-84780816D01*
X130103107Y-84637107D01*
X130246816Y-84461997D01*
X130353602Y-84262215D01*
X130419360Y-84045439D01*
X130441564Y-83820000D01*
X130419360Y-83594561D01*
X130353602Y-83377785D01*
X130246816Y-83178003D01*
X130103107Y-83002893D01*
X129927997Y-82859184D01*
X129728215Y-82752398D01*
X129511439Y-82686640D01*
X129342492Y-82670000D01*
X129229508Y-82670000D01*
X129060561Y-82686640D01*
X128843785Y-82752398D01*
X128644003Y-82859184D01*
X128468893Y-83002893D01*
X128325184Y-83178003D01*
X128218398Y-83377785D01*
X128152640Y-83594561D01*
X128130436Y-83820000D01*
X104279564Y-83820000D01*
X104257360Y-83594561D01*
X104191602Y-83377785D01*
X104084816Y-83178003D01*
X104006433Y-83082492D01*
X116924600Y-83082492D01*
X116924600Y-83185908D01*
X116944776Y-83287337D01*
X116984351Y-83382881D01*
X117041806Y-83468868D01*
X117114932Y-83541994D01*
X117200919Y-83599449D01*
X117296463Y-83639024D01*
X117397892Y-83659200D01*
X117501308Y-83659200D01*
X117602737Y-83639024D01*
X117698281Y-83599449D01*
X117784268Y-83541994D01*
X117857394Y-83468868D01*
X117914849Y-83382881D01*
X117954424Y-83287337D01*
X117974600Y-83185908D01*
X117974600Y-83082492D01*
X117954424Y-82981063D01*
X117914849Y-82885519D01*
X117857394Y-82799532D01*
X117784268Y-82726406D01*
X117698281Y-82668951D01*
X117602737Y-82629376D01*
X117501308Y-82609200D01*
X117397892Y-82609200D01*
X117296463Y-82629376D01*
X117200919Y-82668951D01*
X117114932Y-82726406D01*
X117041806Y-82799532D01*
X116984351Y-82885519D01*
X116944776Y-82981063D01*
X116924600Y-83082492D01*
X104006433Y-83082492D01*
X103941107Y-83002893D01*
X103765997Y-82859184D01*
X103566215Y-82752398D01*
X103349439Y-82686640D01*
X103180492Y-82670000D01*
X103067508Y-82670000D01*
X102898561Y-82686640D01*
X102681785Y-82752398D01*
X102482003Y-82859184D01*
X102306893Y-83002893D01*
X102163184Y-83178003D01*
X102056398Y-83377785D01*
X101990640Y-83594561D01*
X101968436Y-83820000D01*
X101925000Y-83820000D01*
X101925000Y-81280000D01*
X101968436Y-81280000D01*
X101990640Y-81505439D01*
X102056398Y-81722215D01*
X102163184Y-81921997D01*
X102306893Y-82097107D01*
X102482003Y-82240816D01*
X102681785Y-82347602D01*
X102898561Y-82413360D01*
X103067508Y-82430000D01*
X103180492Y-82430000D01*
X103349439Y-82413360D01*
X103566215Y-82347602D01*
X103765997Y-82240816D01*
X103941107Y-82097107D01*
X104084816Y-81921997D01*
X104191602Y-81722215D01*
X104241266Y-81558492D01*
X115476800Y-81558492D01*
X115476800Y-81661908D01*
X115496976Y-81763337D01*
X115536551Y-81858881D01*
X115594006Y-81944868D01*
X115667132Y-82017994D01*
X115753119Y-82075449D01*
X115848663Y-82115024D01*
X115950092Y-82135200D01*
X116053508Y-82135200D01*
X116154937Y-82115024D01*
X116250481Y-82075449D01*
X116336468Y-82017994D01*
X116409594Y-81944868D01*
X116467049Y-81858881D01*
X116506624Y-81763337D01*
X116526800Y-81661908D01*
X116526800Y-81558492D01*
X116506624Y-81457063D01*
X116467049Y-81361519D01*
X116409594Y-81275532D01*
X116336468Y-81202406D01*
X116250481Y-81144951D01*
X116154937Y-81105376D01*
X116053508Y-81085200D01*
X115950092Y-81085200D01*
X115848663Y-81105376D01*
X115753119Y-81144951D01*
X115667132Y-81202406D01*
X115594006Y-81275532D01*
X115536551Y-81361519D01*
X115496976Y-81457063D01*
X115476800Y-81558492D01*
X104241266Y-81558492D01*
X104257360Y-81505439D01*
X104279564Y-81280000D01*
X104257360Y-81054561D01*
X104233011Y-80974292D01*
X114156000Y-80974292D01*
X114156000Y-81077708D01*
X114176176Y-81179137D01*
X114215751Y-81274681D01*
X114273206Y-81360668D01*
X114346332Y-81433794D01*
X114432319Y-81491249D01*
X114527863Y-81530824D01*
X114629292Y-81551000D01*
X114732708Y-81551000D01*
X114834137Y-81530824D01*
X114929681Y-81491249D01*
X115015668Y-81433794D01*
X115088794Y-81360668D01*
X115146249Y-81274681D01*
X115185824Y-81179137D01*
X115206000Y-81077708D01*
X115206000Y-80974292D01*
X115188317Y-80885392D01*
X117026200Y-80885392D01*
X117026200Y-80988808D01*
X117046376Y-81090237D01*
X117085951Y-81185781D01*
X117143406Y-81271768D01*
X117216532Y-81344894D01*
X117302519Y-81402349D01*
X117398063Y-81441924D01*
X117499492Y-81462100D01*
X117602908Y-81462100D01*
X117704337Y-81441924D01*
X117799881Y-81402349D01*
X117885868Y-81344894D01*
X117950762Y-81280000D01*
X128130436Y-81280000D01*
X128152640Y-81505439D01*
X128218398Y-81722215D01*
X128325184Y-81921997D01*
X128468893Y-82097107D01*
X128644003Y-82240816D01*
X128843785Y-82347602D01*
X129060561Y-82413360D01*
X129229508Y-82430000D01*
X129342492Y-82430000D01*
X129511439Y-82413360D01*
X129728215Y-82347602D01*
X129927997Y-82240816D01*
X130103107Y-82097107D01*
X130246816Y-81921997D01*
X130353602Y-81722215D01*
X130419360Y-81505439D01*
X130441564Y-81280000D01*
X130419360Y-81054561D01*
X130353602Y-80837785D01*
X130246816Y-80638003D01*
X130103107Y-80462893D01*
X129927997Y-80319184D01*
X129728215Y-80212398D01*
X129511439Y-80146640D01*
X129342492Y-80130000D01*
X129229508Y-80130000D01*
X129060561Y-80146640D01*
X128843785Y-80212398D01*
X128644003Y-80319184D01*
X128468893Y-80462893D01*
X128325184Y-80638003D01*
X128218398Y-80837785D01*
X128152640Y-81054561D01*
X128130436Y-81280000D01*
X117950762Y-81280000D01*
X117958994Y-81271768D01*
X118016449Y-81185781D01*
X118056024Y-81090237D01*
X118076200Y-80988808D01*
X118076200Y-80885392D01*
X118056024Y-80783963D01*
X118016449Y-80688419D01*
X117958994Y-80602432D01*
X117885868Y-80529306D01*
X117799881Y-80471851D01*
X117704337Y-80432276D01*
X117602908Y-80412100D01*
X117499492Y-80412100D01*
X117398063Y-80432276D01*
X117302519Y-80471851D01*
X117216532Y-80529306D01*
X117143406Y-80602432D01*
X117085951Y-80688419D01*
X117046376Y-80783963D01*
X117026200Y-80885392D01*
X115188317Y-80885392D01*
X115185824Y-80872863D01*
X115146249Y-80777319D01*
X115088794Y-80691332D01*
X115015668Y-80618206D01*
X114929681Y-80560751D01*
X114834137Y-80521176D01*
X114732708Y-80501000D01*
X114629292Y-80501000D01*
X114527863Y-80521176D01*
X114432319Y-80560751D01*
X114346332Y-80618206D01*
X114273206Y-80691332D01*
X114215751Y-80777319D01*
X114176176Y-80872863D01*
X114156000Y-80974292D01*
X104233011Y-80974292D01*
X104191602Y-80837785D01*
X104084816Y-80638003D01*
X103941107Y-80462893D01*
X103765997Y-80319184D01*
X103566215Y-80212398D01*
X103349439Y-80146640D01*
X103180492Y-80130000D01*
X103067508Y-80130000D01*
X102898561Y-80146640D01*
X102681785Y-80212398D01*
X102482003Y-80319184D01*
X102306893Y-80462893D01*
X102163184Y-80638003D01*
X102056398Y-80837785D01*
X101990640Y-81054561D01*
X101968436Y-81280000D01*
X101925000Y-81280000D01*
X101925000Y-78740000D01*
X101968436Y-78740000D01*
X101990640Y-78965439D01*
X102056398Y-79182215D01*
X102163184Y-79381997D01*
X102306893Y-79557107D01*
X102482003Y-79700816D01*
X102681785Y-79807602D01*
X102898561Y-79873360D01*
X103067508Y-79890000D01*
X103180492Y-79890000D01*
X103349439Y-79873360D01*
X103566215Y-79807602D01*
X103765997Y-79700816D01*
X103941107Y-79557107D01*
X104084816Y-79381997D01*
X104191602Y-79182215D01*
X104257360Y-78965439D01*
X104279564Y-78740000D01*
X104259461Y-78535892D01*
X112639190Y-78535892D01*
X112639190Y-78639308D01*
X112659366Y-78740737D01*
X112698941Y-78836281D01*
X112756396Y-78922268D01*
X112829522Y-78995394D01*
X112915509Y-79052849D01*
X113011053Y-79092424D01*
X113112482Y-79112600D01*
X113215898Y-79112600D01*
X113317327Y-79092424D01*
X113323797Y-79089744D01*
X113323797Y-79121618D01*
X113343973Y-79223047D01*
X113383548Y-79318591D01*
X113441003Y-79404578D01*
X113514129Y-79477704D01*
X113600116Y-79535159D01*
X113695660Y-79574734D01*
X113797089Y-79594910D01*
X113900505Y-79594910D01*
X114001934Y-79574734D01*
X114057080Y-79551892D01*
X117762800Y-79551892D01*
X117762800Y-79655308D01*
X117782976Y-79756737D01*
X117822551Y-79852281D01*
X117880006Y-79938268D01*
X117953132Y-80011394D01*
X118039119Y-80068849D01*
X118134663Y-80108424D01*
X118236092Y-80128600D01*
X118339508Y-80128600D01*
X118440937Y-80108424D01*
X118536481Y-80068849D01*
X118622468Y-80011394D01*
X118695594Y-79938268D01*
X118753049Y-79852281D01*
X118792624Y-79756737D01*
X118812800Y-79655308D01*
X118812800Y-79551892D01*
X118792624Y-79450463D01*
X118753049Y-79354919D01*
X118695594Y-79268932D01*
X118622468Y-79195806D01*
X118536481Y-79138351D01*
X118440937Y-79098776D01*
X118339508Y-79078600D01*
X118236092Y-79078600D01*
X118134663Y-79098776D01*
X118039119Y-79138351D01*
X117953132Y-79195806D01*
X117880006Y-79268932D01*
X117822551Y-79354919D01*
X117782976Y-79450463D01*
X117762800Y-79551892D01*
X114057080Y-79551892D01*
X114097478Y-79535159D01*
X114183465Y-79477704D01*
X114256591Y-79404578D01*
X114314046Y-79318591D01*
X114353621Y-79223047D01*
X114373797Y-79121618D01*
X114373797Y-79018202D01*
X114353621Y-78916773D01*
X114322108Y-78840692D01*
X118956600Y-78840692D01*
X118956600Y-78944108D01*
X118976776Y-79045537D01*
X119016351Y-79141081D01*
X119073806Y-79227068D01*
X119146932Y-79300194D01*
X119232919Y-79357649D01*
X119328463Y-79397224D01*
X119429892Y-79417400D01*
X119533308Y-79417400D01*
X119634737Y-79397224D01*
X119730281Y-79357649D01*
X119816268Y-79300194D01*
X119889394Y-79227068D01*
X119946849Y-79141081D01*
X119986424Y-79045537D01*
X120006600Y-78944108D01*
X120006600Y-78840692D01*
X119986571Y-78740000D01*
X128130436Y-78740000D01*
X128152640Y-78965439D01*
X128218398Y-79182215D01*
X128325184Y-79381997D01*
X128468893Y-79557107D01*
X128644003Y-79700816D01*
X128843785Y-79807602D01*
X129060561Y-79873360D01*
X129229508Y-79890000D01*
X129342492Y-79890000D01*
X129511439Y-79873360D01*
X129728215Y-79807602D01*
X129927997Y-79700816D01*
X130103107Y-79557107D01*
X130246816Y-79381997D01*
X130353602Y-79182215D01*
X130419360Y-78965439D01*
X130441564Y-78740000D01*
X130419360Y-78514561D01*
X130353602Y-78297785D01*
X130246816Y-78098003D01*
X130103107Y-77922893D01*
X129927997Y-77779184D01*
X129728215Y-77672398D01*
X129511439Y-77606640D01*
X129342492Y-77590000D01*
X129229508Y-77590000D01*
X129060561Y-77606640D01*
X128843785Y-77672398D01*
X128644003Y-77779184D01*
X128468893Y-77922893D01*
X128325184Y-78098003D01*
X128218398Y-78297785D01*
X128152640Y-78514561D01*
X128130436Y-78740000D01*
X119986571Y-78740000D01*
X119986424Y-78739263D01*
X119946849Y-78643719D01*
X119889394Y-78557732D01*
X119816268Y-78484606D01*
X119730281Y-78427151D01*
X119634737Y-78387576D01*
X119533308Y-78367400D01*
X119429892Y-78367400D01*
X119328463Y-78387576D01*
X119232919Y-78427151D01*
X119146932Y-78484606D01*
X119073806Y-78557732D01*
X119016351Y-78643719D01*
X118976776Y-78739263D01*
X118956600Y-78840692D01*
X114322108Y-78840692D01*
X114314046Y-78821229D01*
X114256591Y-78735242D01*
X114183465Y-78662116D01*
X114097478Y-78604661D01*
X114001934Y-78565086D01*
X113900505Y-78544910D01*
X113797089Y-78544910D01*
X113695660Y-78565086D01*
X113689190Y-78567766D01*
X113689190Y-78535892D01*
X113669014Y-78434463D01*
X113629439Y-78338919D01*
X113571984Y-78252932D01*
X113498858Y-78179806D01*
X113412871Y-78122351D01*
X113317327Y-78082776D01*
X113215898Y-78062600D01*
X113112482Y-78062600D01*
X113011053Y-78082776D01*
X112915509Y-78122351D01*
X112829522Y-78179806D01*
X112756396Y-78252932D01*
X112698941Y-78338919D01*
X112659366Y-78434463D01*
X112639190Y-78535892D01*
X104259461Y-78535892D01*
X104257360Y-78514561D01*
X104191602Y-78297785D01*
X104084816Y-78098003D01*
X103941107Y-77922893D01*
X103765997Y-77779184D01*
X103566215Y-77672398D01*
X103349439Y-77606640D01*
X103180492Y-77590000D01*
X103067508Y-77590000D01*
X102898561Y-77606640D01*
X102681785Y-77672398D01*
X102482003Y-77779184D01*
X102306893Y-77922893D01*
X102163184Y-78098003D01*
X102056398Y-78297785D01*
X101990640Y-78514561D01*
X101968436Y-78740000D01*
X101925000Y-78740000D01*
X101925000Y-76200000D01*
X101968436Y-76200000D01*
X101990640Y-76425439D01*
X102056398Y-76642215D01*
X102163184Y-76841997D01*
X102306893Y-77017107D01*
X102482003Y-77160816D01*
X102681785Y-77267602D01*
X102898561Y-77333360D01*
X103067508Y-77350000D01*
X103180492Y-77350000D01*
X103349439Y-77333360D01*
X103566215Y-77267602D01*
X103765997Y-77160816D01*
X103941107Y-77017107D01*
X104084816Y-76841997D01*
X104129771Y-76757892D01*
X116238800Y-76757892D01*
X116238800Y-76861308D01*
X116258976Y-76962737D01*
X116298551Y-77058281D01*
X116356006Y-77144268D01*
X116429132Y-77217394D01*
X116515119Y-77274849D01*
X116610663Y-77314424D01*
X116712092Y-77334600D01*
X116815508Y-77334600D01*
X116916937Y-77314424D01*
X117012481Y-77274849D01*
X117098468Y-77217394D01*
X117171594Y-77144268D01*
X117209129Y-77088092D01*
X117331000Y-77088092D01*
X117331000Y-77191508D01*
X117351176Y-77292937D01*
X117390751Y-77388481D01*
X117448206Y-77474468D01*
X117521332Y-77547594D01*
X117607319Y-77605049D01*
X117702863Y-77644624D01*
X117804292Y-77664800D01*
X117907708Y-77664800D01*
X118009137Y-77644624D01*
X118104681Y-77605049D01*
X118190668Y-77547594D01*
X118263794Y-77474468D01*
X118321249Y-77388481D01*
X118360824Y-77292937D01*
X118381000Y-77191508D01*
X118381000Y-77088092D01*
X118360824Y-76986663D01*
X118321249Y-76891119D01*
X118263794Y-76805132D01*
X118190668Y-76732006D01*
X118104681Y-76674551D01*
X118009137Y-76634976D01*
X117907708Y-76614800D01*
X117804292Y-76614800D01*
X117702863Y-76634976D01*
X117607319Y-76674551D01*
X117521332Y-76732006D01*
X117448206Y-76805132D01*
X117390751Y-76891119D01*
X117351176Y-76986663D01*
X117331000Y-77088092D01*
X117209129Y-77088092D01*
X117229049Y-77058281D01*
X117268624Y-76962737D01*
X117288800Y-76861308D01*
X117288800Y-76757892D01*
X117268624Y-76656463D01*
X117229049Y-76560919D01*
X117171594Y-76474932D01*
X117098468Y-76401806D01*
X117012481Y-76344351D01*
X116916937Y-76304776D01*
X116815508Y-76284600D01*
X116712092Y-76284600D01*
X116610663Y-76304776D01*
X116515119Y-76344351D01*
X116429132Y-76401806D01*
X116356006Y-76474932D01*
X116298551Y-76560919D01*
X116258976Y-76656463D01*
X116238800Y-76757892D01*
X104129771Y-76757892D01*
X104191602Y-76642215D01*
X104257360Y-76425439D01*
X104279564Y-76200000D01*
X128130436Y-76200000D01*
X128152640Y-76425439D01*
X128218398Y-76642215D01*
X128325184Y-76841997D01*
X128468893Y-77017107D01*
X128644003Y-77160816D01*
X128843785Y-77267602D01*
X129060561Y-77333360D01*
X129229508Y-77350000D01*
X129342492Y-77350000D01*
X129511439Y-77333360D01*
X129728215Y-77267602D01*
X129927997Y-77160816D01*
X130103107Y-77017107D01*
X130246816Y-76841997D01*
X130353602Y-76642215D01*
X130419360Y-76425439D01*
X130441564Y-76200000D01*
X130419360Y-75974561D01*
X130353602Y-75757785D01*
X130246816Y-75558003D01*
X130103107Y-75382893D01*
X129927997Y-75239184D01*
X129728215Y-75132398D01*
X129511439Y-75066640D01*
X129342492Y-75050000D01*
X129229508Y-75050000D01*
X129060561Y-75066640D01*
X128843785Y-75132398D01*
X128644003Y-75239184D01*
X128468893Y-75382893D01*
X128325184Y-75558003D01*
X128218398Y-75757785D01*
X128152640Y-75974561D01*
X128130436Y-76200000D01*
X104279564Y-76200000D01*
X104257360Y-75974561D01*
X104191602Y-75757785D01*
X104084816Y-75558003D01*
X103941107Y-75382893D01*
X103765997Y-75239184D01*
X103566215Y-75132398D01*
X103349439Y-75066640D01*
X103180492Y-75050000D01*
X103067508Y-75050000D01*
X102898561Y-75066640D01*
X102681785Y-75132398D01*
X102482003Y-75239184D01*
X102306893Y-75382893D01*
X102163184Y-75558003D01*
X102056398Y-75757785D01*
X101990640Y-75974561D01*
X101968436Y-76200000D01*
X101925000Y-76200000D01*
X101925000Y-73660000D01*
X101968436Y-73660000D01*
X101990640Y-73885439D01*
X102056398Y-74102215D01*
X102163184Y-74301997D01*
X102306893Y-74477107D01*
X102482003Y-74620816D01*
X102681785Y-74727602D01*
X102898561Y-74793360D01*
X103067508Y-74810000D01*
X103180492Y-74810000D01*
X103349439Y-74793360D01*
X103566215Y-74727602D01*
X103765997Y-74620816D01*
X103941107Y-74477107D01*
X104084816Y-74301997D01*
X104191602Y-74102215D01*
X104210446Y-74040092D01*
X111285800Y-74040092D01*
X111285800Y-74143508D01*
X111305976Y-74244937D01*
X111345551Y-74340481D01*
X111403006Y-74426468D01*
X111476132Y-74499594D01*
X111562119Y-74557049D01*
X111657663Y-74596624D01*
X111759092Y-74616800D01*
X111862508Y-74616800D01*
X111963937Y-74596624D01*
X112059481Y-74557049D01*
X112145468Y-74499594D01*
X112218594Y-74426468D01*
X112276049Y-74340481D01*
X112315624Y-74244937D01*
X112335800Y-74143508D01*
X112335800Y-74040092D01*
X112315624Y-73938663D01*
X112276049Y-73843119D01*
X112218594Y-73757132D01*
X112145468Y-73684006D01*
X112109541Y-73660000D01*
X128130436Y-73660000D01*
X128152640Y-73885439D01*
X128218398Y-74102215D01*
X128325184Y-74301997D01*
X128468893Y-74477107D01*
X128644003Y-74620816D01*
X128843785Y-74727602D01*
X129060561Y-74793360D01*
X129229508Y-74810000D01*
X129342492Y-74810000D01*
X129511439Y-74793360D01*
X129728215Y-74727602D01*
X129927997Y-74620816D01*
X130103107Y-74477107D01*
X130246816Y-74301997D01*
X130353602Y-74102215D01*
X130419360Y-73885439D01*
X130441564Y-73660000D01*
X130419360Y-73434561D01*
X130353602Y-73217785D01*
X130246816Y-73018003D01*
X130103107Y-72842893D01*
X129927997Y-72699184D01*
X129728215Y-72592398D01*
X129511439Y-72526640D01*
X129342492Y-72510000D01*
X129229508Y-72510000D01*
X129060561Y-72526640D01*
X128843785Y-72592398D01*
X128644003Y-72699184D01*
X128468893Y-72842893D01*
X128325184Y-73018003D01*
X128218398Y-73217785D01*
X128152640Y-73434561D01*
X128130436Y-73660000D01*
X112109541Y-73660000D01*
X112059481Y-73626551D01*
X111963937Y-73586976D01*
X111862508Y-73566800D01*
X111759092Y-73566800D01*
X111657663Y-73586976D01*
X111562119Y-73626551D01*
X111476132Y-73684006D01*
X111403006Y-73757132D01*
X111345551Y-73843119D01*
X111305976Y-73938663D01*
X111285800Y-74040092D01*
X104210446Y-74040092D01*
X104257360Y-73885439D01*
X104279564Y-73660000D01*
X104257360Y-73434561D01*
X104191602Y-73217785D01*
X104084816Y-73018003D01*
X103941107Y-72842893D01*
X103765997Y-72699184D01*
X103566215Y-72592398D01*
X103349439Y-72526640D01*
X103180492Y-72510000D01*
X103067508Y-72510000D01*
X102898561Y-72526640D01*
X102681785Y-72592398D01*
X102482003Y-72699184D01*
X102306893Y-72842893D01*
X102163184Y-73018003D01*
X102056398Y-73217785D01*
X101990640Y-73434561D01*
X101968436Y-73660000D01*
X101925000Y-73660000D01*
X101925000Y-71120000D01*
X101968436Y-71120000D01*
X101990640Y-71345439D01*
X102056398Y-71562215D01*
X102163184Y-71761997D01*
X102306893Y-71937107D01*
X102482003Y-72080816D01*
X102681785Y-72187602D01*
X102898561Y-72253360D01*
X103067508Y-72270000D01*
X103180492Y-72270000D01*
X103349439Y-72253360D01*
X103566215Y-72187602D01*
X103765997Y-72080816D01*
X103941107Y-71937107D01*
X104084816Y-71761997D01*
X104191602Y-71562215D01*
X104257360Y-71345439D01*
X104279564Y-71120000D01*
X104259461Y-70915892D01*
X121979200Y-70915892D01*
X121979200Y-71019308D01*
X121999376Y-71120737D01*
X122038951Y-71216281D01*
X122096406Y-71302268D01*
X122169532Y-71375394D01*
X122255519Y-71432849D01*
X122351063Y-71472424D01*
X122452492Y-71492600D01*
X122555908Y-71492600D01*
X122657337Y-71472424D01*
X122752881Y-71432849D01*
X122838868Y-71375394D01*
X122911994Y-71302268D01*
X122969449Y-71216281D01*
X123009024Y-71120737D01*
X123009170Y-71120000D01*
X128130436Y-71120000D01*
X128152640Y-71345439D01*
X128218398Y-71562215D01*
X128325184Y-71761997D01*
X128468893Y-71937107D01*
X128644003Y-72080816D01*
X128843785Y-72187602D01*
X129060561Y-72253360D01*
X129229508Y-72270000D01*
X129342492Y-72270000D01*
X129511439Y-72253360D01*
X129728215Y-72187602D01*
X129927997Y-72080816D01*
X130103107Y-71937107D01*
X130246816Y-71761997D01*
X130353602Y-71562215D01*
X130419360Y-71345439D01*
X130441564Y-71120000D01*
X130419360Y-70894561D01*
X130353602Y-70677785D01*
X130246816Y-70478003D01*
X130103107Y-70302893D01*
X129927997Y-70159184D01*
X129728215Y-70052398D01*
X129511439Y-69986640D01*
X129342492Y-69970000D01*
X129229508Y-69970000D01*
X129060561Y-69986640D01*
X128843785Y-70052398D01*
X128644003Y-70159184D01*
X128468893Y-70302893D01*
X128325184Y-70478003D01*
X128218398Y-70677785D01*
X128152640Y-70894561D01*
X128130436Y-71120000D01*
X123009170Y-71120000D01*
X123029200Y-71019308D01*
X123029200Y-70915892D01*
X123009024Y-70814463D01*
X122969449Y-70718919D01*
X122911994Y-70632932D01*
X122838868Y-70559806D01*
X122752881Y-70502351D01*
X122657337Y-70462776D01*
X122555908Y-70442600D01*
X122452492Y-70442600D01*
X122351063Y-70462776D01*
X122255519Y-70502351D01*
X122169532Y-70559806D01*
X122096406Y-70632932D01*
X122038951Y-70718919D01*
X121999376Y-70814463D01*
X121979200Y-70915892D01*
X104259461Y-70915892D01*
X104257360Y-70894561D01*
X104191602Y-70677785D01*
X104084816Y-70478003D01*
X103941107Y-70302893D01*
X103765997Y-70159184D01*
X103566215Y-70052398D01*
X103349439Y-69986640D01*
X103180492Y-69970000D01*
X103067508Y-69970000D01*
X102898561Y-69986640D01*
X102681785Y-70052398D01*
X102482003Y-70159184D01*
X102306893Y-70302893D01*
X102163184Y-70478003D01*
X102056398Y-70677785D01*
X101990640Y-70894561D01*
X101968436Y-71120000D01*
X101925000Y-71120000D01*
X101925000Y-68580000D01*
X101968436Y-68580000D01*
X101990640Y-68805439D01*
X102056398Y-69022215D01*
X102163184Y-69221997D01*
X102306893Y-69397107D01*
X102482003Y-69540816D01*
X102681785Y-69647602D01*
X102898561Y-69713360D01*
X103067508Y-69730000D01*
X103180492Y-69730000D01*
X103349439Y-69713360D01*
X103566215Y-69647602D01*
X103765997Y-69540816D01*
X103941107Y-69397107D01*
X104084816Y-69221997D01*
X104191602Y-69022215D01*
X104257360Y-68805439D01*
X104279564Y-68580000D01*
X104257360Y-68354561D01*
X104191602Y-68137785D01*
X104084816Y-67938003D01*
X103941107Y-67762893D01*
X103765997Y-67619184D01*
X103566215Y-67512398D01*
X103532373Y-67502132D01*
X121628680Y-67502132D01*
X121628680Y-67605548D01*
X121648856Y-67706977D01*
X121688431Y-67802521D01*
X121745886Y-67888508D01*
X121819012Y-67961634D01*
X121904999Y-68019089D01*
X122000543Y-68058664D01*
X122007552Y-68060058D01*
X122006972Y-68060446D01*
X121933846Y-68133572D01*
X121876391Y-68219559D01*
X121836816Y-68315103D01*
X121816640Y-68416532D01*
X121816640Y-68519948D01*
X121836816Y-68621377D01*
X121876391Y-68716921D01*
X121933846Y-68802908D01*
X122006972Y-68876034D01*
X122092959Y-68933489D01*
X122188503Y-68973064D01*
X122289932Y-68993240D01*
X122393348Y-68993240D01*
X122494777Y-68973064D01*
X122590321Y-68933489D01*
X122676308Y-68876034D01*
X122749434Y-68802908D01*
X122806889Y-68716921D01*
X122846464Y-68621377D01*
X122854694Y-68580000D01*
X128130436Y-68580000D01*
X128152640Y-68805439D01*
X128218398Y-69022215D01*
X128325184Y-69221997D01*
X128468893Y-69397107D01*
X128644003Y-69540816D01*
X128843785Y-69647602D01*
X129060561Y-69713360D01*
X129229508Y-69730000D01*
X129342492Y-69730000D01*
X129511439Y-69713360D01*
X129728215Y-69647602D01*
X129927997Y-69540816D01*
X130103107Y-69397107D01*
X130246816Y-69221997D01*
X130353602Y-69022215D01*
X130419360Y-68805439D01*
X130441564Y-68580000D01*
X130419360Y-68354561D01*
X130353602Y-68137785D01*
X130246816Y-67938003D01*
X130103107Y-67762893D01*
X129927997Y-67619184D01*
X129728215Y-67512398D01*
X129511439Y-67446640D01*
X129342492Y-67430000D01*
X129229508Y-67430000D01*
X129060561Y-67446640D01*
X128843785Y-67512398D01*
X128644003Y-67619184D01*
X128468893Y-67762893D01*
X128325184Y-67938003D01*
X128218398Y-68137785D01*
X128152640Y-68354561D01*
X128130436Y-68580000D01*
X122854694Y-68580000D01*
X122866640Y-68519948D01*
X122866640Y-68416532D01*
X122846464Y-68315103D01*
X122806889Y-68219559D01*
X122749434Y-68133572D01*
X122676308Y-68060446D01*
X122590321Y-68002991D01*
X122494777Y-67963416D01*
X122487768Y-67962022D01*
X122488348Y-67961634D01*
X122561474Y-67888508D01*
X122618929Y-67802521D01*
X122658504Y-67706977D01*
X122678680Y-67605548D01*
X122678680Y-67502132D01*
X122658504Y-67400703D01*
X122618929Y-67305159D01*
X122561474Y-67219172D01*
X122488348Y-67146046D01*
X122402361Y-67088591D01*
X122306817Y-67049016D01*
X122205388Y-67028840D01*
X122101972Y-67028840D01*
X122000543Y-67049016D01*
X121904999Y-67088591D01*
X121819012Y-67146046D01*
X121745886Y-67219172D01*
X121688431Y-67305159D01*
X121648856Y-67400703D01*
X121628680Y-67502132D01*
X103532373Y-67502132D01*
X103349439Y-67446640D01*
X103180492Y-67430000D01*
X103067508Y-67430000D01*
X102898561Y-67446640D01*
X102681785Y-67512398D01*
X102482003Y-67619184D01*
X102306893Y-67762893D01*
X102163184Y-67938003D01*
X102056398Y-68137785D01*
X101990640Y-68354561D01*
X101968436Y-68580000D01*
X101925000Y-68580000D01*
X101925000Y-66040000D01*
X101968436Y-66040000D01*
X101990640Y-66265439D01*
X102056398Y-66482215D01*
X102163184Y-66681997D01*
X102306893Y-66857107D01*
X102482003Y-67000816D01*
X102681785Y-67107602D01*
X102898561Y-67173360D01*
X103067508Y-67190000D01*
X103180492Y-67190000D01*
X103349439Y-67173360D01*
X103566215Y-67107602D01*
X103765997Y-67000816D01*
X103941107Y-66857107D01*
X104084816Y-66681997D01*
X104191602Y-66482215D01*
X104257360Y-66265439D01*
X104279564Y-66040000D01*
X104257360Y-65814561D01*
X104217601Y-65683492D01*
X111311200Y-65683492D01*
X111311200Y-65786908D01*
X111331376Y-65888337D01*
X111370951Y-65983881D01*
X111428406Y-66069868D01*
X111501532Y-66142994D01*
X111523308Y-66157544D01*
X111509176Y-66191663D01*
X111489000Y-66293092D01*
X111489000Y-66396508D01*
X111509176Y-66497937D01*
X111548751Y-66593481D01*
X111606206Y-66679468D01*
X111679332Y-66752594D01*
X111765319Y-66810049D01*
X111860863Y-66849624D01*
X111962292Y-66869800D01*
X112065708Y-66869800D01*
X112167137Y-66849624D01*
X112262681Y-66810049D01*
X112348668Y-66752594D01*
X112394980Y-66706282D01*
X112596440Y-66706282D01*
X112596440Y-66809698D01*
X112616616Y-66911127D01*
X112656191Y-67006671D01*
X112713646Y-67092658D01*
X112786772Y-67165784D01*
X112872759Y-67223239D01*
X112968303Y-67262814D01*
X113069732Y-67282990D01*
X113173148Y-67282990D01*
X113274577Y-67262814D01*
X113370121Y-67223239D01*
X113456108Y-67165784D01*
X113529234Y-67092658D01*
X113586689Y-67006671D01*
X113626264Y-66911127D01*
X113646440Y-66809698D01*
X113646440Y-66706282D01*
X113626264Y-66604853D01*
X113586689Y-66509309D01*
X113529234Y-66423322D01*
X113456108Y-66350196D01*
X113370121Y-66292741D01*
X113274577Y-66253166D01*
X113173148Y-66232990D01*
X113069732Y-66232990D01*
X112968303Y-66253166D01*
X112872759Y-66292741D01*
X112786772Y-66350196D01*
X112713646Y-66423322D01*
X112656191Y-66509309D01*
X112616616Y-66604853D01*
X112596440Y-66706282D01*
X112394980Y-66706282D01*
X112421794Y-66679468D01*
X112479249Y-66593481D01*
X112518824Y-66497937D01*
X112539000Y-66396508D01*
X112539000Y-66293092D01*
X112518824Y-66191663D01*
X112479249Y-66096119D01*
X112441752Y-66040000D01*
X128130436Y-66040000D01*
X128152640Y-66265439D01*
X128218398Y-66482215D01*
X128325184Y-66681997D01*
X128468893Y-66857107D01*
X128644003Y-67000816D01*
X128843785Y-67107602D01*
X129060561Y-67173360D01*
X129229508Y-67190000D01*
X129342492Y-67190000D01*
X129511439Y-67173360D01*
X129728215Y-67107602D01*
X129927997Y-67000816D01*
X130103107Y-66857107D01*
X130246816Y-66681997D01*
X130353602Y-66482215D01*
X130419360Y-66265439D01*
X130441564Y-66040000D01*
X130419360Y-65814561D01*
X130353602Y-65597785D01*
X130246816Y-65398003D01*
X130103107Y-65222893D01*
X129927997Y-65079184D01*
X129728215Y-64972398D01*
X129511439Y-64906640D01*
X129342492Y-64890000D01*
X129229508Y-64890000D01*
X129060561Y-64906640D01*
X128843785Y-64972398D01*
X128644003Y-65079184D01*
X128468893Y-65222893D01*
X128325184Y-65398003D01*
X128218398Y-65597785D01*
X128152640Y-65814561D01*
X128130436Y-66040000D01*
X112441752Y-66040000D01*
X112421794Y-66010132D01*
X112348668Y-65937006D01*
X112326892Y-65922456D01*
X112341024Y-65888337D01*
X112361200Y-65786908D01*
X112361200Y-65683492D01*
X112341024Y-65582063D01*
X112301449Y-65486519D01*
X112243994Y-65400532D01*
X112170868Y-65327406D01*
X112084881Y-65269951D01*
X111989337Y-65230376D01*
X111887908Y-65210200D01*
X111784492Y-65210200D01*
X111683063Y-65230376D01*
X111587519Y-65269951D01*
X111501532Y-65327406D01*
X111428406Y-65400532D01*
X111370951Y-65486519D01*
X111331376Y-65582063D01*
X111311200Y-65683492D01*
X104217601Y-65683492D01*
X104191602Y-65597785D01*
X104084816Y-65398003D01*
X103941107Y-65222893D01*
X103765997Y-65079184D01*
X103566215Y-64972398D01*
X103349439Y-64906640D01*
X103180492Y-64890000D01*
X103067508Y-64890000D01*
X102898561Y-64906640D01*
X102681785Y-64972398D01*
X102482003Y-65079184D01*
X102306893Y-65222893D01*
X102163184Y-65398003D01*
X102056398Y-65597785D01*
X101990640Y-65814561D01*
X101968436Y-66040000D01*
X101925000Y-66040000D01*
X101925000Y-62650000D01*
X101972549Y-62650000D01*
X101972549Y-64350000D01*
X101978341Y-64408810D01*
X101995496Y-64465360D01*
X102023353Y-64517477D01*
X102060842Y-64563158D01*
X102106523Y-64600647D01*
X102158640Y-64628504D01*
X102215190Y-64645659D01*
X102274000Y-64651451D01*
X103974000Y-64651451D01*
X104032810Y-64645659D01*
X104089360Y-64628504D01*
X104141477Y-64600647D01*
X104187158Y-64563158D01*
X104224647Y-64517477D01*
X104252504Y-64465360D01*
X104252827Y-64464292D01*
X104885000Y-64464292D01*
X104885000Y-64567708D01*
X104905176Y-64669137D01*
X104944751Y-64764681D01*
X105002206Y-64850668D01*
X105075332Y-64923794D01*
X105161319Y-64981249D01*
X105256863Y-65020824D01*
X105358292Y-65041000D01*
X105461708Y-65041000D01*
X105563137Y-65020824D01*
X105658681Y-64981249D01*
X105744668Y-64923794D01*
X105817794Y-64850668D01*
X105875249Y-64764681D01*
X105914824Y-64669137D01*
X105935000Y-64567708D01*
X105935000Y-64464292D01*
X105914824Y-64362863D01*
X105875249Y-64267319D01*
X105817794Y-64181332D01*
X105744668Y-64108206D01*
X105658681Y-64050751D01*
X105563137Y-64011176D01*
X105461708Y-63991000D01*
X105358292Y-63991000D01*
X105256863Y-64011176D01*
X105161319Y-64050751D01*
X105075332Y-64108206D01*
X105002206Y-64181332D01*
X104944751Y-64267319D01*
X104905176Y-64362863D01*
X104885000Y-64464292D01*
X104252827Y-64464292D01*
X104269659Y-64408810D01*
X104275451Y-64350000D01*
X104275451Y-63956292D01*
X106409000Y-63956292D01*
X106409000Y-64059708D01*
X106429176Y-64161137D01*
X106468751Y-64256681D01*
X106526206Y-64342668D01*
X106599332Y-64415794D01*
X106685319Y-64473249D01*
X106780863Y-64512824D01*
X106882292Y-64533000D01*
X106985708Y-64533000D01*
X107087137Y-64512824D01*
X107182681Y-64473249D01*
X107268668Y-64415794D01*
X107341794Y-64342668D01*
X107399249Y-64256681D01*
X107438824Y-64161137D01*
X107459000Y-64059708D01*
X107459000Y-63956292D01*
X107438824Y-63854863D01*
X107399249Y-63759319D01*
X107341794Y-63673332D01*
X107268668Y-63600206D01*
X107182681Y-63542751D01*
X107087137Y-63503176D01*
X106985708Y-63483000D01*
X106882292Y-63483000D01*
X106780863Y-63503176D01*
X106685319Y-63542751D01*
X106599332Y-63600206D01*
X106526206Y-63673332D01*
X106468751Y-63759319D01*
X106429176Y-63854863D01*
X106409000Y-63956292D01*
X104275451Y-63956292D01*
X104275451Y-63448292D01*
X108187000Y-63448292D01*
X108187000Y-63551708D01*
X108207176Y-63653137D01*
X108246751Y-63748681D01*
X108304206Y-63834668D01*
X108377332Y-63907794D01*
X108463319Y-63965249D01*
X108558863Y-64004824D01*
X108660292Y-64025000D01*
X108763708Y-64025000D01*
X108865137Y-64004824D01*
X108960681Y-63965249D01*
X109046668Y-63907794D01*
X109119794Y-63834668D01*
X109177249Y-63748681D01*
X109216824Y-63653137D01*
X109237000Y-63551708D01*
X109237000Y-63448292D01*
X109216824Y-63346863D01*
X109177249Y-63251319D01*
X109119794Y-63165332D01*
X109046668Y-63092206D01*
X108960681Y-63034751D01*
X108865137Y-62995176D01*
X108763708Y-62975000D01*
X108660292Y-62975000D01*
X108558863Y-62995176D01*
X108463319Y-63034751D01*
X108377332Y-63092206D01*
X108304206Y-63165332D01*
X108246751Y-63251319D01*
X108207176Y-63346863D01*
X108187000Y-63448292D01*
X104275451Y-63448292D01*
X104275451Y-62650000D01*
X104269659Y-62591190D01*
X104252504Y-62534640D01*
X104245316Y-62521192D01*
X120772700Y-62521192D01*
X120772700Y-62624608D01*
X120792876Y-62726037D01*
X120832451Y-62821581D01*
X120889906Y-62907568D01*
X120963032Y-62980694D01*
X121049019Y-63038149D01*
X121144563Y-63077724D01*
X121204500Y-63089647D01*
X121204500Y-63140025D01*
X121224676Y-63241454D01*
X121264251Y-63336998D01*
X121321706Y-63422985D01*
X121394832Y-63496111D01*
X121480819Y-63553566D01*
X121528540Y-63573332D01*
X121506616Y-63626263D01*
X121486440Y-63727692D01*
X121486440Y-63831108D01*
X121506616Y-63932537D01*
X121546191Y-64028081D01*
X121603646Y-64114068D01*
X121667440Y-64177862D01*
X121653936Y-64210463D01*
X121633760Y-64311892D01*
X121633760Y-64415308D01*
X121653936Y-64516737D01*
X121693511Y-64612281D01*
X121750966Y-64698268D01*
X121824092Y-64771394D01*
X121888952Y-64814732D01*
X121882536Y-64830223D01*
X121862360Y-64931652D01*
X121862360Y-65035068D01*
X121882536Y-65136497D01*
X121922111Y-65232041D01*
X121979566Y-65318028D01*
X122052692Y-65391154D01*
X122138679Y-65448609D01*
X122234223Y-65488184D01*
X122335652Y-65508360D01*
X122439068Y-65508360D01*
X122540497Y-65488184D01*
X122636041Y-65448609D01*
X122722028Y-65391154D01*
X122795154Y-65318028D01*
X122852609Y-65232041D01*
X122892184Y-65136497D01*
X122912360Y-65035068D01*
X122912360Y-64931652D01*
X122892184Y-64830223D01*
X122852609Y-64734679D01*
X122795154Y-64648692D01*
X122722028Y-64575566D01*
X122657168Y-64532228D01*
X122663584Y-64516737D01*
X122683760Y-64415308D01*
X122683760Y-64311892D01*
X122663584Y-64210463D01*
X122624009Y-64114919D01*
X122566554Y-64028932D01*
X122502760Y-63965138D01*
X122516264Y-63932537D01*
X122536440Y-63831108D01*
X122536440Y-63740392D01*
X125395500Y-63740392D01*
X125395500Y-63843808D01*
X125415676Y-63945237D01*
X125455251Y-64040781D01*
X125512706Y-64126768D01*
X125585832Y-64199894D01*
X125671819Y-64257349D01*
X125767363Y-64296924D01*
X125868792Y-64317100D01*
X125972208Y-64317100D01*
X126073637Y-64296924D01*
X126169181Y-64257349D01*
X126255168Y-64199894D01*
X126328294Y-64126768D01*
X126385749Y-64040781D01*
X126425324Y-63945237D01*
X126445500Y-63843808D01*
X126445500Y-63740392D01*
X126425324Y-63638963D01*
X126385749Y-63543419D01*
X126356738Y-63500000D01*
X128130436Y-63500000D01*
X128152640Y-63725439D01*
X128218398Y-63942215D01*
X128325184Y-64141997D01*
X128468893Y-64317107D01*
X128644003Y-64460816D01*
X128843785Y-64567602D01*
X129060561Y-64633360D01*
X129229508Y-64650000D01*
X129342492Y-64650000D01*
X129511439Y-64633360D01*
X129728215Y-64567602D01*
X129927997Y-64460816D01*
X130103107Y-64317107D01*
X130246816Y-64141997D01*
X130353602Y-63942215D01*
X130419360Y-63725439D01*
X130441564Y-63500000D01*
X130419360Y-63274561D01*
X130353602Y-63057785D01*
X130246816Y-62858003D01*
X130103107Y-62682893D01*
X129927997Y-62539184D01*
X129728215Y-62432398D01*
X129511439Y-62366640D01*
X129342492Y-62350000D01*
X129229508Y-62350000D01*
X129060561Y-62366640D01*
X128843785Y-62432398D01*
X128644003Y-62539184D01*
X128468893Y-62682893D01*
X128325184Y-62858003D01*
X128218398Y-63057785D01*
X128152640Y-63274561D01*
X128130436Y-63500000D01*
X126356738Y-63500000D01*
X126328294Y-63457432D01*
X126255168Y-63384306D01*
X126169181Y-63326851D01*
X126073637Y-63287276D01*
X125972208Y-63267100D01*
X125868792Y-63267100D01*
X125767363Y-63287276D01*
X125671819Y-63326851D01*
X125585832Y-63384306D01*
X125512706Y-63457432D01*
X125455251Y-63543419D01*
X125415676Y-63638963D01*
X125395500Y-63740392D01*
X122536440Y-63740392D01*
X122536440Y-63727692D01*
X122516264Y-63626263D01*
X122476689Y-63530719D01*
X122419234Y-63444732D01*
X122346108Y-63371606D01*
X122260121Y-63314151D01*
X122212400Y-63294385D01*
X122234324Y-63241454D01*
X122254500Y-63140025D01*
X122254500Y-63036609D01*
X122234324Y-62935180D01*
X122194749Y-62839636D01*
X122137294Y-62753649D01*
X122064168Y-62680523D01*
X121978181Y-62623068D01*
X121882637Y-62583493D01*
X121822700Y-62571570D01*
X121822700Y-62521192D01*
X121802524Y-62419763D01*
X121762949Y-62324219D01*
X121705494Y-62238232D01*
X121632368Y-62165106D01*
X121546381Y-62107651D01*
X121450837Y-62068076D01*
X121349408Y-62047900D01*
X121245992Y-62047900D01*
X121144563Y-62068076D01*
X121049019Y-62107651D01*
X120963032Y-62165106D01*
X120889906Y-62238232D01*
X120832451Y-62324219D01*
X120792876Y-62419763D01*
X120772700Y-62521192D01*
X104245316Y-62521192D01*
X104224647Y-62482523D01*
X104187158Y-62436842D01*
X104141477Y-62399353D01*
X104089360Y-62371496D01*
X104032810Y-62354341D01*
X103974000Y-62348549D01*
X102274000Y-62348549D01*
X102215190Y-62354341D01*
X102158640Y-62371496D01*
X102106523Y-62399353D01*
X102060842Y-62436842D01*
X102023353Y-62482523D01*
X101995496Y-62534640D01*
X101978341Y-62591190D01*
X101972549Y-62650000D01*
X101925000Y-62650000D01*
X101925000Y-58520000D01*
X130485001Y-58520000D01*
X130485000Y-105339000D01*
X130485000Y-105339000D01*
G37*
X130485000Y-105339000D02*
X101925000Y-105339000D01*
X101925000Y-104456592D01*
X110180900Y-104456592D01*
X110180900Y-104560008D01*
X110201076Y-104661437D01*
X110240651Y-104756981D01*
X110298106Y-104842968D01*
X110371232Y-104916094D01*
X110457219Y-104973549D01*
X110552763Y-105013124D01*
X110654192Y-105033300D01*
X110757608Y-105033300D01*
X110859037Y-105013124D01*
X110954581Y-104973549D01*
X111040568Y-104916094D01*
X111113694Y-104842968D01*
X111171149Y-104756981D01*
X111210724Y-104661437D01*
X111230900Y-104560008D01*
X111230900Y-104456592D01*
X111210724Y-104355163D01*
X111171149Y-104259619D01*
X111113694Y-104173632D01*
X111040568Y-104100506D01*
X110954581Y-104043051D01*
X110859037Y-104003476D01*
X110757608Y-103983300D01*
X110654192Y-103983300D01*
X110552763Y-104003476D01*
X110457219Y-104043051D01*
X110371232Y-104100506D01*
X110298106Y-104173632D01*
X110240651Y-104259619D01*
X110201076Y-104355163D01*
X110180900Y-104456592D01*
X101925000Y-104456592D01*
X101925000Y-103168812D01*
X123427000Y-103168812D01*
X123427000Y-103272228D01*
X123447176Y-103373657D01*
X123486751Y-103469201D01*
X123544206Y-103555188D01*
X123617332Y-103628314D01*
X123703319Y-103685769D01*
X123798863Y-103725344D01*
X123900292Y-103745520D01*
X124003708Y-103745520D01*
X124105137Y-103725344D01*
X124200681Y-103685769D01*
X124286668Y-103628314D01*
X124334690Y-103580292D01*
X127237000Y-103580292D01*
X127237000Y-103683708D01*
X127257176Y-103785137D01*
X127296751Y-103880681D01*
X127354206Y-103966668D01*
X127427332Y-104039794D01*
X127513319Y-104097249D01*
X127608863Y-104136824D01*
X127710292Y-104157000D01*
X127813708Y-104157000D01*
X127915137Y-104136824D01*
X128010681Y-104097249D01*
X128096668Y-104039794D01*
X128169794Y-103966668D01*
X128227249Y-103880681D01*
X128266824Y-103785137D01*
X128287000Y-103683708D01*
X128287000Y-103580292D01*
X128266824Y-103478863D01*
X128227249Y-103383319D01*
X128169794Y-103297332D01*
X128096668Y-103224206D01*
X128010681Y-103166751D01*
X127915137Y-103127176D01*
X127813708Y-103107000D01*
X127710292Y-103107000D01*
X127608863Y-103127176D01*
X127513319Y-103166751D01*
X127427332Y-103224206D01*
X127354206Y-103297332D01*
X127296751Y-103383319D01*
X127257176Y-103478863D01*
X127237000Y-103580292D01*
X124334690Y-103580292D01*
X124359794Y-103555188D01*
X124417249Y-103469201D01*
X124456824Y-103373657D01*
X124477000Y-103272228D01*
X124477000Y-103168812D01*
X124456824Y-103067383D01*
X124417249Y-102971839D01*
X124359794Y-102885852D01*
X124286668Y-102812726D01*
X124200681Y-102755271D01*
X124105137Y-102715696D01*
X124003708Y-102695520D01*
X123900292Y-102695520D01*
X123798863Y-102715696D01*
X123703319Y-102755271D01*
X123617332Y-102812726D01*
X123544206Y-102885852D01*
X123486751Y-102971839D01*
X123447176Y-103067383D01*
X123427000Y-103168812D01*
X101925000Y-103168812D01*
X101925000Y-101815467D01*
X102420192Y-101815467D01*
X102420192Y-101994133D01*
X102455047Y-102169365D01*
X102523420Y-102334430D01*
X102622681Y-102482984D01*
X102749016Y-102609319D01*
X102897570Y-102708580D01*
X103062635Y-102776953D01*
X103237867Y-102811808D01*
X103416533Y-102811808D01*
X103591765Y-102776953D01*
X103756830Y-102708580D01*
X103905384Y-102609319D01*
X104031719Y-102482984D01*
X104130980Y-102334430D01*
X104199353Y-102169365D01*
X104201635Y-102157892D01*
X124506500Y-102157892D01*
X124506500Y-102261308D01*
X124526676Y-102362737D01*
X124566251Y-102458281D01*
X124623706Y-102544268D01*
X124696832Y-102617394D01*
X124782819Y-102674849D01*
X124878363Y-102714424D01*
X124979792Y-102734600D01*
X125083208Y-102734600D01*
X125184637Y-102714424D01*
X125280181Y-102674849D01*
X125366168Y-102617394D01*
X125439294Y-102544268D01*
X125496749Y-102458281D01*
X125536324Y-102362737D01*
X125556500Y-102261308D01*
X125556500Y-102157892D01*
X125536324Y-102056463D01*
X125496749Y-101960919D01*
X125439294Y-101874932D01*
X125366168Y-101801806D01*
X125280181Y-101744351D01*
X125184637Y-101704776D01*
X125083208Y-101684600D01*
X124979792Y-101684600D01*
X124878363Y-101704776D01*
X124782819Y-101744351D01*
X124696832Y-101801806D01*
X124623706Y-101874932D01*
X124566251Y-101960919D01*
X124526676Y-102056463D01*
X124506500Y-102157892D01*
X104201635Y-102157892D01*
X104234208Y-101994133D01*
X104234208Y-101815467D01*
X104199353Y-101640235D01*
X104130980Y-101475170D01*
X104031719Y-101326616D01*
X103905384Y-101200281D01*
X103756830Y-101101020D01*
X103732862Y-101091092D01*
X106078800Y-101091092D01*
X106078800Y-101194508D01*
X106098976Y-101295937D01*
X106138551Y-101391481D01*
X106196006Y-101477468D01*
X106269132Y-101550594D01*
X106355119Y-101608049D01*
X106450663Y-101647624D01*
X106552092Y-101667800D01*
X106655508Y-101667800D01*
X106756937Y-101647624D01*
X106852481Y-101608049D01*
X106938468Y-101550594D01*
X107011594Y-101477468D01*
X107069049Y-101391481D01*
X107108624Y-101295937D01*
X107128800Y-101194508D01*
X107128800Y-101091092D01*
X107108624Y-100989663D01*
X107092772Y-100951392D01*
X124938300Y-100951392D01*
X124938300Y-101054808D01*
X124958476Y-101156237D01*
X124998051Y-101251781D01*
X125055506Y-101337768D01*
X125128632Y-101410894D01*
X125214619Y-101468349D01*
X125310163Y-101507924D01*
X125411592Y-101528100D01*
X125515008Y-101528100D01*
X125616437Y-101507924D01*
X125711981Y-101468349D01*
X125797968Y-101410894D01*
X125871094Y-101337768D01*
X125928549Y-101251781D01*
X125968124Y-101156237D01*
X125988300Y-101054808D01*
X125988300Y-100951392D01*
X125968124Y-100849963D01*
X125928549Y-100754419D01*
X125871094Y-100668432D01*
X125797968Y-100595306D01*
X125711981Y-100537851D01*
X125616437Y-100498276D01*
X125515008Y-100478100D01*
X125411592Y-100478100D01*
X125310163Y-100498276D01*
X125214619Y-100537851D01*
X125128632Y-100595306D01*
X125055506Y-100668432D01*
X124998051Y-100754419D01*
X124958476Y-100849963D01*
X124938300Y-100951392D01*
X107092772Y-100951392D01*
X107069049Y-100894119D01*
X107011594Y-100808132D01*
X106938468Y-100735006D01*
X106852481Y-100677551D01*
X106756937Y-100637976D01*
X106655508Y-100617800D01*
X106552092Y-100617800D01*
X106450663Y-100637976D01*
X106355119Y-100677551D01*
X106269132Y-100735006D01*
X106196006Y-100808132D01*
X106138551Y-100894119D01*
X106098976Y-100989663D01*
X106078800Y-101091092D01*
X103732862Y-101091092D01*
X103591765Y-101032647D01*
X103416533Y-100997792D01*
X103237867Y-100997792D01*
X103062635Y-101032647D01*
X102897570Y-101101020D01*
X102749016Y-101200281D01*
X102622681Y-101326616D01*
X102523420Y-101475170D01*
X102455047Y-101640235D01*
X102420192Y-101815467D01*
X101925000Y-101815467D01*
X101925000Y-99897292D01*
X125928900Y-99897292D01*
X125928900Y-100000708D01*
X125949076Y-100102137D01*
X125988651Y-100197681D01*
X126046106Y-100283668D01*
X126119232Y-100356794D01*
X126205219Y-100414249D01*
X126300763Y-100453824D01*
X126402192Y-100474000D01*
X126505608Y-100474000D01*
X126607037Y-100453824D01*
X126702581Y-100414249D01*
X126788568Y-100356794D01*
X126861694Y-100283668D01*
X126919149Y-100197681D01*
X126958724Y-100102137D01*
X126978900Y-100000708D01*
X126978900Y-99897292D01*
X126958724Y-99795863D01*
X126919149Y-99700319D01*
X126861694Y-99614332D01*
X126788568Y-99541206D01*
X126702581Y-99483751D01*
X126607037Y-99444176D01*
X126505608Y-99424000D01*
X126402192Y-99424000D01*
X126300763Y-99444176D01*
X126205219Y-99483751D01*
X126119232Y-99541206D01*
X126046106Y-99614332D01*
X125988651Y-99700319D01*
X125949076Y-99795863D01*
X125928900Y-99897292D01*
X101925000Y-99897292D01*
X101925000Y-98767467D01*
X102420192Y-98767467D01*
X102420192Y-98946133D01*
X102455047Y-99121365D01*
X102523420Y-99286430D01*
X102622681Y-99434984D01*
X102749016Y-99561319D01*
X102897570Y-99660580D01*
X103062635Y-99728953D01*
X103237867Y-99763808D01*
X103416533Y-99763808D01*
X103591765Y-99728953D01*
X103756830Y-99660580D01*
X103905384Y-99561319D01*
X104031719Y-99434984D01*
X104130980Y-99286430D01*
X104199353Y-99121365D01*
X104234208Y-98946133D01*
X104234208Y-98767467D01*
X104199353Y-98592235D01*
X104130980Y-98427170D01*
X104031719Y-98278616D01*
X103905384Y-98152281D01*
X103756830Y-98053020D01*
X103591765Y-97984647D01*
X103416533Y-97949792D01*
X103237867Y-97949792D01*
X103062635Y-97984647D01*
X102897570Y-98053020D01*
X102749016Y-98152281D01*
X102622681Y-98278616D01*
X102523420Y-98427170D01*
X102455047Y-98592235D01*
X102420192Y-98767467D01*
X101925000Y-98767467D01*
X101925000Y-90753292D01*
X126678200Y-90753292D01*
X126678200Y-90856708D01*
X126698376Y-90958137D01*
X126737951Y-91053681D01*
X126795406Y-91139668D01*
X126868532Y-91212794D01*
X126954519Y-91270249D01*
X127050063Y-91309824D01*
X127151492Y-91330000D01*
X127254908Y-91330000D01*
X127356337Y-91309824D01*
X127451881Y-91270249D01*
X127537868Y-91212794D01*
X127610994Y-91139668D01*
X127668449Y-91053681D01*
X127708024Y-90958137D01*
X127728200Y-90856708D01*
X127728200Y-90753292D01*
X127708024Y-90651863D01*
X127668449Y-90556319D01*
X127610994Y-90470332D01*
X127537868Y-90397206D01*
X127451881Y-90339751D01*
X127356337Y-90300176D01*
X127254908Y-90280000D01*
X127151492Y-90280000D01*
X127050063Y-90300176D01*
X126954519Y-90339751D01*
X126868532Y-90397206D01*
X126795406Y-90470332D01*
X126737951Y-90556319D01*
X126698376Y-90651863D01*
X126678200Y-90753292D01*
X101925000Y-90753292D01*
X101925000Y-86360000D01*
X101968436Y-86360000D01*
X101990640Y-86585439D01*
X102056398Y-86802215D01*
X102163184Y-87001997D01*
X102306893Y-87177107D01*
X102482003Y-87320816D01*
X102681785Y-87427602D01*
X102898561Y-87493360D01*
X103067508Y-87510000D01*
X103180492Y-87510000D01*
X103349439Y-87493360D01*
X103566215Y-87427602D01*
X103765997Y-87320816D01*
X103941107Y-87177107D01*
X104084816Y-87001997D01*
X104191602Y-86802215D01*
X104257360Y-86585439D01*
X104279564Y-86360000D01*
X104257360Y-86134561D01*
X104191602Y-85917785D01*
X104084816Y-85718003D01*
X103941107Y-85542893D01*
X103901027Y-85510000D01*
X128134549Y-85510000D01*
X128134549Y-87210000D01*
X128140341Y-87268810D01*
X128157496Y-87325360D01*
X128185353Y-87377477D01*
X128222842Y-87423158D01*
X128268523Y-87460647D01*
X128320640Y-87488504D01*
X128377190Y-87505659D01*
X128436000Y-87511451D01*
X130136000Y-87511451D01*
X130194810Y-87505659D01*
X130251360Y-87488504D01*
X130303477Y-87460647D01*
X130349158Y-87423158D01*
X130386647Y-87377477D01*
X130414504Y-87325360D01*
X130431659Y-87268810D01*
X130437451Y-87210000D01*
X130437451Y-85510000D01*
X130431659Y-85451190D01*
X130414504Y-85394640D01*
X130386647Y-85342523D01*
X130349158Y-85296842D01*
X130303477Y-85259353D01*
X130251360Y-85231496D01*
X130194810Y-85214341D01*
X130136000Y-85208549D01*
X128436000Y-85208549D01*
X128377190Y-85214341D01*
X128320640Y-85231496D01*
X128268523Y-85259353D01*
X128222842Y-85296842D01*
X128185353Y-85342523D01*
X128157496Y-85394640D01*
X128140341Y-85451190D01*
X128134549Y-85510000D01*
X103901027Y-85510000D01*
X103765997Y-85399184D01*
X103566215Y-85292398D01*
X103349439Y-85226640D01*
X103180492Y-85210000D01*
X103067508Y-85210000D01*
X102898561Y-85226640D01*
X102681785Y-85292398D01*
X102482003Y-85399184D01*
X102306893Y-85542893D01*
X102163184Y-85718003D01*
X102056398Y-85917785D01*
X101990640Y-86134561D01*
X101968436Y-86360000D01*
X101925000Y-86360000D01*
X101925000Y-83820000D01*
X101968436Y-83820000D01*
X101990640Y-84045439D01*
X102056398Y-84262215D01*
X102163184Y-84461997D01*
X102306893Y-84637107D01*
X102482003Y-84780816D01*
X102681785Y-84887602D01*
X102898561Y-84953360D01*
X103067508Y-84970000D01*
X103180492Y-84970000D01*
X103349439Y-84953360D01*
X103566215Y-84887602D01*
X103765997Y-84780816D01*
X103941107Y-84637107D01*
X104084816Y-84461997D01*
X104191602Y-84262215D01*
X104257360Y-84045439D01*
X104279564Y-83820000D01*
X128130436Y-83820000D01*
X128152640Y-84045439D01*
X128218398Y-84262215D01*
X128325184Y-84461997D01*
X128468893Y-84637107D01*
X128644003Y-84780816D01*
X128843785Y-84887602D01*
X129060561Y-84953360D01*
X129229508Y-84970000D01*
X129342492Y-84970000D01*
X129511439Y-84953360D01*
X129728215Y-84887602D01*
X129927997Y-84780816D01*
X130103107Y-84637107D01*
X130246816Y-84461997D01*
X130353602Y-84262215D01*
X130419360Y-84045439D01*
X130441564Y-83820000D01*
X130419360Y-83594561D01*
X130353602Y-83377785D01*
X130246816Y-83178003D01*
X130103107Y-83002893D01*
X129927997Y-82859184D01*
X129728215Y-82752398D01*
X129511439Y-82686640D01*
X129342492Y-82670000D01*
X129229508Y-82670000D01*
X129060561Y-82686640D01*
X128843785Y-82752398D01*
X128644003Y-82859184D01*
X128468893Y-83002893D01*
X128325184Y-83178003D01*
X128218398Y-83377785D01*
X128152640Y-83594561D01*
X128130436Y-83820000D01*
X104279564Y-83820000D01*
X104257360Y-83594561D01*
X104191602Y-83377785D01*
X104084816Y-83178003D01*
X104006433Y-83082492D01*
X116924600Y-83082492D01*
X116924600Y-83185908D01*
X116944776Y-83287337D01*
X116984351Y-83382881D01*
X117041806Y-83468868D01*
X117114932Y-83541994D01*
X117200919Y-83599449D01*
X117296463Y-83639024D01*
X117397892Y-83659200D01*
X117501308Y-83659200D01*
X117602737Y-83639024D01*
X117698281Y-83599449D01*
X117784268Y-83541994D01*
X117857394Y-83468868D01*
X117914849Y-83382881D01*
X117954424Y-83287337D01*
X117974600Y-83185908D01*
X117974600Y-83082492D01*
X117954424Y-82981063D01*
X117914849Y-82885519D01*
X117857394Y-82799532D01*
X117784268Y-82726406D01*
X117698281Y-82668951D01*
X117602737Y-82629376D01*
X117501308Y-82609200D01*
X117397892Y-82609200D01*
X117296463Y-82629376D01*
X117200919Y-82668951D01*
X117114932Y-82726406D01*
X117041806Y-82799532D01*
X116984351Y-82885519D01*
X116944776Y-82981063D01*
X116924600Y-83082492D01*
X104006433Y-83082492D01*
X103941107Y-83002893D01*
X103765997Y-82859184D01*
X103566215Y-82752398D01*
X103349439Y-82686640D01*
X103180492Y-82670000D01*
X103067508Y-82670000D01*
X102898561Y-82686640D01*
X102681785Y-82752398D01*
X102482003Y-82859184D01*
X102306893Y-83002893D01*
X102163184Y-83178003D01*
X102056398Y-83377785D01*
X101990640Y-83594561D01*
X101968436Y-83820000D01*
X101925000Y-83820000D01*
X101925000Y-81280000D01*
X101968436Y-81280000D01*
X101990640Y-81505439D01*
X102056398Y-81722215D01*
X102163184Y-81921997D01*
X102306893Y-82097107D01*
X102482003Y-82240816D01*
X102681785Y-82347602D01*
X102898561Y-82413360D01*
X103067508Y-82430000D01*
X103180492Y-82430000D01*
X103349439Y-82413360D01*
X103566215Y-82347602D01*
X103765997Y-82240816D01*
X103941107Y-82097107D01*
X104084816Y-81921997D01*
X104191602Y-81722215D01*
X104241266Y-81558492D01*
X115476800Y-81558492D01*
X115476800Y-81661908D01*
X115496976Y-81763337D01*
X115536551Y-81858881D01*
X115594006Y-81944868D01*
X115667132Y-82017994D01*
X115753119Y-82075449D01*
X115848663Y-82115024D01*
X115950092Y-82135200D01*
X116053508Y-82135200D01*
X116154937Y-82115024D01*
X116250481Y-82075449D01*
X116336468Y-82017994D01*
X116409594Y-81944868D01*
X116467049Y-81858881D01*
X116506624Y-81763337D01*
X116526800Y-81661908D01*
X116526800Y-81558492D01*
X116506624Y-81457063D01*
X116467049Y-81361519D01*
X116409594Y-81275532D01*
X116336468Y-81202406D01*
X116250481Y-81144951D01*
X116154937Y-81105376D01*
X116053508Y-81085200D01*
X115950092Y-81085200D01*
X115848663Y-81105376D01*
X115753119Y-81144951D01*
X115667132Y-81202406D01*
X115594006Y-81275532D01*
X115536551Y-81361519D01*
X115496976Y-81457063D01*
X115476800Y-81558492D01*
X104241266Y-81558492D01*
X104257360Y-81505439D01*
X104279564Y-81280000D01*
X104257360Y-81054561D01*
X104233011Y-80974292D01*
X114156000Y-80974292D01*
X114156000Y-81077708D01*
X114176176Y-81179137D01*
X114215751Y-81274681D01*
X114273206Y-81360668D01*
X114346332Y-81433794D01*
X114432319Y-81491249D01*
X114527863Y-81530824D01*
X114629292Y-81551000D01*
X114732708Y-81551000D01*
X114834137Y-81530824D01*
X114929681Y-81491249D01*
X115015668Y-81433794D01*
X115088794Y-81360668D01*
X115146249Y-81274681D01*
X115185824Y-81179137D01*
X115206000Y-81077708D01*
X115206000Y-80974292D01*
X115188317Y-80885392D01*
X117026200Y-80885392D01*
X117026200Y-80988808D01*
X117046376Y-81090237D01*
X117085951Y-81185781D01*
X117143406Y-81271768D01*
X117216532Y-81344894D01*
X117302519Y-81402349D01*
X117398063Y-81441924D01*
X117499492Y-81462100D01*
X117602908Y-81462100D01*
X117704337Y-81441924D01*
X117799881Y-81402349D01*
X117885868Y-81344894D01*
X117950762Y-81280000D01*
X128130436Y-81280000D01*
X128152640Y-81505439D01*
X128218398Y-81722215D01*
X128325184Y-81921997D01*
X128468893Y-82097107D01*
X128644003Y-82240816D01*
X128843785Y-82347602D01*
X129060561Y-82413360D01*
X129229508Y-82430000D01*
X129342492Y-82430000D01*
X129511439Y-82413360D01*
X129728215Y-82347602D01*
X129927997Y-82240816D01*
X130103107Y-82097107D01*
X130246816Y-81921997D01*
X130353602Y-81722215D01*
X130419360Y-81505439D01*
X130441564Y-81280000D01*
X130419360Y-81054561D01*
X130353602Y-80837785D01*
X130246816Y-80638003D01*
X130103107Y-80462893D01*
X129927997Y-80319184D01*
X129728215Y-80212398D01*
X129511439Y-80146640D01*
X129342492Y-80130000D01*
X129229508Y-80130000D01*
X129060561Y-80146640D01*
X128843785Y-80212398D01*
X128644003Y-80319184D01*
X128468893Y-80462893D01*
X128325184Y-80638003D01*
X128218398Y-80837785D01*
X128152640Y-81054561D01*
X128130436Y-81280000D01*
X117950762Y-81280000D01*
X117958994Y-81271768D01*
X118016449Y-81185781D01*
X118056024Y-81090237D01*
X118076200Y-80988808D01*
X118076200Y-80885392D01*
X118056024Y-80783963D01*
X118016449Y-80688419D01*
X117958994Y-80602432D01*
X117885868Y-80529306D01*
X117799881Y-80471851D01*
X117704337Y-80432276D01*
X117602908Y-80412100D01*
X117499492Y-80412100D01*
X117398063Y-80432276D01*
X117302519Y-80471851D01*
X117216532Y-80529306D01*
X117143406Y-80602432D01*
X117085951Y-80688419D01*
X117046376Y-80783963D01*
X117026200Y-80885392D01*
X115188317Y-80885392D01*
X115185824Y-80872863D01*
X115146249Y-80777319D01*
X115088794Y-80691332D01*
X115015668Y-80618206D01*
X114929681Y-80560751D01*
X114834137Y-80521176D01*
X114732708Y-80501000D01*
X114629292Y-80501000D01*
X114527863Y-80521176D01*
X114432319Y-80560751D01*
X114346332Y-80618206D01*
X114273206Y-80691332D01*
X114215751Y-80777319D01*
X114176176Y-80872863D01*
X114156000Y-80974292D01*
X104233011Y-80974292D01*
X104191602Y-80837785D01*
X104084816Y-80638003D01*
X103941107Y-80462893D01*
X103765997Y-80319184D01*
X103566215Y-80212398D01*
X103349439Y-80146640D01*
X103180492Y-80130000D01*
X103067508Y-80130000D01*
X102898561Y-80146640D01*
X102681785Y-80212398D01*
X102482003Y-80319184D01*
X102306893Y-80462893D01*
X102163184Y-80638003D01*
X102056398Y-80837785D01*
X101990640Y-81054561D01*
X101968436Y-81280000D01*
X101925000Y-81280000D01*
X101925000Y-78740000D01*
X101968436Y-78740000D01*
X101990640Y-78965439D01*
X102056398Y-79182215D01*
X102163184Y-79381997D01*
X102306893Y-79557107D01*
X102482003Y-79700816D01*
X102681785Y-79807602D01*
X102898561Y-79873360D01*
X103067508Y-79890000D01*
X103180492Y-79890000D01*
X103349439Y-79873360D01*
X103566215Y-79807602D01*
X103765997Y-79700816D01*
X103941107Y-79557107D01*
X104084816Y-79381997D01*
X104191602Y-79182215D01*
X104257360Y-78965439D01*
X104279564Y-78740000D01*
X104259461Y-78535892D01*
X112639190Y-78535892D01*
X112639190Y-78639308D01*
X112659366Y-78740737D01*
X112698941Y-78836281D01*
X112756396Y-78922268D01*
X112829522Y-78995394D01*
X112915509Y-79052849D01*
X113011053Y-79092424D01*
X113112482Y-79112600D01*
X113215898Y-79112600D01*
X113317327Y-79092424D01*
X113323797Y-79089744D01*
X113323797Y-79121618D01*
X113343973Y-79223047D01*
X113383548Y-79318591D01*
X113441003Y-79404578D01*
X113514129Y-79477704D01*
X113600116Y-79535159D01*
X113695660Y-79574734D01*
X113797089Y-79594910D01*
X113900505Y-79594910D01*
X114001934Y-79574734D01*
X114057080Y-79551892D01*
X117762800Y-79551892D01*
X117762800Y-79655308D01*
X117782976Y-79756737D01*
X117822551Y-79852281D01*
X117880006Y-79938268D01*
X117953132Y-80011394D01*
X118039119Y-80068849D01*
X118134663Y-80108424D01*
X118236092Y-80128600D01*
X118339508Y-80128600D01*
X118440937Y-80108424D01*
X118536481Y-80068849D01*
X118622468Y-80011394D01*
X118695594Y-79938268D01*
X118753049Y-79852281D01*
X118792624Y-79756737D01*
X118812800Y-79655308D01*
X118812800Y-79551892D01*
X118792624Y-79450463D01*
X118753049Y-79354919D01*
X118695594Y-79268932D01*
X118622468Y-79195806D01*
X118536481Y-79138351D01*
X118440937Y-79098776D01*
X118339508Y-79078600D01*
X118236092Y-79078600D01*
X118134663Y-79098776D01*
X118039119Y-79138351D01*
X117953132Y-79195806D01*
X117880006Y-79268932D01*
X117822551Y-79354919D01*
X117782976Y-79450463D01*
X117762800Y-79551892D01*
X114057080Y-79551892D01*
X114097478Y-79535159D01*
X114183465Y-79477704D01*
X114256591Y-79404578D01*
X114314046Y-79318591D01*
X114353621Y-79223047D01*
X114373797Y-79121618D01*
X114373797Y-79018202D01*
X114353621Y-78916773D01*
X114322108Y-78840692D01*
X118956600Y-78840692D01*
X118956600Y-78944108D01*
X118976776Y-79045537D01*
X119016351Y-79141081D01*
X119073806Y-79227068D01*
X119146932Y-79300194D01*
X119232919Y-79357649D01*
X119328463Y-79397224D01*
X119429892Y-79417400D01*
X119533308Y-79417400D01*
X119634737Y-79397224D01*
X119730281Y-79357649D01*
X119816268Y-79300194D01*
X119889394Y-79227068D01*
X119946849Y-79141081D01*
X119986424Y-79045537D01*
X120006600Y-78944108D01*
X120006600Y-78840692D01*
X119986571Y-78740000D01*
X128130436Y-78740000D01*
X128152640Y-78965439D01*
X128218398Y-79182215D01*
X128325184Y-79381997D01*
X128468893Y-79557107D01*
X128644003Y-79700816D01*
X128843785Y-79807602D01*
X129060561Y-79873360D01*
X129229508Y-79890000D01*
X129342492Y-79890000D01*
X129511439Y-79873360D01*
X129728215Y-79807602D01*
X129927997Y-79700816D01*
X130103107Y-79557107D01*
X130246816Y-79381997D01*
X130353602Y-79182215D01*
X130419360Y-78965439D01*
X130441564Y-78740000D01*
X130419360Y-78514561D01*
X130353602Y-78297785D01*
X130246816Y-78098003D01*
X130103107Y-77922893D01*
X129927997Y-77779184D01*
X129728215Y-77672398D01*
X129511439Y-77606640D01*
X129342492Y-77590000D01*
X129229508Y-77590000D01*
X129060561Y-77606640D01*
X128843785Y-77672398D01*
X128644003Y-77779184D01*
X128468893Y-77922893D01*
X128325184Y-78098003D01*
X128218398Y-78297785D01*
X128152640Y-78514561D01*
X128130436Y-78740000D01*
X119986571Y-78740000D01*
X119986424Y-78739263D01*
X119946849Y-78643719D01*
X119889394Y-78557732D01*
X119816268Y-78484606D01*
X119730281Y-78427151D01*
X119634737Y-78387576D01*
X119533308Y-78367400D01*
X119429892Y-78367400D01*
X119328463Y-78387576D01*
X119232919Y-78427151D01*
X119146932Y-78484606D01*
X119073806Y-78557732D01*
X119016351Y-78643719D01*
X118976776Y-78739263D01*
X118956600Y-78840692D01*
X114322108Y-78840692D01*
X114314046Y-78821229D01*
X114256591Y-78735242D01*
X114183465Y-78662116D01*
X114097478Y-78604661D01*
X114001934Y-78565086D01*
X113900505Y-78544910D01*
X113797089Y-78544910D01*
X113695660Y-78565086D01*
X113689190Y-78567766D01*
X113689190Y-78535892D01*
X113669014Y-78434463D01*
X113629439Y-78338919D01*
X113571984Y-78252932D01*
X113498858Y-78179806D01*
X113412871Y-78122351D01*
X113317327Y-78082776D01*
X113215898Y-78062600D01*
X113112482Y-78062600D01*
X113011053Y-78082776D01*
X112915509Y-78122351D01*
X112829522Y-78179806D01*
X112756396Y-78252932D01*
X112698941Y-78338919D01*
X112659366Y-78434463D01*
X112639190Y-78535892D01*
X104259461Y-78535892D01*
X104257360Y-78514561D01*
X104191602Y-78297785D01*
X104084816Y-78098003D01*
X103941107Y-77922893D01*
X103765997Y-77779184D01*
X103566215Y-77672398D01*
X103349439Y-77606640D01*
X103180492Y-77590000D01*
X103067508Y-77590000D01*
X102898561Y-77606640D01*
X102681785Y-77672398D01*
X102482003Y-77779184D01*
X102306893Y-77922893D01*
X102163184Y-78098003D01*
X102056398Y-78297785D01*
X101990640Y-78514561D01*
X101968436Y-78740000D01*
X101925000Y-78740000D01*
X101925000Y-76200000D01*
X101968436Y-76200000D01*
X101990640Y-76425439D01*
X102056398Y-76642215D01*
X102163184Y-76841997D01*
X102306893Y-77017107D01*
X102482003Y-77160816D01*
X102681785Y-77267602D01*
X102898561Y-77333360D01*
X103067508Y-77350000D01*
X103180492Y-77350000D01*
X103349439Y-77333360D01*
X103566215Y-77267602D01*
X103765997Y-77160816D01*
X103941107Y-77017107D01*
X104084816Y-76841997D01*
X104129771Y-76757892D01*
X116238800Y-76757892D01*
X116238800Y-76861308D01*
X116258976Y-76962737D01*
X116298551Y-77058281D01*
X116356006Y-77144268D01*
X116429132Y-77217394D01*
X116515119Y-77274849D01*
X116610663Y-77314424D01*
X116712092Y-77334600D01*
X116815508Y-77334600D01*
X116916937Y-77314424D01*
X117012481Y-77274849D01*
X117098468Y-77217394D01*
X117171594Y-77144268D01*
X117209129Y-77088092D01*
X117331000Y-77088092D01*
X117331000Y-77191508D01*
X117351176Y-77292937D01*
X117390751Y-77388481D01*
X117448206Y-77474468D01*
X117521332Y-77547594D01*
X117607319Y-77605049D01*
X117702863Y-77644624D01*
X117804292Y-77664800D01*
X117907708Y-77664800D01*
X118009137Y-77644624D01*
X118104681Y-77605049D01*
X118190668Y-77547594D01*
X118263794Y-77474468D01*
X118321249Y-77388481D01*
X118360824Y-77292937D01*
X118381000Y-77191508D01*
X118381000Y-77088092D01*
X118360824Y-76986663D01*
X118321249Y-76891119D01*
X118263794Y-76805132D01*
X118190668Y-76732006D01*
X118104681Y-76674551D01*
X118009137Y-76634976D01*
X117907708Y-76614800D01*
X117804292Y-76614800D01*
X117702863Y-76634976D01*
X117607319Y-76674551D01*
X117521332Y-76732006D01*
X117448206Y-76805132D01*
X117390751Y-76891119D01*
X117351176Y-76986663D01*
X117331000Y-77088092D01*
X117209129Y-77088092D01*
X117229049Y-77058281D01*
X117268624Y-76962737D01*
X117288800Y-76861308D01*
X117288800Y-76757892D01*
X117268624Y-76656463D01*
X117229049Y-76560919D01*
X117171594Y-76474932D01*
X117098468Y-76401806D01*
X117012481Y-76344351D01*
X116916937Y-76304776D01*
X116815508Y-76284600D01*
X116712092Y-76284600D01*
X116610663Y-76304776D01*
X116515119Y-76344351D01*
X116429132Y-76401806D01*
X116356006Y-76474932D01*
X116298551Y-76560919D01*
X116258976Y-76656463D01*
X116238800Y-76757892D01*
X104129771Y-76757892D01*
X104191602Y-76642215D01*
X104257360Y-76425439D01*
X104279564Y-76200000D01*
X128130436Y-76200000D01*
X128152640Y-76425439D01*
X128218398Y-76642215D01*
X128325184Y-76841997D01*
X128468893Y-77017107D01*
X128644003Y-77160816D01*
X128843785Y-77267602D01*
X129060561Y-77333360D01*
X129229508Y-77350000D01*
X129342492Y-77350000D01*
X129511439Y-77333360D01*
X129728215Y-77267602D01*
X129927997Y-77160816D01*
X130103107Y-77017107D01*
X130246816Y-76841997D01*
X130353602Y-76642215D01*
X130419360Y-76425439D01*
X130441564Y-76200000D01*
X130419360Y-75974561D01*
X130353602Y-75757785D01*
X130246816Y-75558003D01*
X130103107Y-75382893D01*
X129927997Y-75239184D01*
X129728215Y-75132398D01*
X129511439Y-75066640D01*
X129342492Y-75050000D01*
X129229508Y-75050000D01*
X129060561Y-75066640D01*
X128843785Y-75132398D01*
X128644003Y-75239184D01*
X128468893Y-75382893D01*
X128325184Y-75558003D01*
X128218398Y-75757785D01*
X128152640Y-75974561D01*
X128130436Y-76200000D01*
X104279564Y-76200000D01*
X104257360Y-75974561D01*
X104191602Y-75757785D01*
X104084816Y-75558003D01*
X103941107Y-75382893D01*
X103765997Y-75239184D01*
X103566215Y-75132398D01*
X103349439Y-75066640D01*
X103180492Y-75050000D01*
X103067508Y-75050000D01*
X102898561Y-75066640D01*
X102681785Y-75132398D01*
X102482003Y-75239184D01*
X102306893Y-75382893D01*
X102163184Y-75558003D01*
X102056398Y-75757785D01*
X101990640Y-75974561D01*
X101968436Y-76200000D01*
X101925000Y-76200000D01*
X101925000Y-73660000D01*
X101968436Y-73660000D01*
X101990640Y-73885439D01*
X102056398Y-74102215D01*
X102163184Y-74301997D01*
X102306893Y-74477107D01*
X102482003Y-74620816D01*
X102681785Y-74727602D01*
X102898561Y-74793360D01*
X103067508Y-74810000D01*
X103180492Y-74810000D01*
X103349439Y-74793360D01*
X103566215Y-74727602D01*
X103765997Y-74620816D01*
X103941107Y-74477107D01*
X104084816Y-74301997D01*
X104191602Y-74102215D01*
X104210446Y-74040092D01*
X111285800Y-74040092D01*
X111285800Y-74143508D01*
X111305976Y-74244937D01*
X111345551Y-74340481D01*
X111403006Y-74426468D01*
X111476132Y-74499594D01*
X111562119Y-74557049D01*
X111657663Y-74596624D01*
X111759092Y-74616800D01*
X111862508Y-74616800D01*
X111963937Y-74596624D01*
X112059481Y-74557049D01*
X112145468Y-74499594D01*
X112218594Y-74426468D01*
X112276049Y-74340481D01*
X112315624Y-74244937D01*
X112335800Y-74143508D01*
X112335800Y-74040092D01*
X112315624Y-73938663D01*
X112276049Y-73843119D01*
X112218594Y-73757132D01*
X112145468Y-73684006D01*
X112109541Y-73660000D01*
X128130436Y-73660000D01*
X128152640Y-73885439D01*
X128218398Y-74102215D01*
X128325184Y-74301997D01*
X128468893Y-74477107D01*
X128644003Y-74620816D01*
X128843785Y-74727602D01*
X129060561Y-74793360D01*
X129229508Y-74810000D01*
X129342492Y-74810000D01*
X129511439Y-74793360D01*
X129728215Y-74727602D01*
X129927997Y-74620816D01*
X130103107Y-74477107D01*
X130246816Y-74301997D01*
X130353602Y-74102215D01*
X130419360Y-73885439D01*
X130441564Y-73660000D01*
X130419360Y-73434561D01*
X130353602Y-73217785D01*
X130246816Y-73018003D01*
X130103107Y-72842893D01*
X129927997Y-72699184D01*
X129728215Y-72592398D01*
X129511439Y-72526640D01*
X129342492Y-72510000D01*
X129229508Y-72510000D01*
X129060561Y-72526640D01*
X128843785Y-72592398D01*
X128644003Y-72699184D01*
X128468893Y-72842893D01*
X128325184Y-73018003D01*
X128218398Y-73217785D01*
X128152640Y-73434561D01*
X128130436Y-73660000D01*
X112109541Y-73660000D01*
X112059481Y-73626551D01*
X111963937Y-73586976D01*
X111862508Y-73566800D01*
X111759092Y-73566800D01*
X111657663Y-73586976D01*
X111562119Y-73626551D01*
X111476132Y-73684006D01*
X111403006Y-73757132D01*
X111345551Y-73843119D01*
X111305976Y-73938663D01*
X111285800Y-74040092D01*
X104210446Y-74040092D01*
X104257360Y-73885439D01*
X104279564Y-73660000D01*
X104257360Y-73434561D01*
X104191602Y-73217785D01*
X104084816Y-73018003D01*
X103941107Y-72842893D01*
X103765997Y-72699184D01*
X103566215Y-72592398D01*
X103349439Y-72526640D01*
X103180492Y-72510000D01*
X103067508Y-72510000D01*
X102898561Y-72526640D01*
X102681785Y-72592398D01*
X102482003Y-72699184D01*
X102306893Y-72842893D01*
X102163184Y-73018003D01*
X102056398Y-73217785D01*
X101990640Y-73434561D01*
X101968436Y-73660000D01*
X101925000Y-73660000D01*
X101925000Y-71120000D01*
X101968436Y-71120000D01*
X101990640Y-71345439D01*
X102056398Y-71562215D01*
X102163184Y-71761997D01*
X102306893Y-71937107D01*
X102482003Y-72080816D01*
X102681785Y-72187602D01*
X102898561Y-72253360D01*
X103067508Y-72270000D01*
X103180492Y-72270000D01*
X103349439Y-72253360D01*
X103566215Y-72187602D01*
X103765997Y-72080816D01*
X103941107Y-71937107D01*
X104084816Y-71761997D01*
X104191602Y-71562215D01*
X104257360Y-71345439D01*
X104279564Y-71120000D01*
X104259461Y-70915892D01*
X121979200Y-70915892D01*
X121979200Y-71019308D01*
X121999376Y-71120737D01*
X122038951Y-71216281D01*
X122096406Y-71302268D01*
X122169532Y-71375394D01*
X122255519Y-71432849D01*
X122351063Y-71472424D01*
X122452492Y-71492600D01*
X122555908Y-71492600D01*
X122657337Y-71472424D01*
X122752881Y-71432849D01*
X122838868Y-71375394D01*
X122911994Y-71302268D01*
X122969449Y-71216281D01*
X123009024Y-71120737D01*
X123009170Y-71120000D01*
X128130436Y-71120000D01*
X128152640Y-71345439D01*
X128218398Y-71562215D01*
X128325184Y-71761997D01*
X128468893Y-71937107D01*
X128644003Y-72080816D01*
X128843785Y-72187602D01*
X129060561Y-72253360D01*
X129229508Y-72270000D01*
X129342492Y-72270000D01*
X129511439Y-72253360D01*
X129728215Y-72187602D01*
X129927997Y-72080816D01*
X130103107Y-71937107D01*
X130246816Y-71761997D01*
X130353602Y-71562215D01*
X130419360Y-71345439D01*
X130441564Y-71120000D01*
X130419360Y-70894561D01*
X130353602Y-70677785D01*
X130246816Y-70478003D01*
X130103107Y-70302893D01*
X129927997Y-70159184D01*
X129728215Y-70052398D01*
X129511439Y-69986640D01*
X129342492Y-69970000D01*
X129229508Y-69970000D01*
X129060561Y-69986640D01*
X128843785Y-70052398D01*
X128644003Y-70159184D01*
X128468893Y-70302893D01*
X128325184Y-70478003D01*
X128218398Y-70677785D01*
X128152640Y-70894561D01*
X128130436Y-71120000D01*
X123009170Y-71120000D01*
X123029200Y-71019308D01*
X123029200Y-70915892D01*
X123009024Y-70814463D01*
X122969449Y-70718919D01*
X122911994Y-70632932D01*
X122838868Y-70559806D01*
X122752881Y-70502351D01*
X122657337Y-70462776D01*
X122555908Y-70442600D01*
X122452492Y-70442600D01*
X122351063Y-70462776D01*
X122255519Y-70502351D01*
X122169532Y-70559806D01*
X122096406Y-70632932D01*
X122038951Y-70718919D01*
X121999376Y-70814463D01*
X121979200Y-70915892D01*
X104259461Y-70915892D01*
X104257360Y-70894561D01*
X104191602Y-70677785D01*
X104084816Y-70478003D01*
X103941107Y-70302893D01*
X103765997Y-70159184D01*
X103566215Y-70052398D01*
X103349439Y-69986640D01*
X103180492Y-69970000D01*
X103067508Y-69970000D01*
X102898561Y-69986640D01*
X102681785Y-70052398D01*
X102482003Y-70159184D01*
X102306893Y-70302893D01*
X102163184Y-70478003D01*
X102056398Y-70677785D01*
X101990640Y-70894561D01*
X101968436Y-71120000D01*
X101925000Y-71120000D01*
X101925000Y-68580000D01*
X101968436Y-68580000D01*
X101990640Y-68805439D01*
X102056398Y-69022215D01*
X102163184Y-69221997D01*
X102306893Y-69397107D01*
X102482003Y-69540816D01*
X102681785Y-69647602D01*
X102898561Y-69713360D01*
X103067508Y-69730000D01*
X103180492Y-69730000D01*
X103349439Y-69713360D01*
X103566215Y-69647602D01*
X103765997Y-69540816D01*
X103941107Y-69397107D01*
X104084816Y-69221997D01*
X104191602Y-69022215D01*
X104257360Y-68805439D01*
X104279564Y-68580000D01*
X104257360Y-68354561D01*
X104191602Y-68137785D01*
X104084816Y-67938003D01*
X103941107Y-67762893D01*
X103765997Y-67619184D01*
X103566215Y-67512398D01*
X103532373Y-67502132D01*
X121628680Y-67502132D01*
X121628680Y-67605548D01*
X121648856Y-67706977D01*
X121688431Y-67802521D01*
X121745886Y-67888508D01*
X121819012Y-67961634D01*
X121904999Y-68019089D01*
X122000543Y-68058664D01*
X122007552Y-68060058D01*
X122006972Y-68060446D01*
X121933846Y-68133572D01*
X121876391Y-68219559D01*
X121836816Y-68315103D01*
X121816640Y-68416532D01*
X121816640Y-68519948D01*
X121836816Y-68621377D01*
X121876391Y-68716921D01*
X121933846Y-68802908D01*
X122006972Y-68876034D01*
X122092959Y-68933489D01*
X122188503Y-68973064D01*
X122289932Y-68993240D01*
X122393348Y-68993240D01*
X122494777Y-68973064D01*
X122590321Y-68933489D01*
X122676308Y-68876034D01*
X122749434Y-68802908D01*
X122806889Y-68716921D01*
X122846464Y-68621377D01*
X122854694Y-68580000D01*
X128130436Y-68580000D01*
X128152640Y-68805439D01*
X128218398Y-69022215D01*
X128325184Y-69221997D01*
X128468893Y-69397107D01*
X128644003Y-69540816D01*
X128843785Y-69647602D01*
X129060561Y-69713360D01*
X129229508Y-69730000D01*
X129342492Y-69730000D01*
X129511439Y-69713360D01*
X129728215Y-69647602D01*
X129927997Y-69540816D01*
X130103107Y-69397107D01*
X130246816Y-69221997D01*
X130353602Y-69022215D01*
X130419360Y-68805439D01*
X130441564Y-68580000D01*
X130419360Y-68354561D01*
X130353602Y-68137785D01*
X130246816Y-67938003D01*
X130103107Y-67762893D01*
X129927997Y-67619184D01*
X129728215Y-67512398D01*
X129511439Y-67446640D01*
X129342492Y-67430000D01*
X129229508Y-67430000D01*
X129060561Y-67446640D01*
X128843785Y-67512398D01*
X128644003Y-67619184D01*
X128468893Y-67762893D01*
X128325184Y-67938003D01*
X128218398Y-68137785D01*
X128152640Y-68354561D01*
X128130436Y-68580000D01*
X122854694Y-68580000D01*
X122866640Y-68519948D01*
X122866640Y-68416532D01*
X122846464Y-68315103D01*
X122806889Y-68219559D01*
X122749434Y-68133572D01*
X122676308Y-68060446D01*
X122590321Y-68002991D01*
X122494777Y-67963416D01*
X122487768Y-67962022D01*
X122488348Y-67961634D01*
X122561474Y-67888508D01*
X122618929Y-67802521D01*
X122658504Y-67706977D01*
X122678680Y-67605548D01*
X122678680Y-67502132D01*
X122658504Y-67400703D01*
X122618929Y-67305159D01*
X122561474Y-67219172D01*
X122488348Y-67146046D01*
X122402361Y-67088591D01*
X122306817Y-67049016D01*
X122205388Y-67028840D01*
X122101972Y-67028840D01*
X122000543Y-67049016D01*
X121904999Y-67088591D01*
X121819012Y-67146046D01*
X121745886Y-67219172D01*
X121688431Y-67305159D01*
X121648856Y-67400703D01*
X121628680Y-67502132D01*
X103532373Y-67502132D01*
X103349439Y-67446640D01*
X103180492Y-67430000D01*
X103067508Y-67430000D01*
X102898561Y-67446640D01*
X102681785Y-67512398D01*
X102482003Y-67619184D01*
X102306893Y-67762893D01*
X102163184Y-67938003D01*
X102056398Y-68137785D01*
X101990640Y-68354561D01*
X101968436Y-68580000D01*
X101925000Y-68580000D01*
X101925000Y-66040000D01*
X101968436Y-66040000D01*
X101990640Y-66265439D01*
X102056398Y-66482215D01*
X102163184Y-66681997D01*
X102306893Y-66857107D01*
X102482003Y-67000816D01*
X102681785Y-67107602D01*
X102898561Y-67173360D01*
X103067508Y-67190000D01*
X103180492Y-67190000D01*
X103349439Y-67173360D01*
X103566215Y-67107602D01*
X103765997Y-67000816D01*
X103941107Y-66857107D01*
X104084816Y-66681997D01*
X104191602Y-66482215D01*
X104257360Y-66265439D01*
X104279564Y-66040000D01*
X104257360Y-65814561D01*
X104217601Y-65683492D01*
X111311200Y-65683492D01*
X111311200Y-65786908D01*
X111331376Y-65888337D01*
X111370951Y-65983881D01*
X111428406Y-66069868D01*
X111501532Y-66142994D01*
X111523308Y-66157544D01*
X111509176Y-66191663D01*
X111489000Y-66293092D01*
X111489000Y-66396508D01*
X111509176Y-66497937D01*
X111548751Y-66593481D01*
X111606206Y-66679468D01*
X111679332Y-66752594D01*
X111765319Y-66810049D01*
X111860863Y-66849624D01*
X111962292Y-66869800D01*
X112065708Y-66869800D01*
X112167137Y-66849624D01*
X112262681Y-66810049D01*
X112348668Y-66752594D01*
X112394980Y-66706282D01*
X112596440Y-66706282D01*
X112596440Y-66809698D01*
X112616616Y-66911127D01*
X112656191Y-67006671D01*
X112713646Y-67092658D01*
X112786772Y-67165784D01*
X112872759Y-67223239D01*
X112968303Y-67262814D01*
X113069732Y-67282990D01*
X113173148Y-67282990D01*
X113274577Y-67262814D01*
X113370121Y-67223239D01*
X113456108Y-67165784D01*
X113529234Y-67092658D01*
X113586689Y-67006671D01*
X113626264Y-66911127D01*
X113646440Y-66809698D01*
X113646440Y-66706282D01*
X113626264Y-66604853D01*
X113586689Y-66509309D01*
X113529234Y-66423322D01*
X113456108Y-66350196D01*
X113370121Y-66292741D01*
X113274577Y-66253166D01*
X113173148Y-66232990D01*
X113069732Y-66232990D01*
X112968303Y-66253166D01*
X112872759Y-66292741D01*
X112786772Y-66350196D01*
X112713646Y-66423322D01*
X112656191Y-66509309D01*
X112616616Y-66604853D01*
X112596440Y-66706282D01*
X112394980Y-66706282D01*
X112421794Y-66679468D01*
X112479249Y-66593481D01*
X112518824Y-66497937D01*
X112539000Y-66396508D01*
X112539000Y-66293092D01*
X112518824Y-66191663D01*
X112479249Y-66096119D01*
X112441752Y-66040000D01*
X128130436Y-66040000D01*
X128152640Y-66265439D01*
X128218398Y-66482215D01*
X128325184Y-66681997D01*
X128468893Y-66857107D01*
X128644003Y-67000816D01*
X128843785Y-67107602D01*
X129060561Y-67173360D01*
X129229508Y-67190000D01*
X129342492Y-67190000D01*
X129511439Y-67173360D01*
X129728215Y-67107602D01*
X129927997Y-67000816D01*
X130103107Y-66857107D01*
X130246816Y-66681997D01*
X130353602Y-66482215D01*
X130419360Y-66265439D01*
X130441564Y-66040000D01*
X130419360Y-65814561D01*
X130353602Y-65597785D01*
X130246816Y-65398003D01*
X130103107Y-65222893D01*
X129927997Y-65079184D01*
X129728215Y-64972398D01*
X129511439Y-64906640D01*
X129342492Y-64890000D01*
X129229508Y-64890000D01*
X129060561Y-64906640D01*
X128843785Y-64972398D01*
X128644003Y-65079184D01*
X128468893Y-65222893D01*
X128325184Y-65398003D01*
X128218398Y-65597785D01*
X128152640Y-65814561D01*
X128130436Y-66040000D01*
X112441752Y-66040000D01*
X112421794Y-66010132D01*
X112348668Y-65937006D01*
X112326892Y-65922456D01*
X112341024Y-65888337D01*
X112361200Y-65786908D01*
X112361200Y-65683492D01*
X112341024Y-65582063D01*
X112301449Y-65486519D01*
X112243994Y-65400532D01*
X112170868Y-65327406D01*
X112084881Y-65269951D01*
X111989337Y-65230376D01*
X111887908Y-65210200D01*
X111784492Y-65210200D01*
X111683063Y-65230376D01*
X111587519Y-65269951D01*
X111501532Y-65327406D01*
X111428406Y-65400532D01*
X111370951Y-65486519D01*
X111331376Y-65582063D01*
X111311200Y-65683492D01*
X104217601Y-65683492D01*
X104191602Y-65597785D01*
X104084816Y-65398003D01*
X103941107Y-65222893D01*
X103765997Y-65079184D01*
X103566215Y-64972398D01*
X103349439Y-64906640D01*
X103180492Y-64890000D01*
X103067508Y-64890000D01*
X102898561Y-64906640D01*
X102681785Y-64972398D01*
X102482003Y-65079184D01*
X102306893Y-65222893D01*
X102163184Y-65398003D01*
X102056398Y-65597785D01*
X101990640Y-65814561D01*
X101968436Y-66040000D01*
X101925000Y-66040000D01*
X101925000Y-62650000D01*
X101972549Y-62650000D01*
X101972549Y-64350000D01*
X101978341Y-64408810D01*
X101995496Y-64465360D01*
X102023353Y-64517477D01*
X102060842Y-64563158D01*
X102106523Y-64600647D01*
X102158640Y-64628504D01*
X102215190Y-64645659D01*
X102274000Y-64651451D01*
X103974000Y-64651451D01*
X104032810Y-64645659D01*
X104089360Y-64628504D01*
X104141477Y-64600647D01*
X104187158Y-64563158D01*
X104224647Y-64517477D01*
X104252504Y-64465360D01*
X104252827Y-64464292D01*
X104885000Y-64464292D01*
X104885000Y-64567708D01*
X104905176Y-64669137D01*
X104944751Y-64764681D01*
X105002206Y-64850668D01*
X105075332Y-64923794D01*
X105161319Y-64981249D01*
X105256863Y-65020824D01*
X105358292Y-65041000D01*
X105461708Y-65041000D01*
X105563137Y-65020824D01*
X105658681Y-64981249D01*
X105744668Y-64923794D01*
X105817794Y-64850668D01*
X105875249Y-64764681D01*
X105914824Y-64669137D01*
X105935000Y-64567708D01*
X105935000Y-64464292D01*
X105914824Y-64362863D01*
X105875249Y-64267319D01*
X105817794Y-64181332D01*
X105744668Y-64108206D01*
X105658681Y-64050751D01*
X105563137Y-64011176D01*
X105461708Y-63991000D01*
X105358292Y-63991000D01*
X105256863Y-64011176D01*
X105161319Y-64050751D01*
X105075332Y-64108206D01*
X105002206Y-64181332D01*
X104944751Y-64267319D01*
X104905176Y-64362863D01*
X104885000Y-64464292D01*
X104252827Y-64464292D01*
X104269659Y-64408810D01*
X104275451Y-64350000D01*
X104275451Y-63956292D01*
X106409000Y-63956292D01*
X106409000Y-64059708D01*
X106429176Y-64161137D01*
X106468751Y-64256681D01*
X106526206Y-64342668D01*
X106599332Y-64415794D01*
X106685319Y-64473249D01*
X106780863Y-64512824D01*
X106882292Y-64533000D01*
X106985708Y-64533000D01*
X107087137Y-64512824D01*
X107182681Y-64473249D01*
X107268668Y-64415794D01*
X107341794Y-64342668D01*
X107399249Y-64256681D01*
X107438824Y-64161137D01*
X107459000Y-64059708D01*
X107459000Y-63956292D01*
X107438824Y-63854863D01*
X107399249Y-63759319D01*
X107341794Y-63673332D01*
X107268668Y-63600206D01*
X107182681Y-63542751D01*
X107087137Y-63503176D01*
X106985708Y-63483000D01*
X106882292Y-63483000D01*
X106780863Y-63503176D01*
X106685319Y-63542751D01*
X106599332Y-63600206D01*
X106526206Y-63673332D01*
X106468751Y-63759319D01*
X106429176Y-63854863D01*
X106409000Y-63956292D01*
X104275451Y-63956292D01*
X104275451Y-63448292D01*
X108187000Y-63448292D01*
X108187000Y-63551708D01*
X108207176Y-63653137D01*
X108246751Y-63748681D01*
X108304206Y-63834668D01*
X108377332Y-63907794D01*
X108463319Y-63965249D01*
X108558863Y-64004824D01*
X108660292Y-64025000D01*
X108763708Y-64025000D01*
X108865137Y-64004824D01*
X108960681Y-63965249D01*
X109046668Y-63907794D01*
X109119794Y-63834668D01*
X109177249Y-63748681D01*
X109216824Y-63653137D01*
X109237000Y-63551708D01*
X109237000Y-63448292D01*
X109216824Y-63346863D01*
X109177249Y-63251319D01*
X109119794Y-63165332D01*
X109046668Y-63092206D01*
X108960681Y-63034751D01*
X108865137Y-62995176D01*
X108763708Y-62975000D01*
X108660292Y-62975000D01*
X108558863Y-62995176D01*
X108463319Y-63034751D01*
X108377332Y-63092206D01*
X108304206Y-63165332D01*
X108246751Y-63251319D01*
X108207176Y-63346863D01*
X108187000Y-63448292D01*
X104275451Y-63448292D01*
X104275451Y-62650000D01*
X104269659Y-62591190D01*
X104252504Y-62534640D01*
X104245316Y-62521192D01*
X120772700Y-62521192D01*
X120772700Y-62624608D01*
X120792876Y-62726037D01*
X120832451Y-62821581D01*
X120889906Y-62907568D01*
X120963032Y-62980694D01*
X121049019Y-63038149D01*
X121144563Y-63077724D01*
X121204500Y-63089647D01*
X121204500Y-63140025D01*
X121224676Y-63241454D01*
X121264251Y-63336998D01*
X121321706Y-63422985D01*
X121394832Y-63496111D01*
X121480819Y-63553566D01*
X121528540Y-63573332D01*
X121506616Y-63626263D01*
X121486440Y-63727692D01*
X121486440Y-63831108D01*
X121506616Y-63932537D01*
X121546191Y-64028081D01*
X121603646Y-64114068D01*
X121667440Y-64177862D01*
X121653936Y-64210463D01*
X121633760Y-64311892D01*
X121633760Y-64415308D01*
X121653936Y-64516737D01*
X121693511Y-64612281D01*
X121750966Y-64698268D01*
X121824092Y-64771394D01*
X121888952Y-64814732D01*
X121882536Y-64830223D01*
X121862360Y-64931652D01*
X121862360Y-65035068D01*
X121882536Y-65136497D01*
X121922111Y-65232041D01*
X121979566Y-65318028D01*
X122052692Y-65391154D01*
X122138679Y-65448609D01*
X122234223Y-65488184D01*
X122335652Y-65508360D01*
X122439068Y-65508360D01*
X122540497Y-65488184D01*
X122636041Y-65448609D01*
X122722028Y-65391154D01*
X122795154Y-65318028D01*
X122852609Y-65232041D01*
X122892184Y-65136497D01*
X122912360Y-65035068D01*
X122912360Y-64931652D01*
X122892184Y-64830223D01*
X122852609Y-64734679D01*
X122795154Y-64648692D01*
X122722028Y-64575566D01*
X122657168Y-64532228D01*
X122663584Y-64516737D01*
X122683760Y-64415308D01*
X122683760Y-64311892D01*
X122663584Y-64210463D01*
X122624009Y-64114919D01*
X122566554Y-64028932D01*
X122502760Y-63965138D01*
X122516264Y-63932537D01*
X122536440Y-63831108D01*
X122536440Y-63740392D01*
X125395500Y-63740392D01*
X125395500Y-63843808D01*
X125415676Y-63945237D01*
X125455251Y-64040781D01*
X125512706Y-64126768D01*
X125585832Y-64199894D01*
X125671819Y-64257349D01*
X125767363Y-64296924D01*
X125868792Y-64317100D01*
X125972208Y-64317100D01*
X126073637Y-64296924D01*
X126169181Y-64257349D01*
X126255168Y-64199894D01*
X126328294Y-64126768D01*
X126385749Y-64040781D01*
X126425324Y-63945237D01*
X126445500Y-63843808D01*
X126445500Y-63740392D01*
X126425324Y-63638963D01*
X126385749Y-63543419D01*
X126356738Y-63500000D01*
X128130436Y-63500000D01*
X128152640Y-63725439D01*
X128218398Y-63942215D01*
X128325184Y-64141997D01*
X128468893Y-64317107D01*
X128644003Y-64460816D01*
X128843785Y-64567602D01*
X129060561Y-64633360D01*
X129229508Y-64650000D01*
X129342492Y-64650000D01*
X129511439Y-64633360D01*
X129728215Y-64567602D01*
X129927997Y-64460816D01*
X130103107Y-64317107D01*
X130246816Y-64141997D01*
X130353602Y-63942215D01*
X130419360Y-63725439D01*
X130441564Y-63500000D01*
X130419360Y-63274561D01*
X130353602Y-63057785D01*
X130246816Y-62858003D01*
X130103107Y-62682893D01*
X129927997Y-62539184D01*
X129728215Y-62432398D01*
X129511439Y-62366640D01*
X129342492Y-62350000D01*
X129229508Y-62350000D01*
X129060561Y-62366640D01*
X128843785Y-62432398D01*
X128644003Y-62539184D01*
X128468893Y-62682893D01*
X128325184Y-62858003D01*
X128218398Y-63057785D01*
X128152640Y-63274561D01*
X128130436Y-63500000D01*
X126356738Y-63500000D01*
X126328294Y-63457432D01*
X126255168Y-63384306D01*
X126169181Y-63326851D01*
X126073637Y-63287276D01*
X125972208Y-63267100D01*
X125868792Y-63267100D01*
X125767363Y-63287276D01*
X125671819Y-63326851D01*
X125585832Y-63384306D01*
X125512706Y-63457432D01*
X125455251Y-63543419D01*
X125415676Y-63638963D01*
X125395500Y-63740392D01*
X122536440Y-63740392D01*
X122536440Y-63727692D01*
X122516264Y-63626263D01*
X122476689Y-63530719D01*
X122419234Y-63444732D01*
X122346108Y-63371606D01*
X122260121Y-63314151D01*
X122212400Y-63294385D01*
X122234324Y-63241454D01*
X122254500Y-63140025D01*
X122254500Y-63036609D01*
X122234324Y-62935180D01*
X122194749Y-62839636D01*
X122137294Y-62753649D01*
X122064168Y-62680523D01*
X121978181Y-62623068D01*
X121882637Y-62583493D01*
X121822700Y-62571570D01*
X121822700Y-62521192D01*
X121802524Y-62419763D01*
X121762949Y-62324219D01*
X121705494Y-62238232D01*
X121632368Y-62165106D01*
X121546381Y-62107651D01*
X121450837Y-62068076D01*
X121349408Y-62047900D01*
X121245992Y-62047900D01*
X121144563Y-62068076D01*
X121049019Y-62107651D01*
X120963032Y-62165106D01*
X120889906Y-62238232D01*
X120832451Y-62324219D01*
X120792876Y-62419763D01*
X120772700Y-62521192D01*
X104245316Y-62521192D01*
X104224647Y-62482523D01*
X104187158Y-62436842D01*
X104141477Y-62399353D01*
X104089360Y-62371496D01*
X104032810Y-62354341D01*
X103974000Y-62348549D01*
X102274000Y-62348549D01*
X102215190Y-62354341D01*
X102158640Y-62371496D01*
X102106523Y-62399353D01*
X102060842Y-62436842D01*
X102023353Y-62482523D01*
X101995496Y-62534640D01*
X101978341Y-62591190D01*
X101972549Y-62650000D01*
X101925000Y-62650000D01*
X101925000Y-58520000D01*
X130485001Y-58520000D01*
X130485000Y-105339000D01*
M02*
