G04 #@! TF.GenerationSoftware,KiCad,Pcbnew,(5.1.4)-1*
G04 #@! TF.CreationDate,2020-09-18T13:05:13-04:00*
G04 #@! TF.ProjectId,nRF52832_DEMO_V01,6e524635-3238-4333-925f-44454d4f5f56,rev?*
G04 #@! TF.SameCoordinates,Original*
G04 #@! TF.FileFunction,Legend,Bot*
G04 #@! TF.FilePolarity,Positive*
%FSLAX46Y46*%
G04 Gerber Fmt 4.6, Leading zero omitted, Abs format (unit mm)*
G04 Created by KiCad (PCBNEW (5.1.4)-1) date 2020-09-18 13:05:13*
%MOMM*%
%LPD*%
G04 APERTURE LIST*
%ADD10C,0.150000*%
%ADD11C,0.120000*%
%ADD12C,0.254000*%
%ADD13C,0.150000*%
G04 APERTURE END LIST*
%LPD*%
D10*
X122284380Y-68619714D02*
X122284380Y-69286380D01*
X122284380Y-68714952D02*
X122236761Y-68667333D01*
X122141523Y-68619714D01*
X121998666Y-68619714D01*
X121903428Y-68667333D01*
X121855809Y-68762571D01*
X121855809Y-69286380D01*
X120808190Y-69286380D02*
X121141523Y-68810190D01*
X121379619Y-69286380D02*
X121379619Y-68286380D01*
X120998666Y-68286380D01*
X120903428Y-68334000D01*
X120855809Y-68381619D01*
X120808190Y-68476857D01*
X120808190Y-68619714D01*
X120855809Y-68714952D01*
X120903428Y-68762571D01*
X120998666Y-68810190D01*
X121379619Y-68810190D01*
X120046285Y-68762571D02*
X120379619Y-68762571D01*
X120379619Y-69286380D02*
X120379619Y-68286380D01*
X119903428Y-68286380D01*
X119046285Y-68286380D02*
X119522476Y-68286380D01*
X119570095Y-68762571D01*
X119522476Y-68714952D01*
X119427238Y-68667333D01*
X119189142Y-68667333D01*
X119093904Y-68714952D01*
X119046285Y-68762571D01*
X118998666Y-68857809D01*
X118998666Y-69095904D01*
X119046285Y-69191142D01*
X119093904Y-69238761D01*
X119189142Y-69286380D01*
X119427238Y-69286380D01*
X119522476Y-69238761D01*
X119570095Y-69191142D01*
X118617714Y-68381619D02*
X118570095Y-68334000D01*
X118474857Y-68286380D01*
X118236761Y-68286380D01*
X118141523Y-68334000D01*
X118093904Y-68381619D01*
X118046285Y-68476857D01*
X118046285Y-68572095D01*
X118093904Y-68714952D01*
X118665333Y-69286380D01*
X118046285Y-69286380D01*
X117474857Y-68714952D02*
X117570095Y-68667333D01*
X117617714Y-68619714D01*
X117665333Y-68524476D01*
X117665333Y-68476857D01*
X117617714Y-68381619D01*
X117570095Y-68334000D01*
X117474857Y-68286380D01*
X117284380Y-68286380D01*
X117189142Y-68334000D01*
X117141523Y-68381619D01*
X117093904Y-68476857D01*
X117093904Y-68524476D01*
X117141523Y-68619714D01*
X117189142Y-68667333D01*
X117284380Y-68714952D01*
X117474857Y-68714952D01*
X117570095Y-68762571D01*
X117617714Y-68810190D01*
X117665333Y-68905428D01*
X117665333Y-69095904D01*
X117617714Y-69191142D01*
X117570095Y-69238761D01*
X117474857Y-69286380D01*
X117284380Y-69286380D01*
X117189142Y-69238761D01*
X117141523Y-69191142D01*
X117093904Y-69095904D01*
X117093904Y-68905428D01*
X117141523Y-68810190D01*
X117189142Y-68762571D01*
X117284380Y-68714952D01*
X116760571Y-68286380D02*
X116141523Y-68286380D01*
X116474857Y-68667333D01*
X116332000Y-68667333D01*
X116236761Y-68714952D01*
X116189142Y-68762571D01*
X116141523Y-68857809D01*
X116141523Y-69095904D01*
X116189142Y-69191142D01*
X116236761Y-69238761D01*
X116332000Y-69286380D01*
X116617714Y-69286380D01*
X116712952Y-69238761D01*
X116760571Y-69191142D01*
X115760571Y-68381619D02*
X115712952Y-68334000D01*
X115617714Y-68286380D01*
X115379619Y-68286380D01*
X115284380Y-68334000D01*
X115236761Y-68381619D01*
X115189142Y-68476857D01*
X115189142Y-68572095D01*
X115236761Y-68714952D01*
X115808190Y-69286380D01*
X115189142Y-69286380D01*
X113998666Y-69286380D02*
X113998666Y-68286380D01*
X113760571Y-68286380D01*
X113617714Y-68334000D01*
X113522476Y-68429238D01*
X113474857Y-68524476D01*
X113427238Y-68714952D01*
X113427238Y-68857809D01*
X113474857Y-69048285D01*
X113522476Y-69143523D01*
X113617714Y-69238761D01*
X113760571Y-69286380D01*
X113998666Y-69286380D01*
X112998666Y-68762571D02*
X112665333Y-68762571D01*
X112522476Y-69286380D02*
X112998666Y-69286380D01*
X112998666Y-68286380D01*
X112522476Y-68286380D01*
X112093904Y-69286380D02*
X112093904Y-68286380D01*
X111760571Y-69000666D01*
X111427238Y-68286380D01*
X111427238Y-69286380D01*
X110760571Y-68286380D02*
X110570095Y-68286380D01*
X110474857Y-68334000D01*
X110379619Y-68429238D01*
X110332000Y-68619714D01*
X110332000Y-68953047D01*
X110379619Y-69143523D01*
X110474857Y-69238761D01*
X110570095Y-69286380D01*
X110760571Y-69286380D01*
X110855809Y-69238761D01*
X110951047Y-69143523D01*
X110998666Y-68953047D01*
X110998666Y-68619714D01*
X110951047Y-68429238D01*
X110855809Y-68334000D01*
X110760571Y-68286380D01*
D11*
X117675300Y-78214600D02*
X117675300Y-77739600D01*
X117675300Y-77739600D02*
X117200300Y-77739600D01*
X114455300Y-80484600D02*
X114455300Y-80959600D01*
X114455300Y-80959600D02*
X114930300Y-80959600D01*
X114455300Y-78214600D02*
X114455300Y-77739600D01*
X114455300Y-77739600D02*
X114930300Y-77739600D01*
X117675300Y-80484600D02*
X117675300Y-80959600D01*
D10*
X126406271Y-95097600D02*
G75*
G03X126406271Y-95097600I-10150471J0D01*
G01*
X121164285Y-78644714D02*
X121202380Y-78682809D01*
X121316666Y-78720904D01*
X121392857Y-78720904D01*
X121507142Y-78682809D01*
X121583333Y-78606619D01*
X121621428Y-78530428D01*
X121659523Y-78378047D01*
X121659523Y-78263761D01*
X121621428Y-78111380D01*
X121583333Y-78035190D01*
X121507142Y-77959000D01*
X121392857Y-77920904D01*
X121316666Y-77920904D01*
X121202380Y-77959000D01*
X121164285Y-77997095D01*
X120402380Y-78720904D02*
X120859523Y-78720904D01*
X120630952Y-78720904D02*
X120630952Y-77920904D01*
X120707142Y-78035190D01*
X120783333Y-78111380D01*
X120859523Y-78149476D01*
X119716666Y-77920904D02*
X119869047Y-77920904D01*
X119945238Y-77959000D01*
X119983333Y-77997095D01*
X120059523Y-78111380D01*
X120097619Y-78263761D01*
X120097619Y-78568523D01*
X120059523Y-78644714D01*
X120021428Y-78682809D01*
X119945238Y-78720904D01*
X119792857Y-78720904D01*
X119716666Y-78682809D01*
X119678571Y-78644714D01*
X119640476Y-78568523D01*
X119640476Y-78378047D01*
X119678571Y-78301857D01*
X119716666Y-78263761D01*
X119792857Y-78225666D01*
X119945238Y-78225666D01*
X120021428Y-78263761D01*
X120059523Y-78301857D01*
X120097619Y-78378047D01*
X114306333Y-83038904D02*
X114573000Y-82657952D01*
X114763476Y-83038904D02*
X114763476Y-82238904D01*
X114458714Y-82238904D01*
X114382523Y-82277000D01*
X114344428Y-82315095D01*
X114306333Y-82391285D01*
X114306333Y-82505571D01*
X114344428Y-82581761D01*
X114382523Y-82619857D01*
X114458714Y-82657952D01*
X114763476Y-82657952D01*
X113582523Y-82238904D02*
X113963476Y-82238904D01*
X114001571Y-82619857D01*
X113963476Y-82581761D01*
X113887285Y-82543666D01*
X113696809Y-82543666D01*
X113620619Y-82581761D01*
X113582523Y-82619857D01*
X113544428Y-82696047D01*
X113544428Y-82886523D01*
X113582523Y-82962714D01*
X113620619Y-83000809D01*
X113696809Y-83038904D01*
X113887285Y-83038904D01*
X113963476Y-83000809D01*
X114001571Y-82962714D01*
X118116333Y-83038904D02*
X118383000Y-82657952D01*
X118573476Y-83038904D02*
X118573476Y-82238904D01*
X118268714Y-82238904D01*
X118192523Y-82277000D01*
X118154428Y-82315095D01*
X118116333Y-82391285D01*
X118116333Y-82505571D01*
X118154428Y-82581761D01*
X118192523Y-82619857D01*
X118268714Y-82657952D01*
X118573476Y-82657952D01*
X117430619Y-82238904D02*
X117583000Y-82238904D01*
X117659190Y-82277000D01*
X117697285Y-82315095D01*
X117773476Y-82429380D01*
X117811571Y-82581761D01*
X117811571Y-82886523D01*
X117773476Y-82962714D01*
X117735380Y-83000809D01*
X117659190Y-83038904D01*
X117506809Y-83038904D01*
X117430619Y-83000809D01*
X117392523Y-82962714D01*
X117354428Y-82886523D01*
X117354428Y-82696047D01*
X117392523Y-82619857D01*
X117430619Y-82581761D01*
X117506809Y-82543666D01*
X117659190Y-82543666D01*
X117735380Y-82581761D01*
X117773476Y-82619857D01*
X117811571Y-82696047D01*
X116687523Y-76269904D02*
X116687523Y-76917523D01*
X116649428Y-76993714D01*
X116611333Y-77031809D01*
X116535142Y-77069904D01*
X116382761Y-77069904D01*
X116306571Y-77031809D01*
X116268476Y-76993714D01*
X116230380Y-76917523D01*
X116230380Y-76269904D01*
X115506571Y-76536571D02*
X115506571Y-77069904D01*
X115697047Y-76231809D02*
X115887523Y-76803238D01*
X115392285Y-76803238D01*
X116990714Y-89844571D02*
X116847857Y-89892190D01*
X116800238Y-89939809D01*
X116752619Y-90035047D01*
X116752619Y-90177904D01*
X116800238Y-90273142D01*
X116847857Y-90320761D01*
X116943095Y-90368380D01*
X117324047Y-90368380D01*
X117324047Y-89368380D01*
X116990714Y-89368380D01*
X116895476Y-89416000D01*
X116847857Y-89463619D01*
X116800238Y-89558857D01*
X116800238Y-89654095D01*
X116847857Y-89749333D01*
X116895476Y-89796952D01*
X116990714Y-89844571D01*
X117324047Y-89844571D01*
X116466904Y-89368380D02*
X115895476Y-89368380D01*
X116181190Y-90368380D02*
X116181190Y-89368380D01*
X115038333Y-90368380D02*
X115609761Y-90368380D01*
X115324047Y-90368380D02*
X115324047Y-89368380D01*
X115419285Y-89511238D01*
X115514523Y-89606476D01*
X115609761Y-89654095D01*
D12*
G36*
X127762000Y-64008000D02*
G01*
X123698000Y-64008000D01*
X123698000Y-62865000D01*
X127762000Y-62865000D01*
X127762000Y-64008000D01*
X127762000Y-64008000D01*
G37*
X127762000Y-64008000D02*
X123698000Y-64008000D01*
X123698000Y-62865000D01*
X127762000Y-62865000D01*
X127762000Y-64008000D01*
G36*
X127762000Y-66548000D02*
G01*
X123698000Y-66548000D01*
X123698000Y-65405000D01*
X127762000Y-65405000D01*
X127762000Y-66548000D01*
X127762000Y-66548000D01*
G37*
X127762000Y-66548000D02*
X123698000Y-66548000D01*
X123698000Y-65405000D01*
X127762000Y-65405000D01*
X127762000Y-66548000D01*
G36*
X127762000Y-69088000D02*
G01*
X123698000Y-69088000D01*
X123698000Y-67945000D01*
X127762000Y-67945000D01*
X127762000Y-69088000D01*
X127762000Y-69088000D01*
G37*
X127762000Y-69088000D02*
X123698000Y-69088000D01*
X123698000Y-67945000D01*
X127762000Y-67945000D01*
X127762000Y-69088000D01*
G36*
X127762000Y-71628000D02*
G01*
X123698000Y-71628000D01*
X123698000Y-70485000D01*
X127762000Y-70485000D01*
X127762000Y-71628000D01*
X127762000Y-71628000D01*
G37*
X127762000Y-71628000D02*
X123698000Y-71628000D01*
X123698000Y-70485000D01*
X127762000Y-70485000D01*
X127762000Y-71628000D01*
G36*
X127762000Y-74168000D02*
G01*
X123698000Y-74168000D01*
X123698000Y-73025000D01*
X127762000Y-73025000D01*
X127762000Y-74168000D01*
X127762000Y-74168000D01*
G37*
X127762000Y-74168000D02*
X123698000Y-74168000D01*
X123698000Y-73025000D01*
X127762000Y-73025000D01*
X127762000Y-74168000D01*
G36*
X127762000Y-76708000D02*
G01*
X123698000Y-76708000D01*
X123698000Y-75565000D01*
X127762000Y-75565000D01*
X127762000Y-76708000D01*
X127762000Y-76708000D01*
G37*
X127762000Y-76708000D02*
X123698000Y-76708000D01*
X123698000Y-75565000D01*
X127762000Y-75565000D01*
X127762000Y-76708000D01*
G36*
X127762000Y-79248000D02*
G01*
X123698000Y-79248000D01*
X123698000Y-78105000D01*
X127762000Y-78105000D01*
X127762000Y-79248000D01*
X127762000Y-79248000D01*
G37*
X127762000Y-79248000D02*
X123698000Y-79248000D01*
X123698000Y-78105000D01*
X127762000Y-78105000D01*
X127762000Y-79248000D01*
G36*
X127762000Y-81788000D02*
G01*
X123698000Y-81788000D01*
X123698000Y-80645000D01*
X127762000Y-80645000D01*
X127762000Y-81788000D01*
X127762000Y-81788000D01*
G37*
X127762000Y-81788000D02*
X123698000Y-81788000D01*
X123698000Y-80645000D01*
X127762000Y-80645000D01*
X127762000Y-81788000D01*
G36*
X127762000Y-84328000D02*
G01*
X123698000Y-84328000D01*
X123698000Y-83185000D01*
X127762000Y-83185000D01*
X127762000Y-84328000D01*
X127762000Y-84328000D01*
G37*
X127762000Y-84328000D02*
X123698000Y-84328000D01*
X123698000Y-83185000D01*
X127762000Y-83185000D01*
X127762000Y-84328000D01*
G36*
X127762000Y-86868000D02*
G01*
X123698000Y-86868000D01*
X123698000Y-85725000D01*
X127762000Y-85725000D01*
X127762000Y-86868000D01*
X127762000Y-86868000D01*
G37*
X127762000Y-86868000D02*
X123698000Y-86868000D01*
X123698000Y-85725000D01*
X127762000Y-85725000D01*
X127762000Y-86868000D01*
G36*
X108712000Y-79248000D02*
G01*
X104648000Y-79248000D01*
X104648000Y-78105000D01*
X108712000Y-78105000D01*
X108712000Y-79248000D01*
X108712000Y-79248000D01*
G37*
X108712000Y-79248000D02*
X104648000Y-79248000D01*
X104648000Y-78105000D01*
X108712000Y-78105000D01*
X108712000Y-79248000D01*
G36*
X108712000Y-69088000D02*
G01*
X104648000Y-69088000D01*
X104648000Y-67945000D01*
X108712000Y-67945000D01*
X108712000Y-69088000D01*
X108712000Y-69088000D01*
G37*
X108712000Y-69088000D02*
X104648000Y-69088000D01*
X104648000Y-67945000D01*
X108712000Y-67945000D01*
X108712000Y-69088000D01*
G36*
X108712000Y-66548000D02*
G01*
X104648000Y-66548000D01*
X104648000Y-65405000D01*
X108712000Y-65405000D01*
X108712000Y-66548000D01*
X108712000Y-66548000D01*
G37*
X108712000Y-66548000D02*
X104648000Y-66548000D01*
X104648000Y-65405000D01*
X108712000Y-65405000D01*
X108712000Y-66548000D01*
G36*
X108712000Y-84328000D02*
G01*
X104648000Y-84328000D01*
X104648000Y-83185000D01*
X108712000Y-83185000D01*
X108712000Y-84328000D01*
X108712000Y-84328000D01*
G37*
X108712000Y-84328000D02*
X104648000Y-84328000D01*
X104648000Y-83185000D01*
X108712000Y-83185000D01*
X108712000Y-84328000D01*
G36*
X108712000Y-76708000D02*
G01*
X104648000Y-76708000D01*
X104648000Y-75565000D01*
X108712000Y-75565000D01*
X108712000Y-76708000D01*
X108712000Y-76708000D01*
G37*
X108712000Y-76708000D02*
X104648000Y-76708000D01*
X104648000Y-75565000D01*
X108712000Y-75565000D01*
X108712000Y-76708000D01*
G36*
X108712000Y-74168000D02*
G01*
X104648000Y-74168000D01*
X104648000Y-73025000D01*
X108712000Y-73025000D01*
X108712000Y-74168000D01*
X108712000Y-74168000D01*
G37*
X108712000Y-74168000D02*
X104648000Y-74168000D01*
X104648000Y-73025000D01*
X108712000Y-73025000D01*
X108712000Y-74168000D01*
G36*
X108712000Y-71628000D02*
G01*
X104648000Y-71628000D01*
X104648000Y-70485000D01*
X108712000Y-70485000D01*
X108712000Y-71628000D01*
X108712000Y-71628000D01*
G37*
X108712000Y-71628000D02*
X104648000Y-71628000D01*
X104648000Y-70485000D01*
X108712000Y-70485000D01*
X108712000Y-71628000D01*
G36*
X108712000Y-81788000D02*
G01*
X104648000Y-81788000D01*
X104648000Y-80645000D01*
X108712000Y-80645000D01*
X108712000Y-81788000D01*
X108712000Y-81788000D01*
G37*
X108712000Y-81788000D02*
X104648000Y-81788000D01*
X104648000Y-80645000D01*
X108712000Y-80645000D01*
X108712000Y-81788000D01*
G36*
X108712000Y-86868000D02*
G01*
X104648000Y-86868000D01*
X104648000Y-85725000D01*
X108712000Y-85725000D01*
X108712000Y-86868000D01*
X108712000Y-86868000D01*
G37*
X108712000Y-86868000D02*
X104648000Y-86868000D01*
X104648000Y-85725000D01*
X108712000Y-85725000D01*
X108712000Y-86868000D01*
G36*
X108712000Y-64008000D02*
G01*
X104648000Y-64008000D01*
X104648000Y-62865000D01*
X108712000Y-62865000D01*
X108712000Y-64008000D01*
X108712000Y-64008000D01*
G37*
X108712000Y-64008000D02*
X104648000Y-64008000D01*
X104648000Y-62865000D01*
X108712000Y-62865000D01*
X108712000Y-64008000D01*
%LPC*%
D13*
X108608571Y-76652380D02*
X108608571Y-75652380D01*
X108227619Y-75652380D01*
X108132380Y-75700000D01*
X108084761Y-75747619D01*
X108037142Y-75842857D01*
X108037142Y-75985714D01*
X108084761Y-76080952D01*
X108132380Y-76128571D01*
X108227619Y-76176190D01*
X108608571Y-76176190D01*
X107418095Y-75652380D02*
X107322857Y-75652380D01*
X107227619Y-75700000D01*
X107180000Y-75747619D01*
X107132380Y-75842857D01*
X107084761Y-76033333D01*
X107084761Y-76271428D01*
X107132380Y-76461904D01*
X107180000Y-76557142D01*
X107227619Y-76604761D01*
X107322857Y-76652380D01*
X107418095Y-76652380D01*
X107513333Y-76604761D01*
X107560952Y-76557142D01*
X107608571Y-76461904D01*
X107656190Y-76271428D01*
X107656190Y-76033333D01*
X107608571Y-75842857D01*
X107560952Y-75747619D01*
X107513333Y-75700000D01*
X107418095Y-75652380D01*
X106656190Y-76557142D02*
X106608571Y-76604761D01*
X106656190Y-76652380D01*
X106703809Y-76604761D01*
X106656190Y-76557142D01*
X106656190Y-76652380D01*
X106227619Y-75747619D02*
X106180000Y-75700000D01*
X106084761Y-75652380D01*
X105846666Y-75652380D01*
X105751428Y-75700000D01*
X105703809Y-75747619D01*
X105656190Y-75842857D01*
X105656190Y-75938095D01*
X105703809Y-76080952D01*
X106275238Y-76652380D01*
X105656190Y-76652380D01*
X105322857Y-75652380D02*
X104656190Y-75652380D01*
X105084761Y-76652380D01*
X108608571Y-86812380D02*
X108608571Y-85812380D01*
X108227619Y-85812380D01*
X108132380Y-85860000D01*
X108084761Y-85907619D01*
X108037142Y-86002857D01*
X108037142Y-86145714D01*
X108084761Y-86240952D01*
X108132380Y-86288571D01*
X108227619Y-86336190D01*
X108608571Y-86336190D01*
X107418095Y-85812380D02*
X107322857Y-85812380D01*
X107227619Y-85860000D01*
X107180000Y-85907619D01*
X107132380Y-86002857D01*
X107084761Y-86193333D01*
X107084761Y-86431428D01*
X107132380Y-86621904D01*
X107180000Y-86717142D01*
X107227619Y-86764761D01*
X107322857Y-86812380D01*
X107418095Y-86812380D01*
X107513333Y-86764761D01*
X107560952Y-86717142D01*
X107608571Y-86621904D01*
X107656190Y-86431428D01*
X107656190Y-86193333D01*
X107608571Y-86002857D01*
X107560952Y-85907619D01*
X107513333Y-85860000D01*
X107418095Y-85812380D01*
X106656190Y-86717142D02*
X106608571Y-86764761D01*
X106656190Y-86812380D01*
X106703809Y-86764761D01*
X106656190Y-86717142D01*
X106656190Y-86812380D01*
X106275238Y-85812380D02*
X105656190Y-85812380D01*
X105989523Y-86193333D01*
X105846666Y-86193333D01*
X105751428Y-86240952D01*
X105703809Y-86288571D01*
X105656190Y-86383809D01*
X105656190Y-86621904D01*
X105703809Y-86717142D01*
X105751428Y-86764761D01*
X105846666Y-86812380D01*
X106132380Y-86812380D01*
X106227619Y-86764761D01*
X106275238Y-86717142D01*
X104703809Y-86812380D02*
X105275238Y-86812380D01*
X104989523Y-86812380D02*
X104989523Y-85812380D01*
X105084761Y-85955238D01*
X105180000Y-86050476D01*
X105275238Y-86098095D01*
X108608571Y-84272380D02*
X108608571Y-83272380D01*
X108227619Y-83272380D01*
X108132380Y-83320000D01*
X108084761Y-83367619D01*
X108037142Y-83462857D01*
X108037142Y-83605714D01*
X108084761Y-83700952D01*
X108132380Y-83748571D01*
X108227619Y-83796190D01*
X108608571Y-83796190D01*
X107418095Y-83272380D02*
X107322857Y-83272380D01*
X107227619Y-83320000D01*
X107180000Y-83367619D01*
X107132380Y-83462857D01*
X107084761Y-83653333D01*
X107084761Y-83891428D01*
X107132380Y-84081904D01*
X107180000Y-84177142D01*
X107227619Y-84224761D01*
X107322857Y-84272380D01*
X107418095Y-84272380D01*
X107513333Y-84224761D01*
X107560952Y-84177142D01*
X107608571Y-84081904D01*
X107656190Y-83891428D01*
X107656190Y-83653333D01*
X107608571Y-83462857D01*
X107560952Y-83367619D01*
X107513333Y-83320000D01*
X107418095Y-83272380D01*
X106656190Y-84177142D02*
X106608571Y-84224761D01*
X106656190Y-84272380D01*
X106703809Y-84224761D01*
X106656190Y-84177142D01*
X106656190Y-84272380D01*
X106275238Y-83272380D02*
X105656190Y-83272380D01*
X105989523Y-83653333D01*
X105846666Y-83653333D01*
X105751428Y-83700952D01*
X105703809Y-83748571D01*
X105656190Y-83843809D01*
X105656190Y-84081904D01*
X105703809Y-84177142D01*
X105751428Y-84224761D01*
X105846666Y-84272380D01*
X106132380Y-84272380D01*
X106227619Y-84224761D01*
X106275238Y-84177142D01*
X105037142Y-83272380D02*
X104941904Y-83272380D01*
X104846666Y-83320000D01*
X104799047Y-83367619D01*
X104751428Y-83462857D01*
X104703809Y-83653333D01*
X104703809Y-83891428D01*
X104751428Y-84081904D01*
X104799047Y-84177142D01*
X104846666Y-84224761D01*
X104941904Y-84272380D01*
X105037142Y-84272380D01*
X105132380Y-84224761D01*
X105180000Y-84177142D01*
X105227619Y-84081904D01*
X105275238Y-83891428D01*
X105275238Y-83653333D01*
X105227619Y-83462857D01*
X105180000Y-83367619D01*
X105132380Y-83320000D01*
X105037142Y-83272380D01*
X108608571Y-81732380D02*
X108608571Y-80732380D01*
X108227619Y-80732380D01*
X108132380Y-80780000D01*
X108084761Y-80827619D01*
X108037142Y-80922857D01*
X108037142Y-81065714D01*
X108084761Y-81160952D01*
X108132380Y-81208571D01*
X108227619Y-81256190D01*
X108608571Y-81256190D01*
X107418095Y-80732380D02*
X107322857Y-80732380D01*
X107227619Y-80780000D01*
X107180000Y-80827619D01*
X107132380Y-80922857D01*
X107084761Y-81113333D01*
X107084761Y-81351428D01*
X107132380Y-81541904D01*
X107180000Y-81637142D01*
X107227619Y-81684761D01*
X107322857Y-81732380D01*
X107418095Y-81732380D01*
X107513333Y-81684761D01*
X107560952Y-81637142D01*
X107608571Y-81541904D01*
X107656190Y-81351428D01*
X107656190Y-81113333D01*
X107608571Y-80922857D01*
X107560952Y-80827619D01*
X107513333Y-80780000D01*
X107418095Y-80732380D01*
X106656190Y-81637142D02*
X106608571Y-81684761D01*
X106656190Y-81732380D01*
X106703809Y-81684761D01*
X106656190Y-81637142D01*
X106656190Y-81732380D01*
X106227619Y-80827619D02*
X106180000Y-80780000D01*
X106084761Y-80732380D01*
X105846666Y-80732380D01*
X105751428Y-80780000D01*
X105703809Y-80827619D01*
X105656190Y-80922857D01*
X105656190Y-81018095D01*
X105703809Y-81160952D01*
X106275238Y-81732380D01*
X105656190Y-81732380D01*
X105180000Y-81732380D02*
X104989523Y-81732380D01*
X104894285Y-81684761D01*
X104846666Y-81637142D01*
X104751428Y-81494285D01*
X104703809Y-81303809D01*
X104703809Y-80922857D01*
X104751428Y-80827619D01*
X104799047Y-80780000D01*
X104894285Y-80732380D01*
X105084761Y-80732380D01*
X105180000Y-80780000D01*
X105227619Y-80827619D01*
X105275238Y-80922857D01*
X105275238Y-81160952D01*
X105227619Y-81256190D01*
X105180000Y-81303809D01*
X105084761Y-81351428D01*
X104894285Y-81351428D01*
X104799047Y-81303809D01*
X104751428Y-81256190D01*
X104703809Y-81160952D01*
X108608571Y-69032380D02*
X108608571Y-68032380D01*
X108227619Y-68032380D01*
X108132380Y-68080000D01*
X108084761Y-68127619D01*
X108037142Y-68222857D01*
X108037142Y-68365714D01*
X108084761Y-68460952D01*
X108132380Y-68508571D01*
X108227619Y-68556190D01*
X108608571Y-68556190D01*
X107418095Y-68032380D02*
X107322857Y-68032380D01*
X107227619Y-68080000D01*
X107180000Y-68127619D01*
X107132380Y-68222857D01*
X107084761Y-68413333D01*
X107084761Y-68651428D01*
X107132380Y-68841904D01*
X107180000Y-68937142D01*
X107227619Y-68984761D01*
X107322857Y-69032380D01*
X107418095Y-69032380D01*
X107513333Y-68984761D01*
X107560952Y-68937142D01*
X107608571Y-68841904D01*
X107656190Y-68651428D01*
X107656190Y-68413333D01*
X107608571Y-68222857D01*
X107560952Y-68127619D01*
X107513333Y-68080000D01*
X107418095Y-68032380D01*
X106656190Y-68937142D02*
X106608571Y-68984761D01*
X106656190Y-69032380D01*
X106703809Y-68984761D01*
X106656190Y-68937142D01*
X106656190Y-69032380D01*
X106227619Y-68127619D02*
X106180000Y-68080000D01*
X106084761Y-68032380D01*
X105846666Y-68032380D01*
X105751428Y-68080000D01*
X105703809Y-68127619D01*
X105656190Y-68222857D01*
X105656190Y-68318095D01*
X105703809Y-68460952D01*
X106275238Y-69032380D01*
X105656190Y-69032380D01*
X104799047Y-68365714D02*
X104799047Y-69032380D01*
X105037142Y-67984761D02*
X105275238Y-68699047D01*
X104656190Y-68699047D01*
X108608571Y-66492380D02*
X108608571Y-65492380D01*
X108227619Y-65492380D01*
X108132380Y-65540000D01*
X108084761Y-65587619D01*
X108037142Y-65682857D01*
X108037142Y-65825714D01*
X108084761Y-65920952D01*
X108132380Y-65968571D01*
X108227619Y-66016190D01*
X108608571Y-66016190D01*
X107418095Y-65492380D02*
X107322857Y-65492380D01*
X107227619Y-65540000D01*
X107180000Y-65587619D01*
X107132380Y-65682857D01*
X107084761Y-65873333D01*
X107084761Y-66111428D01*
X107132380Y-66301904D01*
X107180000Y-66397142D01*
X107227619Y-66444761D01*
X107322857Y-66492380D01*
X107418095Y-66492380D01*
X107513333Y-66444761D01*
X107560952Y-66397142D01*
X107608571Y-66301904D01*
X107656190Y-66111428D01*
X107656190Y-65873333D01*
X107608571Y-65682857D01*
X107560952Y-65587619D01*
X107513333Y-65540000D01*
X107418095Y-65492380D01*
X106656190Y-66397142D02*
X106608571Y-66444761D01*
X106656190Y-66492380D01*
X106703809Y-66444761D01*
X106656190Y-66397142D01*
X106656190Y-66492380D01*
X106227619Y-65587619D02*
X106180000Y-65540000D01*
X106084761Y-65492380D01*
X105846666Y-65492380D01*
X105751428Y-65540000D01*
X105703809Y-65587619D01*
X105656190Y-65682857D01*
X105656190Y-65778095D01*
X105703809Y-65920952D01*
X106275238Y-66492380D01*
X105656190Y-66492380D01*
X105322857Y-65492380D02*
X104703809Y-65492380D01*
X105037142Y-65873333D01*
X104894285Y-65873333D01*
X104799047Y-65920952D01*
X104751428Y-65968571D01*
X104703809Y-66063809D01*
X104703809Y-66301904D01*
X104751428Y-66397142D01*
X104799047Y-66444761D01*
X104894285Y-66492380D01*
X105180000Y-66492380D01*
X105275238Y-66444761D01*
X105322857Y-66397142D01*
X108608571Y-71572380D02*
X108608571Y-70572380D01*
X108227619Y-70572380D01*
X108132380Y-70620000D01*
X108084761Y-70667619D01*
X108037142Y-70762857D01*
X108037142Y-70905714D01*
X108084761Y-71000952D01*
X108132380Y-71048571D01*
X108227619Y-71096190D01*
X108608571Y-71096190D01*
X107418095Y-70572380D02*
X107322857Y-70572380D01*
X107227619Y-70620000D01*
X107180000Y-70667619D01*
X107132380Y-70762857D01*
X107084761Y-70953333D01*
X107084761Y-71191428D01*
X107132380Y-71381904D01*
X107180000Y-71477142D01*
X107227619Y-71524761D01*
X107322857Y-71572380D01*
X107418095Y-71572380D01*
X107513333Y-71524761D01*
X107560952Y-71477142D01*
X107608571Y-71381904D01*
X107656190Y-71191428D01*
X107656190Y-70953333D01*
X107608571Y-70762857D01*
X107560952Y-70667619D01*
X107513333Y-70620000D01*
X107418095Y-70572380D01*
X106656190Y-71477142D02*
X106608571Y-71524761D01*
X106656190Y-71572380D01*
X106703809Y-71524761D01*
X106656190Y-71477142D01*
X106656190Y-71572380D01*
X106227619Y-70667619D02*
X106180000Y-70620000D01*
X106084761Y-70572380D01*
X105846666Y-70572380D01*
X105751428Y-70620000D01*
X105703809Y-70667619D01*
X105656190Y-70762857D01*
X105656190Y-70858095D01*
X105703809Y-71000952D01*
X106275238Y-71572380D01*
X105656190Y-71572380D01*
X104751428Y-70572380D02*
X105227619Y-70572380D01*
X105275238Y-71048571D01*
X105227619Y-71000952D01*
X105132380Y-70953333D01*
X104894285Y-70953333D01*
X104799047Y-71000952D01*
X104751428Y-71048571D01*
X104703809Y-71143809D01*
X104703809Y-71381904D01*
X104751428Y-71477142D01*
X104799047Y-71524761D01*
X104894285Y-71572380D01*
X105132380Y-71572380D01*
X105227619Y-71524761D01*
X105275238Y-71477142D01*
X108608571Y-74112380D02*
X108608571Y-73112380D01*
X108227619Y-73112380D01*
X108132380Y-73160000D01*
X108084761Y-73207619D01*
X108037142Y-73302857D01*
X108037142Y-73445714D01*
X108084761Y-73540952D01*
X108132380Y-73588571D01*
X108227619Y-73636190D01*
X108608571Y-73636190D01*
X107418095Y-73112380D02*
X107322857Y-73112380D01*
X107227619Y-73160000D01*
X107180000Y-73207619D01*
X107132380Y-73302857D01*
X107084761Y-73493333D01*
X107084761Y-73731428D01*
X107132380Y-73921904D01*
X107180000Y-74017142D01*
X107227619Y-74064761D01*
X107322857Y-74112380D01*
X107418095Y-74112380D01*
X107513333Y-74064761D01*
X107560952Y-74017142D01*
X107608571Y-73921904D01*
X107656190Y-73731428D01*
X107656190Y-73493333D01*
X107608571Y-73302857D01*
X107560952Y-73207619D01*
X107513333Y-73160000D01*
X107418095Y-73112380D01*
X106656190Y-74017142D02*
X106608571Y-74064761D01*
X106656190Y-74112380D01*
X106703809Y-74064761D01*
X106656190Y-74017142D01*
X106656190Y-74112380D01*
X106227619Y-73207619D02*
X106180000Y-73160000D01*
X106084761Y-73112380D01*
X105846666Y-73112380D01*
X105751428Y-73160000D01*
X105703809Y-73207619D01*
X105656190Y-73302857D01*
X105656190Y-73398095D01*
X105703809Y-73540952D01*
X106275238Y-74112380D01*
X105656190Y-74112380D01*
X104799047Y-73112380D02*
X104989523Y-73112380D01*
X105084761Y-73160000D01*
X105132380Y-73207619D01*
X105227619Y-73350476D01*
X105275238Y-73540952D01*
X105275238Y-73921904D01*
X105227619Y-74017142D01*
X105180000Y-74064761D01*
X105084761Y-74112380D01*
X104894285Y-74112380D01*
X104799047Y-74064761D01*
X104751428Y-74017142D01*
X104703809Y-73921904D01*
X104703809Y-73683809D01*
X104751428Y-73588571D01*
X104799047Y-73540952D01*
X104894285Y-73493333D01*
X105084761Y-73493333D01*
X105180000Y-73540952D01*
X105227619Y-73588571D01*
X105275238Y-73683809D01*
X108608571Y-79192380D02*
X108608571Y-78192380D01*
X108227619Y-78192380D01*
X108132380Y-78240000D01*
X108084761Y-78287619D01*
X108037142Y-78382857D01*
X108037142Y-78525714D01*
X108084761Y-78620952D01*
X108132380Y-78668571D01*
X108227619Y-78716190D01*
X108608571Y-78716190D01*
X107418095Y-78192380D02*
X107322857Y-78192380D01*
X107227619Y-78240000D01*
X107180000Y-78287619D01*
X107132380Y-78382857D01*
X107084761Y-78573333D01*
X107084761Y-78811428D01*
X107132380Y-79001904D01*
X107180000Y-79097142D01*
X107227619Y-79144761D01*
X107322857Y-79192380D01*
X107418095Y-79192380D01*
X107513333Y-79144761D01*
X107560952Y-79097142D01*
X107608571Y-79001904D01*
X107656190Y-78811428D01*
X107656190Y-78573333D01*
X107608571Y-78382857D01*
X107560952Y-78287619D01*
X107513333Y-78240000D01*
X107418095Y-78192380D01*
X106656190Y-79097142D02*
X106608571Y-79144761D01*
X106656190Y-79192380D01*
X106703809Y-79144761D01*
X106656190Y-79097142D01*
X106656190Y-79192380D01*
X106227619Y-78287619D02*
X106180000Y-78240000D01*
X106084761Y-78192380D01*
X105846666Y-78192380D01*
X105751428Y-78240000D01*
X105703809Y-78287619D01*
X105656190Y-78382857D01*
X105656190Y-78478095D01*
X105703809Y-78620952D01*
X106275238Y-79192380D01*
X105656190Y-79192380D01*
X105084761Y-78620952D02*
X105180000Y-78573333D01*
X105227619Y-78525714D01*
X105275238Y-78430476D01*
X105275238Y-78382857D01*
X105227619Y-78287619D01*
X105180000Y-78240000D01*
X105084761Y-78192380D01*
X104894285Y-78192380D01*
X104799047Y-78240000D01*
X104751428Y-78287619D01*
X104703809Y-78382857D01*
X104703809Y-78430476D01*
X104751428Y-78525714D01*
X104799047Y-78573333D01*
X104894285Y-78620952D01*
X105084761Y-78620952D01*
X105180000Y-78668571D01*
X105227619Y-78716190D01*
X105275238Y-78811428D01*
X105275238Y-79001904D01*
X105227619Y-79097142D01*
X105180000Y-79144761D01*
X105084761Y-79192380D01*
X104894285Y-79192380D01*
X104799047Y-79144761D01*
X104751428Y-79097142D01*
X104703809Y-79001904D01*
X104703809Y-78811428D01*
X104751428Y-78716190D01*
X104799047Y-78668571D01*
X104894285Y-78620952D01*
X108608571Y-63952380D02*
X108608571Y-62952380D01*
X108227619Y-62952380D01*
X108132380Y-63000000D01*
X108084761Y-63047619D01*
X108037142Y-63142857D01*
X108037142Y-63285714D01*
X108084761Y-63380952D01*
X108132380Y-63428571D01*
X108227619Y-63476190D01*
X108608571Y-63476190D01*
X107418095Y-62952380D02*
X107322857Y-62952380D01*
X107227619Y-63000000D01*
X107180000Y-63047619D01*
X107132380Y-63142857D01*
X107084761Y-63333333D01*
X107084761Y-63571428D01*
X107132380Y-63761904D01*
X107180000Y-63857142D01*
X107227619Y-63904761D01*
X107322857Y-63952380D01*
X107418095Y-63952380D01*
X107513333Y-63904761D01*
X107560952Y-63857142D01*
X107608571Y-63761904D01*
X107656190Y-63571428D01*
X107656190Y-63333333D01*
X107608571Y-63142857D01*
X107560952Y-63047619D01*
X107513333Y-63000000D01*
X107418095Y-62952380D01*
X106656190Y-63857142D02*
X106608571Y-63904761D01*
X106656190Y-63952380D01*
X106703809Y-63904761D01*
X106656190Y-63857142D01*
X106656190Y-63952380D01*
X106227619Y-63047619D02*
X106180000Y-63000000D01*
X106084761Y-62952380D01*
X105846666Y-62952380D01*
X105751428Y-63000000D01*
X105703809Y-63047619D01*
X105656190Y-63142857D01*
X105656190Y-63238095D01*
X105703809Y-63380952D01*
X106275238Y-63952380D01*
X105656190Y-63952380D01*
X105275238Y-63047619D02*
X105227619Y-63000000D01*
X105132380Y-62952380D01*
X104894285Y-62952380D01*
X104799047Y-63000000D01*
X104751428Y-63047619D01*
X104703809Y-63142857D01*
X104703809Y-63238095D01*
X104751428Y-63380952D01*
X105322857Y-63952380D01*
X104703809Y-63952380D01*
X127658571Y-86812380D02*
X127658571Y-85812380D01*
X127277619Y-85812380D01*
X127182380Y-85860000D01*
X127134761Y-85907619D01*
X127087142Y-86002857D01*
X127087142Y-86145714D01*
X127134761Y-86240952D01*
X127182380Y-86288571D01*
X127277619Y-86336190D01*
X127658571Y-86336190D01*
X126468095Y-85812380D02*
X126372857Y-85812380D01*
X126277619Y-85860000D01*
X126230000Y-85907619D01*
X126182380Y-86002857D01*
X126134761Y-86193333D01*
X126134761Y-86431428D01*
X126182380Y-86621904D01*
X126230000Y-86717142D01*
X126277619Y-86764761D01*
X126372857Y-86812380D01*
X126468095Y-86812380D01*
X126563333Y-86764761D01*
X126610952Y-86717142D01*
X126658571Y-86621904D01*
X126706190Y-86431428D01*
X126706190Y-86193333D01*
X126658571Y-86002857D01*
X126610952Y-85907619D01*
X126563333Y-85860000D01*
X126468095Y-85812380D01*
X125706190Y-86717142D02*
X125658571Y-86764761D01*
X125706190Y-86812380D01*
X125753809Y-86764761D01*
X125706190Y-86717142D01*
X125706190Y-86812380D01*
X125039523Y-85812380D02*
X124944285Y-85812380D01*
X124849047Y-85860000D01*
X124801428Y-85907619D01*
X124753809Y-86002857D01*
X124706190Y-86193333D01*
X124706190Y-86431428D01*
X124753809Y-86621904D01*
X124801428Y-86717142D01*
X124849047Y-86764761D01*
X124944285Y-86812380D01*
X125039523Y-86812380D01*
X125134761Y-86764761D01*
X125182380Y-86717142D01*
X125230000Y-86621904D01*
X125277619Y-86431428D01*
X125277619Y-86193333D01*
X125230000Y-86002857D01*
X125182380Y-85907619D01*
X125134761Y-85860000D01*
X125039523Y-85812380D01*
X124325238Y-85907619D02*
X124277619Y-85860000D01*
X124182380Y-85812380D01*
X123944285Y-85812380D01*
X123849047Y-85860000D01*
X123801428Y-85907619D01*
X123753809Y-86002857D01*
X123753809Y-86098095D01*
X123801428Y-86240952D01*
X124372857Y-86812380D01*
X123753809Y-86812380D01*
X127658571Y-84272380D02*
X127658571Y-83272380D01*
X127277619Y-83272380D01*
X127182380Y-83320000D01*
X127134761Y-83367619D01*
X127087142Y-83462857D01*
X127087142Y-83605714D01*
X127134761Y-83700952D01*
X127182380Y-83748571D01*
X127277619Y-83796190D01*
X127658571Y-83796190D01*
X126468095Y-83272380D02*
X126372857Y-83272380D01*
X126277619Y-83320000D01*
X126230000Y-83367619D01*
X126182380Y-83462857D01*
X126134761Y-83653333D01*
X126134761Y-83891428D01*
X126182380Y-84081904D01*
X126230000Y-84177142D01*
X126277619Y-84224761D01*
X126372857Y-84272380D01*
X126468095Y-84272380D01*
X126563333Y-84224761D01*
X126610952Y-84177142D01*
X126658571Y-84081904D01*
X126706190Y-83891428D01*
X126706190Y-83653333D01*
X126658571Y-83462857D01*
X126610952Y-83367619D01*
X126563333Y-83320000D01*
X126468095Y-83272380D01*
X125706190Y-84177142D02*
X125658571Y-84224761D01*
X125706190Y-84272380D01*
X125753809Y-84224761D01*
X125706190Y-84177142D01*
X125706190Y-84272380D01*
X125039523Y-83272380D02*
X124944285Y-83272380D01*
X124849047Y-83320000D01*
X124801428Y-83367619D01*
X124753809Y-83462857D01*
X124706190Y-83653333D01*
X124706190Y-83891428D01*
X124753809Y-84081904D01*
X124801428Y-84177142D01*
X124849047Y-84224761D01*
X124944285Y-84272380D01*
X125039523Y-84272380D01*
X125134761Y-84224761D01*
X125182380Y-84177142D01*
X125230000Y-84081904D01*
X125277619Y-83891428D01*
X125277619Y-83653333D01*
X125230000Y-83462857D01*
X125182380Y-83367619D01*
X125134761Y-83320000D01*
X125039523Y-83272380D01*
X124372857Y-83272380D02*
X123753809Y-83272380D01*
X124087142Y-83653333D01*
X123944285Y-83653333D01*
X123849047Y-83700952D01*
X123801428Y-83748571D01*
X123753809Y-83843809D01*
X123753809Y-84081904D01*
X123801428Y-84177142D01*
X123849047Y-84224761D01*
X123944285Y-84272380D01*
X124230000Y-84272380D01*
X124325238Y-84224761D01*
X124372857Y-84177142D01*
X127658571Y-81732380D02*
X127658571Y-80732380D01*
X127277619Y-80732380D01*
X127182380Y-80780000D01*
X127134761Y-80827619D01*
X127087142Y-80922857D01*
X127087142Y-81065714D01*
X127134761Y-81160952D01*
X127182380Y-81208571D01*
X127277619Y-81256190D01*
X127658571Y-81256190D01*
X126468095Y-80732380D02*
X126372857Y-80732380D01*
X126277619Y-80780000D01*
X126230000Y-80827619D01*
X126182380Y-80922857D01*
X126134761Y-81113333D01*
X126134761Y-81351428D01*
X126182380Y-81541904D01*
X126230000Y-81637142D01*
X126277619Y-81684761D01*
X126372857Y-81732380D01*
X126468095Y-81732380D01*
X126563333Y-81684761D01*
X126610952Y-81637142D01*
X126658571Y-81541904D01*
X126706190Y-81351428D01*
X126706190Y-81113333D01*
X126658571Y-80922857D01*
X126610952Y-80827619D01*
X126563333Y-80780000D01*
X126468095Y-80732380D01*
X125706190Y-81637142D02*
X125658571Y-81684761D01*
X125706190Y-81732380D01*
X125753809Y-81684761D01*
X125706190Y-81637142D01*
X125706190Y-81732380D01*
X125039523Y-80732380D02*
X124944285Y-80732380D01*
X124849047Y-80780000D01*
X124801428Y-80827619D01*
X124753809Y-80922857D01*
X124706190Y-81113333D01*
X124706190Y-81351428D01*
X124753809Y-81541904D01*
X124801428Y-81637142D01*
X124849047Y-81684761D01*
X124944285Y-81732380D01*
X125039523Y-81732380D01*
X125134761Y-81684761D01*
X125182380Y-81637142D01*
X125230000Y-81541904D01*
X125277619Y-81351428D01*
X125277619Y-81113333D01*
X125230000Y-80922857D01*
X125182380Y-80827619D01*
X125134761Y-80780000D01*
X125039523Y-80732380D01*
X123849047Y-81065714D02*
X123849047Y-81732380D01*
X124087142Y-80684761D02*
X124325238Y-81399047D01*
X123706190Y-81399047D01*
X127658571Y-79192380D02*
X127658571Y-78192380D01*
X127277619Y-78192380D01*
X127182380Y-78240000D01*
X127134761Y-78287619D01*
X127087142Y-78382857D01*
X127087142Y-78525714D01*
X127134761Y-78620952D01*
X127182380Y-78668571D01*
X127277619Y-78716190D01*
X127658571Y-78716190D01*
X126468095Y-78192380D02*
X126372857Y-78192380D01*
X126277619Y-78240000D01*
X126230000Y-78287619D01*
X126182380Y-78382857D01*
X126134761Y-78573333D01*
X126134761Y-78811428D01*
X126182380Y-79001904D01*
X126230000Y-79097142D01*
X126277619Y-79144761D01*
X126372857Y-79192380D01*
X126468095Y-79192380D01*
X126563333Y-79144761D01*
X126610952Y-79097142D01*
X126658571Y-79001904D01*
X126706190Y-78811428D01*
X126706190Y-78573333D01*
X126658571Y-78382857D01*
X126610952Y-78287619D01*
X126563333Y-78240000D01*
X126468095Y-78192380D01*
X125706190Y-79097142D02*
X125658571Y-79144761D01*
X125706190Y-79192380D01*
X125753809Y-79144761D01*
X125706190Y-79097142D01*
X125706190Y-79192380D01*
X125039523Y-78192380D02*
X124944285Y-78192380D01*
X124849047Y-78240000D01*
X124801428Y-78287619D01*
X124753809Y-78382857D01*
X124706190Y-78573333D01*
X124706190Y-78811428D01*
X124753809Y-79001904D01*
X124801428Y-79097142D01*
X124849047Y-79144761D01*
X124944285Y-79192380D01*
X125039523Y-79192380D01*
X125134761Y-79144761D01*
X125182380Y-79097142D01*
X125230000Y-79001904D01*
X125277619Y-78811428D01*
X125277619Y-78573333D01*
X125230000Y-78382857D01*
X125182380Y-78287619D01*
X125134761Y-78240000D01*
X125039523Y-78192380D01*
X123801428Y-78192380D02*
X124277619Y-78192380D01*
X124325238Y-78668571D01*
X124277619Y-78620952D01*
X124182380Y-78573333D01*
X123944285Y-78573333D01*
X123849047Y-78620952D01*
X123801428Y-78668571D01*
X123753809Y-78763809D01*
X123753809Y-79001904D01*
X123801428Y-79097142D01*
X123849047Y-79144761D01*
X123944285Y-79192380D01*
X124182380Y-79192380D01*
X124277619Y-79144761D01*
X124325238Y-79097142D01*
X127658571Y-76652380D02*
X127658571Y-75652380D01*
X127277619Y-75652380D01*
X127182380Y-75700000D01*
X127134761Y-75747619D01*
X127087142Y-75842857D01*
X127087142Y-75985714D01*
X127134761Y-76080952D01*
X127182380Y-76128571D01*
X127277619Y-76176190D01*
X127658571Y-76176190D01*
X126468095Y-75652380D02*
X126372857Y-75652380D01*
X126277619Y-75700000D01*
X126230000Y-75747619D01*
X126182380Y-75842857D01*
X126134761Y-76033333D01*
X126134761Y-76271428D01*
X126182380Y-76461904D01*
X126230000Y-76557142D01*
X126277619Y-76604761D01*
X126372857Y-76652380D01*
X126468095Y-76652380D01*
X126563333Y-76604761D01*
X126610952Y-76557142D01*
X126658571Y-76461904D01*
X126706190Y-76271428D01*
X126706190Y-76033333D01*
X126658571Y-75842857D01*
X126610952Y-75747619D01*
X126563333Y-75700000D01*
X126468095Y-75652380D01*
X125706190Y-76557142D02*
X125658571Y-76604761D01*
X125706190Y-76652380D01*
X125753809Y-76604761D01*
X125706190Y-76557142D01*
X125706190Y-76652380D01*
X125039523Y-75652380D02*
X124944285Y-75652380D01*
X124849047Y-75700000D01*
X124801428Y-75747619D01*
X124753809Y-75842857D01*
X124706190Y-76033333D01*
X124706190Y-76271428D01*
X124753809Y-76461904D01*
X124801428Y-76557142D01*
X124849047Y-76604761D01*
X124944285Y-76652380D01*
X125039523Y-76652380D01*
X125134761Y-76604761D01*
X125182380Y-76557142D01*
X125230000Y-76461904D01*
X125277619Y-76271428D01*
X125277619Y-76033333D01*
X125230000Y-75842857D01*
X125182380Y-75747619D01*
X125134761Y-75700000D01*
X125039523Y-75652380D01*
X123849047Y-75652380D02*
X124039523Y-75652380D01*
X124134761Y-75700000D01*
X124182380Y-75747619D01*
X124277619Y-75890476D01*
X124325238Y-76080952D01*
X124325238Y-76461904D01*
X124277619Y-76557142D01*
X124230000Y-76604761D01*
X124134761Y-76652380D01*
X123944285Y-76652380D01*
X123849047Y-76604761D01*
X123801428Y-76557142D01*
X123753809Y-76461904D01*
X123753809Y-76223809D01*
X123801428Y-76128571D01*
X123849047Y-76080952D01*
X123944285Y-76033333D01*
X124134761Y-76033333D01*
X124230000Y-76080952D01*
X124277619Y-76128571D01*
X124325238Y-76223809D01*
X127658571Y-74112380D02*
X127658571Y-73112380D01*
X127277619Y-73112380D01*
X127182380Y-73160000D01*
X127134761Y-73207619D01*
X127087142Y-73302857D01*
X127087142Y-73445714D01*
X127134761Y-73540952D01*
X127182380Y-73588571D01*
X127277619Y-73636190D01*
X127658571Y-73636190D01*
X126468095Y-73112380D02*
X126372857Y-73112380D01*
X126277619Y-73160000D01*
X126230000Y-73207619D01*
X126182380Y-73302857D01*
X126134761Y-73493333D01*
X126134761Y-73731428D01*
X126182380Y-73921904D01*
X126230000Y-74017142D01*
X126277619Y-74064761D01*
X126372857Y-74112380D01*
X126468095Y-74112380D01*
X126563333Y-74064761D01*
X126610952Y-74017142D01*
X126658571Y-73921904D01*
X126706190Y-73731428D01*
X126706190Y-73493333D01*
X126658571Y-73302857D01*
X126610952Y-73207619D01*
X126563333Y-73160000D01*
X126468095Y-73112380D01*
X125706190Y-74017142D02*
X125658571Y-74064761D01*
X125706190Y-74112380D01*
X125753809Y-74064761D01*
X125706190Y-74017142D01*
X125706190Y-74112380D01*
X125039523Y-73112380D02*
X124944285Y-73112380D01*
X124849047Y-73160000D01*
X124801428Y-73207619D01*
X124753809Y-73302857D01*
X124706190Y-73493333D01*
X124706190Y-73731428D01*
X124753809Y-73921904D01*
X124801428Y-74017142D01*
X124849047Y-74064761D01*
X124944285Y-74112380D01*
X125039523Y-74112380D01*
X125134761Y-74064761D01*
X125182380Y-74017142D01*
X125230000Y-73921904D01*
X125277619Y-73731428D01*
X125277619Y-73493333D01*
X125230000Y-73302857D01*
X125182380Y-73207619D01*
X125134761Y-73160000D01*
X125039523Y-73112380D01*
X124372857Y-73112380D02*
X123706190Y-73112380D01*
X124134761Y-74112380D01*
X127658571Y-71572380D02*
X127658571Y-70572380D01*
X127277619Y-70572380D01*
X127182380Y-70620000D01*
X127134761Y-70667619D01*
X127087142Y-70762857D01*
X127087142Y-70905714D01*
X127134761Y-71000952D01*
X127182380Y-71048571D01*
X127277619Y-71096190D01*
X127658571Y-71096190D01*
X126468095Y-70572380D02*
X126372857Y-70572380D01*
X126277619Y-70620000D01*
X126230000Y-70667619D01*
X126182380Y-70762857D01*
X126134761Y-70953333D01*
X126134761Y-71191428D01*
X126182380Y-71381904D01*
X126230000Y-71477142D01*
X126277619Y-71524761D01*
X126372857Y-71572380D01*
X126468095Y-71572380D01*
X126563333Y-71524761D01*
X126610952Y-71477142D01*
X126658571Y-71381904D01*
X126706190Y-71191428D01*
X126706190Y-70953333D01*
X126658571Y-70762857D01*
X126610952Y-70667619D01*
X126563333Y-70620000D01*
X126468095Y-70572380D01*
X125706190Y-71477142D02*
X125658571Y-71524761D01*
X125706190Y-71572380D01*
X125753809Y-71524761D01*
X125706190Y-71477142D01*
X125706190Y-71572380D01*
X125039523Y-70572380D02*
X124944285Y-70572380D01*
X124849047Y-70620000D01*
X124801428Y-70667619D01*
X124753809Y-70762857D01*
X124706190Y-70953333D01*
X124706190Y-71191428D01*
X124753809Y-71381904D01*
X124801428Y-71477142D01*
X124849047Y-71524761D01*
X124944285Y-71572380D01*
X125039523Y-71572380D01*
X125134761Y-71524761D01*
X125182380Y-71477142D01*
X125230000Y-71381904D01*
X125277619Y-71191428D01*
X125277619Y-70953333D01*
X125230000Y-70762857D01*
X125182380Y-70667619D01*
X125134761Y-70620000D01*
X125039523Y-70572380D01*
X124134761Y-71000952D02*
X124230000Y-70953333D01*
X124277619Y-70905714D01*
X124325238Y-70810476D01*
X124325238Y-70762857D01*
X124277619Y-70667619D01*
X124230000Y-70620000D01*
X124134761Y-70572380D01*
X123944285Y-70572380D01*
X123849047Y-70620000D01*
X123801428Y-70667619D01*
X123753809Y-70762857D01*
X123753809Y-70810476D01*
X123801428Y-70905714D01*
X123849047Y-70953333D01*
X123944285Y-71000952D01*
X124134761Y-71000952D01*
X124230000Y-71048571D01*
X124277619Y-71096190D01*
X124325238Y-71191428D01*
X124325238Y-71381904D01*
X124277619Y-71477142D01*
X124230000Y-71524761D01*
X124134761Y-71572380D01*
X123944285Y-71572380D01*
X123849047Y-71524761D01*
X123801428Y-71477142D01*
X123753809Y-71381904D01*
X123753809Y-71191428D01*
X123801428Y-71096190D01*
X123849047Y-71048571D01*
X123944285Y-71000952D01*
X127658571Y-69032380D02*
X127658571Y-68032380D01*
X127277619Y-68032380D01*
X127182380Y-68080000D01*
X127134761Y-68127619D01*
X127087142Y-68222857D01*
X127087142Y-68365714D01*
X127134761Y-68460952D01*
X127182380Y-68508571D01*
X127277619Y-68556190D01*
X127658571Y-68556190D01*
X126468095Y-68032380D02*
X126372857Y-68032380D01*
X126277619Y-68080000D01*
X126230000Y-68127619D01*
X126182380Y-68222857D01*
X126134761Y-68413333D01*
X126134761Y-68651428D01*
X126182380Y-68841904D01*
X126230000Y-68937142D01*
X126277619Y-68984761D01*
X126372857Y-69032380D01*
X126468095Y-69032380D01*
X126563333Y-68984761D01*
X126610952Y-68937142D01*
X126658571Y-68841904D01*
X126706190Y-68651428D01*
X126706190Y-68413333D01*
X126658571Y-68222857D01*
X126610952Y-68127619D01*
X126563333Y-68080000D01*
X126468095Y-68032380D01*
X125706190Y-68937142D02*
X125658571Y-68984761D01*
X125706190Y-69032380D01*
X125753809Y-68984761D01*
X125706190Y-68937142D01*
X125706190Y-69032380D01*
X125039523Y-68032380D02*
X124944285Y-68032380D01*
X124849047Y-68080000D01*
X124801428Y-68127619D01*
X124753809Y-68222857D01*
X124706190Y-68413333D01*
X124706190Y-68651428D01*
X124753809Y-68841904D01*
X124801428Y-68937142D01*
X124849047Y-68984761D01*
X124944285Y-69032380D01*
X125039523Y-69032380D01*
X125134761Y-68984761D01*
X125182380Y-68937142D01*
X125230000Y-68841904D01*
X125277619Y-68651428D01*
X125277619Y-68413333D01*
X125230000Y-68222857D01*
X125182380Y-68127619D01*
X125134761Y-68080000D01*
X125039523Y-68032380D01*
X124230000Y-69032380D02*
X124039523Y-69032380D01*
X123944285Y-68984761D01*
X123896666Y-68937142D01*
X123801428Y-68794285D01*
X123753809Y-68603809D01*
X123753809Y-68222857D01*
X123801428Y-68127619D01*
X123849047Y-68080000D01*
X123944285Y-68032380D01*
X124134761Y-68032380D01*
X124230000Y-68080000D01*
X124277619Y-68127619D01*
X124325238Y-68222857D01*
X124325238Y-68460952D01*
X124277619Y-68556190D01*
X124230000Y-68603809D01*
X124134761Y-68651428D01*
X123944285Y-68651428D01*
X123849047Y-68603809D01*
X123801428Y-68556190D01*
X123753809Y-68460952D01*
X127658571Y-66492380D02*
X127658571Y-65492380D01*
X127277619Y-65492380D01*
X127182380Y-65540000D01*
X127134761Y-65587619D01*
X127087142Y-65682857D01*
X127087142Y-65825714D01*
X127134761Y-65920952D01*
X127182380Y-65968571D01*
X127277619Y-66016190D01*
X127658571Y-66016190D01*
X126468095Y-65492380D02*
X126372857Y-65492380D01*
X126277619Y-65540000D01*
X126230000Y-65587619D01*
X126182380Y-65682857D01*
X126134761Y-65873333D01*
X126134761Y-66111428D01*
X126182380Y-66301904D01*
X126230000Y-66397142D01*
X126277619Y-66444761D01*
X126372857Y-66492380D01*
X126468095Y-66492380D01*
X126563333Y-66444761D01*
X126610952Y-66397142D01*
X126658571Y-66301904D01*
X126706190Y-66111428D01*
X126706190Y-65873333D01*
X126658571Y-65682857D01*
X126610952Y-65587619D01*
X126563333Y-65540000D01*
X126468095Y-65492380D01*
X125706190Y-66397142D02*
X125658571Y-66444761D01*
X125706190Y-66492380D01*
X125753809Y-66444761D01*
X125706190Y-66397142D01*
X125706190Y-66492380D01*
X124706190Y-66492380D02*
X125277619Y-66492380D01*
X124991904Y-66492380D02*
X124991904Y-65492380D01*
X125087142Y-65635238D01*
X125182380Y-65730476D01*
X125277619Y-65778095D01*
X124087142Y-65492380D02*
X123991904Y-65492380D01*
X123896666Y-65540000D01*
X123849047Y-65587619D01*
X123801428Y-65682857D01*
X123753809Y-65873333D01*
X123753809Y-66111428D01*
X123801428Y-66301904D01*
X123849047Y-66397142D01*
X123896666Y-66444761D01*
X123991904Y-66492380D01*
X124087142Y-66492380D01*
X124182380Y-66444761D01*
X124230000Y-66397142D01*
X124277619Y-66301904D01*
X124325238Y-66111428D01*
X124325238Y-65873333D01*
X124277619Y-65682857D01*
X124230000Y-65587619D01*
X124182380Y-65540000D01*
X124087142Y-65492380D01*
X127658571Y-63952380D02*
X127658571Y-62952380D01*
X127277619Y-62952380D01*
X127182380Y-63000000D01*
X127134761Y-63047619D01*
X127087142Y-63142857D01*
X127087142Y-63285714D01*
X127134761Y-63380952D01*
X127182380Y-63428571D01*
X127277619Y-63476190D01*
X127658571Y-63476190D01*
X126468095Y-62952380D02*
X126372857Y-62952380D01*
X126277619Y-63000000D01*
X126230000Y-63047619D01*
X126182380Y-63142857D01*
X126134761Y-63333333D01*
X126134761Y-63571428D01*
X126182380Y-63761904D01*
X126230000Y-63857142D01*
X126277619Y-63904761D01*
X126372857Y-63952380D01*
X126468095Y-63952380D01*
X126563333Y-63904761D01*
X126610952Y-63857142D01*
X126658571Y-63761904D01*
X126706190Y-63571428D01*
X126706190Y-63333333D01*
X126658571Y-63142857D01*
X126610952Y-63047619D01*
X126563333Y-63000000D01*
X126468095Y-62952380D01*
X125706190Y-63857142D02*
X125658571Y-63904761D01*
X125706190Y-63952380D01*
X125753809Y-63904761D01*
X125706190Y-63857142D01*
X125706190Y-63952380D01*
X124706190Y-63952380D02*
X125277619Y-63952380D01*
X124991904Y-63952380D02*
X124991904Y-62952380D01*
X125087142Y-63095238D01*
X125182380Y-63190476D01*
X125277619Y-63238095D01*
X123753809Y-63952380D02*
X124325238Y-63952380D01*
X124039523Y-63952380D02*
X124039523Y-62952380D01*
X124134761Y-63095238D01*
X124230000Y-63190476D01*
X124325238Y-63238095D01*
M02*
